<svg viewBox="0 0 600 250" style="width:60px;height:25px">
	<path fill="var(--primary)" d="M586.3 68.8c0-1.9.3-6.1.6-10.1.5-6.3-3.4-12-9.4-13.8-9.1-2.8-20-4.7-20-4.7-39.7-17.2-107.4-7.5-107.4-7.5-63.1.3-119.7 31.7-119.7 31.7-8.2 3.9-27.7 4.9-31.3 5-3.6-.1-23-1.1-31.3-5 0 0-56.5-31.5-119.5-31.8 0 0-62.9-10.6-102.5 6.6 0 0-10.5 1.6-20.2 3.9C17 45.2 11 52.8 11 61.5l1.2 8.3s1.7 8.2 3.2 11.3l3.6 8.6 2.7 4 14 42s13.7 47.8 54.9 70.6c0 0 26.1 16.3 61.9 14.8 0 0 40.6.9 74.6-26.1 0 0 25.8-21.4 37.9-53.4l12.1-31.1s3.2-16.6 22-17c18.8.3 22 17 22 17l12.2 31.1c12.2 32.1 38 53.4 38 53.4 34.1 27 74.8 26.1 74.8 26.1 35.9 1.5 62-14.8 62-14.8 41.3-22.9 55-70.6 55-70.6l14-42 1.7-5.1 4-9.5c2.5-4.4 3.5-10.3 3.5-10.3zm-324 33.2c-6.5 61.1-51.3 113.4-111.1 110.8-71.7 2.4-108.7-62.5-110-123.8-.8-43.1 51.9-41 101.1-44.9 56.5 0 121.5 20.1 120 57.9zm185 110.8c-60 2.6-104.9-49.7-111.4-110.8-1.6-37.8 63.6-58 120.3-58 49.3 4 102.1 1.8 101.3 44.9-1.3 61.4-38.5 126.3-110.2 123.9z"/>
</svg>