<svg viewBox="0 0 600 250" style="width:60px;height:25px">
	<path fill="var(--primary)" d="M84.8 178.6s39 32.7 87.3 30.7c0 0 54.4 1.5 84.4-37.6 0 0 13.7-20.9 23.4-46.8 0 0 1.5-12 20-12.5 18.5.5 20 12.5 20 12.5 9.8 25.9 23.4 46.8 23.4 46.8 30 39 84.5 37.6 84.5 37.6 48.3 2 87.4-30.7 87.4-30.7 60.8-49.3 57-109.8 57-109.8 1.5-34.5-76.3-27.8-76.3-27.8-75.2-1.2-162.3 38.2-162.3 38.2-12.3 6.6-32.3 7.1-33.6 7.1-1.3 0-21.3-.5-33.6-7.1 0 0-87.1-39.4-162.2-38.2 0 0-77.7-6.7-76.2 27.8-.1.1-4 60.6 56.8 109.8zM440.2 58.4c59.1-6.8 101.4-8 100.3 31.8 0 62.2-49.4 107-111.7 107s-90.3-38.8-91.5-79.5c-.9-32 49.2-48.4 102.9-59.3zm-280.5 0c53.6 11 103.6 27.3 102.9 59.3-1.2 40.7-29.2 79.5-91.5 79.5S59.5 152.4 59.5 90.2c-1.1-39.9 41.1-38.7 100.2-31.8z"/>
</svg>