<?xml version="1.0" encoding="utf-8"?>
<!-- Generator: Adobe Illustrator 24.0.1, SVG Export Plug-In . SVG Version: 6.00 Build 0)  -->
<svg version="1.1" id="Capa_1" xmlns="http://www.w3.org/2000/svg" xmlns:xlink="http://www.w3.org/1999/xlink" x="0px" y="0px"
	 viewBox="0 0 600 250" style="enable-background:new 0 0 600 250;" xml:space="preserve">
<style type="text/css">
	.st0{fill:#272525;}
</style>
<g id="_x2018_ëîé_x5F_2">
</g>
<g id="_x2018_ëîé_x5F_1">
	<path class="st0" d="M586.3,68.8c0-1.9,0.3-6.1,0.6-10.1c0.5-6.3-3.4-12-9.4-13.8c-9.1-2.8-20-4.7-20-4.7
		c-39.7-17.2-107.4-7.5-107.4-7.5C387,33,330.4,64.4,330.4,64.4c-8.2,3.9-27.7,4.9-31.3,5c-3.6-0.1-23-1.1-31.3-5
		c0,0-56.5-31.5-119.5-31.8c0,0-62.9-10.6-102.5,6.6c0,0-10.5,1.6-20.2,3.9C17,45.2,11,52.8,11,61.5l1.2,8.3c0,0,1.7,8.2,3.2,11.3
		l3.6,8.6l2.7,4l14,42c0,0,13.7,47.8,54.9,70.6c0,0,26.1,16.3,61.9,14.8c0,0,40.6,0.9,74.6-26.1c0,0,25.8-21.4,37.9-53.4l12.1-31.1
		c0,0,3.2-16.6,22-17c18.8,0.3,22,17,22,17l12.2,31.1c12.2,32.1,38,53.4,38,53.4c34.1,27,74.8,26.1,74.8,26.1
		c35.9,1.5,62-14.8,62-14.8c41.3-22.9,55-70.6,55-70.6l14-42l1.7-5.1l4-9.5C585.3,74.7,586.3,68.8,586.3,68.8z M262.3,102
		c-6.5,61.1-51.3,113.4-111.1,110.8C79.5,215.2,42.5,150.3,41.2,89c-0.8-43.1,51.9-41,101.1-44.9C198.8,44.1,263.8,64.2,262.3,102z
		 M447.3,212.8c-60,2.6-104.9-49.7-111.4-110.8c-1.6-37.8,63.6-58,120.3-58c49.3,4,102.1,1.8,101.3,44.9
		C556.2,150.3,519,215.2,447.3,212.8z"/>
</g>
</svg>
