<?xml version="1.0" encoding="utf-8"?>
<!-- Generator: Adobe Illustrator 24.0.1, SVG Export Plug-In . SVG Version: 6.00 Build 0)  -->
<svg version="1.1" id="Capa_1" xmlns="http://www.w3.org/2000/svg" xmlns:xlink="http://www.w3.org/1999/xlink" x="0px" y="0px"
	 viewBox="0 0 600 250" style="enable-background:new 0 0 600 250;" xml:space="preserve">
<g id="_x2018_ëîé_x5F_2">
</g>
<g id="_x2018_ëîé_x5F_1">
	<path d="M35.6,175.2c13.7,5.8,138.2,32.4,191.5,10.8c53.3-21.6,24.3-74.2,67.5-72.8c43.2-1.5,14.2,51.2,67.5,72.8
		c53.3,21.6,177.7-5,191.4-10.8c13.7-5.8,13-36.7,17.3-46.1c4.3-9.4,23.7-15.8,23.7-15.8V63.5c-28.4-13.7-172.3-6.5-206.9,0
		c-34.6,6.5-91,19.5-91,19.5S242.6,70,208,63.5C173.4,57,25.8,49.8,5.5,63.5v49.7c0,0,14,6.5,18.3,15.8
		C28.1,138.4,21.9,169.4,35.6,175.2z M335.1,91.2c10.7-8.4,82.4-29.7,195.8-20.8c6.3,0.5,20.3,4.8,20.8,14
		c0.5,9.2,0.5,58.5-2.5,65.3c-3.1,6.9-4.8,22.1-68.1,30.8s-116.4,1.8-130.2-16.5C337.1,145.6,324.4,99.6,335.1,91.2z M37.6,84.4
		c0.5-9.2,14.6-13.5,20.8-14c113.4-8.9,185.1,12.5,195.8,20.8c10.7,8.4-2,54.4-15.8,72.7c-13.7,18.3-66.9,25.2-130.2,16.5
		c-63.3-8.6-65.1-23.9-68.1-30.8C37.1,142.8,37.1,93.5,37.6,84.4z"/>
</g>
</svg>
