<svg viewBox="0 0 600 250" style="width:60px;height:25px">
	<path fill="var(--primary)" d="M35.6 175.2c13.7 5.8 138.2 32.4 191.5 10.8 53.3-21.6 24.3-74.2 67.5-72.8 43.2-1.5 14.2 51.2 67.5 72.8 53.3 21.6 177.7-5 191.4-10.8 13.7-5.8 13-36.7 17.3-46.1 4.3-9.4 23.7-15.8 23.7-15.8V63.5c-28.4-13.7-172.3-6.5-206.9 0-34.6 6.5-91 19.5-91 19.5s-54-13-88.6-19.5C173.4 57 25.8 49.8 5.5 63.5v49.7s14 6.5 18.3 15.8c4.3 9.4-1.9 40.4 11.8 46.2zm299.5-84c10.7-8.4 82.4-29.7 195.8-20.8 6.3.5 20.3 4.8 20.8 14s.5 58.5-2.5 65.3c-3.1 6.9-4.8 22.1-68.1 30.8s-116.4 1.8-130.2-16.5c-13.8-18.4-26.5-64.4-15.8-72.8zM37.6 84.4c.5-9.2 14.6-13.5 20.8-14 113.4-8.9 185.1 12.5 195.8 20.8 10.7 8.4-2 54.4-15.8 72.7-13.7 18.3-66.9 25.2-130.2 16.5-63.3-8.6-65.1-23.9-68.1-30.8-3-6.8-3-56.1-2.5-65.2z"/>
</svg>