<svg viewBox="0 0 600 250" style="width:60px;height:25px">
	<path fill="var(--primary)" d="M466.8 44c-7.8.4-22.5 1.4-39.4 4-13.7 1.6-27.9 4.5-41.1 9-20.3 6.2-38.6 15.4-47.7 28.7-11-5.2-29.3-9.8-38.1-9.8-9.1 0-28.1 4.8-39 10.2-11.9-18-40.6-28.4-68.4-34.4-3.9-.9-7.7-1.6-11.6-2.3-20.6-3.6-39.3-5-48.4-5.4C108.2 42.8 32 31.7 30.3 39.4c-1.7 7.7-4.3 21.1-1 24.4s15 40.9 17.2 45.9c.9 2 3.7 3.3 6.8 4 .2 1.4.4 2.8.6 4.1.2 1.6.5 3.1.6 4.6.1 2.8 1.3 28.8 6.3 36.8.4.7 1 2 1.7 3.6 6 13.9 22.1 50.9 94.2 54.1 2 .1 3.9.1 5.8.1 78.9 0 100.8-70.2 102.4-89.4.4-4.5.4-8 .2-11.6h4.6l-3.5-19.7c-.3-1.3-.8-1.9-1.3-5.5h70.4c-.5 3.6-.9 4.2-1.3 5.5l-3.5 19.7h3c-.2 3.6-.2 7.1.2 11.6 1.5 19.1 23.5 90 102.4 90 1.9 0 3.8-.3 5.8-.4C514 214 530 176.9 536 162.9c.7-1.6 1.3-3 1.7-3.7 5-8.1 6.2-34 6.3-36.9.1-1.4.3-3 .6-4.6.2-1.2.4-2.5.5-3.8 3.6-.8 7.3-2.1 8.3-4.4 2.2-5 13.8-42.6 17.1-45.9 3.3-3.3.7-21.9-.9-29.6-1.6-7.5-77.9 8.8-102.8 10zm-209.2 82c-1.5 18.2-22.9 87.2-100.7 83.8-67.5-3-82.3-37-87.8-49.8-.8-1.9-1.5-3.4-2.2-4.5-3-4.9-4.8-23.1-5.2-33.5-.1-1.7-.4-3.4-.6-5.2-.1-.6-.2-1.2-.3-1.9 1.3.1 2.2.1 2.2.1.2-26.9 26.6-44.9 52.9-49.6 39.8-7.2 100.6-1.3 128.3 24.2 7.7 7 12.5 20.3 13.6 23.4.2 4.2.2 8.5-.2 13zm279.8-9.1c-.3 1.8-.5 3.5-.6 5.2-.4 10.3-2.2 28.6-5.2 33.5-.7 1.1-1.3 2.6-2.2 4.5-5.6 12.8-20.3 46.8-87.8 49.8-77.8 3.3-99.2-64.4-100.7-82.6-.3-4.2-.4-7.4-.2-11h1.3S347.1 99 355.8 91c27.6-25.4 88.5-32 128.3-24.8 26.3 4.7 52.7 22.4 52.9 49.3 0 0 .2-.2.7-.2-.1.6-.2 1-.3 1.6z"/>
</svg>