<svg viewBox="0 0 600 250" style="width:60px;height:25px">
	<path fill="var(--primary)" d="M351.6 47.3c-16.2 5.3-35.3 12.9-51.6 12.9-16.3 0-35.4-7.6-51.6-12.9-43.7-14.4-153.9-23.7-223.6-1.4l2.1 38.6s12.7-2.8 16.9 11.2c4.2 13.9 13.9 71.4 31.7 93.9 22.1 27.9 69.6 29 101.7 27.6 43.3-1.9 71.6-21.1 83.7-53.6s18.9-60.4 26.6-69.3c4.2-4.8 8.9-5.1 12.6-5.1s8.4.3 12.6 5.1c7.7 8.8 14.6 36.7 26.6 69.3 12.1 32.5 40.4 51.7 83.7 53.6 32.1 1.4 79.6.3 101.7-27.6 17.8-22.5 27.5-79.9 31.7-93.9 4.2-13.9 16.9-11.2 16.9-11.2l2.1-38.6c-70-22.3-180.1-13-223.8 1.4zM37.7 64c0-2.7 7-5 15.6-5s15.6 2.2 15.6 5-7 5-15.6 5-15.6-2.2-15.6-5zm203.7 99.5c-11.6 21.8-31.1 33-60.4 36.7s-64.3-2-82-12.6c-15.5-9.3-23.1-38.6-26.8-56.2-3.7-17.7-10.2-55.8 7.9-68.3s63.7-13.5 93.9-11.6c22.8 1.4 72 7.4 81.3 25.1 9.4 17.6-4.5 69.2-13.9 86.9zm286.4-32.1c-3.7 17.7-11.3 47-26.8 56.2-17.7 10.5-52.7 16.3-82 12.6s-48.8-14.9-60.4-36.7c-9.4-17.7-23.2-69.3-13.9-86.9s58.6-23.7 81.3-25.1c30.2-1.9 75.8-.9 93.9 11.6 18.1 12.5 11.6 50.7 7.9 68.3zM546.7 69c-8.6 0-15.6-2.2-15.6-5s7-5 15.6-5 15.6 2.2 15.6 5-7 5-15.6 5z"/>
</svg>