<?xml version="1.0" encoding="utf-8"?>
<!-- Generator: Adobe Illustrator 27.4.1, SVG Export Plug-In . SVG Version: 6.00 Build 0)  -->
<svg version="1.1" id="Capa_1" xmlns="http://www.w3.org/2000/svg" xmlns:xlink="http://www.w3.org/1999/xlink" x="0px" y="0px"
	 viewBox="0 0 600 250" style="enable-background:new 0 0 600 250;" xml:space="preserve">
<style type="text/css">
	.st0{fill:#383838;}
</style>
<g id="_x2018_ëîé_x5F_2">
</g>
<path class="st0" d="M583.8,97.7h-6.6c-2.2-18.5-9.8-33.2-10.3-34c-16.2-24.5-35.7-36.5-57.3-42.4c-20.1-5.6-42-6-64.5-6.3l-8.5-0.1
	c-1.4,0-2.9-0.1-4.3-0.1c-6.7,0-13.2,0.9-19.4,0.9H301.4H184.6c-7.7,0-15.9-1.1-24.5-0.9l-8.5,0.1c-46.5,0.8-90.4,1.3-121.7,48.7
	c-0.5,0.8-8.1,15.5-10.3,34.1h-3.4v0.1H13v14.9h6.1c0.1,3.5,0.3,6.7,0.6,9.8c0.7,6.9,2,13.2,4.2,20.8c14.2,48.5,42.2,80.1,78.9,88.1
	c10.8,2.4,19.9,3.9,28.7,3.9c33.6,0,63.4-15.8,96.8-53.1c32.9-36.7,41.8-77,39.4-103.1H329c-2.4,26.1,6.6,66.3,39.4,103
	c33.4,37.3,63.2,53.1,96.8,53.1c8.8,0,17.9-1.5,28.7-3.9c36.7-8,64.7-39.6,78.9-88.1c1.6-5.6,2.8-10.5,3.6-15.5
	c0.8-4.7,1.2-9.5,1.3-15h2.9v-0.1h3.2V97.7z M339.7,44.4c-2.4,2.7-4.6,6-6.3,10.6c-0.6,1.6-1.2,3.4-1.8,5.4h-66.4
	c-2-7.5-4.8-12.3-8.1-16c-6.8-7.7-19.2-15.3-35.8-21c17.7-0.4,35.6,3.1,38.9,6.9c3.6,4.1,35.2,3.8,35.2,3.8s4.7,0,10.7-0.1
	c8.9-0.1,27.8-0.7,30.5-3.8c3.1-3.5,18.4-6.7,34.6-6.9c1.6,0,3.2,0,4.8,0.1c-3.8,1.3-7.4,2.7-10.8,4.2
	C353.8,32.5,345,38.4,339.7,44.4z M38.5,139.2c-11.8-40.4,4.1-67,4.4-67.1C69.6,31.6,106,31,152.1,30.2l8.6-0.2c1.4,0,2.7,0,4,0
	c43.6,0,72.6,14.8,81.4,24.7c0.8,0.8,1.5,2,2.2,3.4c7.7,16.2,11,65.2-31.1,112.1c-38.8,43.4-66.1,48.7-85.6,48.7
	c-7.7,0-15.8-0.8-25.6-2.9c-15.5-3.4-29.3-11.8-40.7-24.7C53.8,178.3,44.7,160.7,38.5,139.2z M490.8,216.2
	c-9.8,2.1-17.9,2.9-25.6,2.9c-19.5,0-46.8-5.3-85.6-48.7c-46.3-51.6-37.7-105.7-28.7-116c1.1-1.2,2.5-2.5,4.2-3.9
	c0.2-0.2,0.5-0.4,0.7-0.6c0.2-0.1,0.3-0.2,0.5-0.4c12.7-9.2,39-19.7,75.8-19.7c1,0,2.1,0,3.2,0c0.4,0,0.7,0,1.1,0l8.6,0.2
	c27.3,0.5,51.2,0.9,71.8,9.7c0.3,0.1,0.6,0.3,0.9,0.4c0.2,0.1,0.4,0.2,0.6,0.3c13.4,6,25.2,15.8,35.7,31.6
	c0.3,0.1,16.2,26.7,4.4,67.1c-9.4,32.2-25.2,55.8-45.7,68.4C505.8,211.6,498.5,214.5,490.8,216.2z"/>
</svg>
