<svg xmlns="http://www.w3.org/2000/svg">
  <symbol id="facebook" viewBox="0 0 100 100">
    <title>Facebook</title>
    <path d="M57.8 100V54.4h15.3l2.3-17.8H57.8V25.3c0-5.1 1.4-8.7 8.8-8.7H76V.7C74.4.5 68.8 0 62.3 0 48.7 0 39.4 8.3 39.4 23.5v13.1H24v17.8h15.4V100h18.4z" />
  </symbol>

  <symbol id="instagram" viewBox="0 0 100 100">
    <title>Instagram</title>
    <path d="M50 9c13.4 0 14.9.1 20.2.3 4.9.2 7.5 1 9.3 1.7 2.3.9 4 2 5.7 3.7 1.7 1.7 2.8 3.4 3.7 5.7.7 1.8 1.5 4.4 1.7 9.3.3 5.4.4 6.9.4 20.3s-.1 14.9-.3 20.2c-.2 4.9-1 7.5-1.7 9.3-.9 2.3-2 4-3.7 5.7-1.7 1.7-3.4 2.8-5.7 3.7-1.8.7-4.4 1.5-9.3 1.7-5.4.3-6.9.4-20.3.4s-14.9-.1-20.2-.3c-4.9-.2-7.5-1-9.3-1.7-2.3-.9-4-2-5.7-3.7-1.7-1.7-2.8-3.4-3.7-5.7-.7-1.8-1.5-4.4-1.7-9.3C9.1 64.9 9 63.4 9 50s.1-14.9.3-20.2c.2-4.9 1-7.5 1.7-9.3.9-2.3 2-4 3.7-5.7 1.7-1.7 3.4-2.8 5.7-3.7 1.8-.7 4.4-1.5 9.3-1.7C35.1 9.1 36.6 9 50 9m0-9C36.4 0 34.7.1 29.4.3c-5.3.2-9 1.1-12.1 2.3-3.3 1.3-6.1 3-8.9 5.8-2.8 2.8-4.5 5.6-5.8 8.9C1.4 20.5.5 24.1.3 29.4.1 34.7 0 36.4 0 50c0 13.6.1 15.3.3 20.6.2 5.3 1.1 9 2.3 12.1 1.3 3.3 3 6.1 5.8 8.9 2.8 2.8 5.6 4.5 8.9 5.8 3.2 1.2 6.8 2.1 12.1 2.3 5.3.2 7 .3 20.6.3s15.3-.1 20.6-.3c5.3-.2 9-1.1 12.1-2.3 3.3-1.3 6.1-3 8.9-5.8 2.8-2.8 4.5-5.6 5.8-8.9 1.2-3.2 2.1-6.8 2.3-12.1.2-5.3.3-7 .3-20.6s-.1-15.3-.3-20.6c-.2-5.3-1.1-9-2.3-12.1-1.3-3.3-3-6.1-5.8-8.9-2.8-2.8-5.6-4.5-8.9-5.8C79.5 1.4 75.9.5 70.6.3 65.3.1 63.6 0 50 0z"/><path d="M50 24.3c-14.2 0-25.7 11.5-25.7 25.7S35.8 75.7 50 75.7 75.7 64.2 75.7 50 64.2 24.3 50 24.3zm0 42.4c-9.2 0-16.7-7.5-16.7-16.7S40.8 33.3 50 33.3 66.7 40.8 66.7 50 59.2 66.7 50 66.7z" />
    <circle cx="76.7" cy="23.3" r="6" />
  </symbol>

  <symbol id="linkedin" viewBox="0 0 100 100">
    <title>LinkedIn</title>
    <path d="M92.6 0H7.4C3.3 0 0 3.2 0 7.2v85.6c0 4 3.3 7.2 7.4 7.2h85.2c4.1 0 7.4-3.2 7.4-7.2V7.2c0-4-3.3-7.2-7.4-7.2zM29.7 85.2H14.8V37.5h14.8v47.7zM22.2 31c-4.8 0-8.6-3.9-8.6-8.6 0-4.7 3.8-8.6 8.6-8.6 4.7 0 8.6 3.9 8.6 8.6 0 4.7-3.8 8.6-8.6 8.6zm63 54.2H70.4V62c0-5.5-.1-12.7-7.7-12.7-7.7 0-8.9 6-8.9 12.3v23.6H39V37.5h14.2V44h.2c2-3.8 6.8-7.7 14-7.7 15 0 17.8 9.9 17.8 22.7v26.2z" />
  </symbol>

  <symbol id="pinterest" viewBox="0 0 100 100">
    <title>Pinterest</title>
    <path d="M50 2.5C23.8 2.5 2.5 23.8 2.5 50c0 20.1 12.5 37.3 30.2 44.2-.4-3.8-.8-9.5.2-13.6.9-3.7 5.6-23.6 5.6-23.6S37 54.2 37 49.9c0-6.6 3.8-11.5 8.6-11.5 4.1 0 6 3 6 6.7 0 4.1-2.6 10.2-3.9 15.8-1.1 4.7 2.4 8.6 7 8.6 8.4 0 14.9-8.9 14.9-21.8 0-11.4-8.2-19.3-19.8-19.3-13.5 0-21.4 10.1-21.4 20.6 0 4.1 1.6 8.5 3.5 10.8.4.5.4.9.3 1.4-.4 1.5-1.2 4.7-1.3 5.4-.2.9-.7 1.1-1.6.6-5.9-2.8-9.6-11.4-9.6-18.4 0-15 10.9-28.7 31.4-28.7 16.5 0 29.3 11.7 29.3 27.4C80.4 63.9 70.1 77 55.8 77c-4.8 0-9.3-2.5-10.9-5.5 0 0-2.4 9.1-3 11.3-1.1 4.1-4 9.3-5.9 12.5 4.4 1.4 9.2 2.1 14.1 2.1 26.2 0 47.5-21.3 47.5-47.5C97.5 23.8 76.2 2.5 50 2.5z" />
  </symbol>

  <symbol id="tumblr" viewBox="0 0 100 100">
    <title>Tumblr</title>
    <path d="M62.6 100c10 0 20-3.6 23.3-7.9l.7-.9-6.2-18.4c-.1-.2-.2-.3-.4-.3H66.1c-.2 0-.4-.1-.4-.3-.2-.6-.3-1.4-.3-2.3V47.5c0-.2.2-.4.4-.4h16.4c.2 0 .4-.2.4-.4v-23c0-.2-.2-.4-.4-.4H65.8c-.2 0-.4-.2-.4-.4V.4c0-.2-.2-.4-.4-.4H36.4c-2 0-4.4 1.5-4.7 4.3-1.4 11.6-6.7 18.5-16.8 21.9l-1.1.4c-.2.1-.3.2-.3.4v19.8c0 .2.2.4.4.4h10.2v24.3c0 19.3 13.5 28.5 38.5 28.5zm19.1-9.4c-3.1 3-9.6 5.2-15.7 5.3h-.7C45 96 39.6 80.5 39.6 71.4v-28c0-.2-.2-.4-.4-.4h-9.8c-.2 0-.4-.2-.4-.4V29.8c0-.2.1-.3.3-.4 10.5-4.1 16.3-12.1 17.9-24.6.1-.7.7-.7.7-.7H61c.2 0 .4.2.4.4v22.4c0 .2.2.4.4.4H78c.2 0 .4.2.4.4v14.8c0 .2-.2.4-.4.4H61.6c-.2 0-.4.2-.4.4v26.6c.1 6 3 9 8.6 9 2.3 0 4.9-.5 7.3-1.4.2-.1.5 0 .5.3l4.2 12.3c.1.2 0 .4-.1.5z" />
  </symbol>

  <symbol id="twitter" viewBox="0 0 100 100">
    <title>Twitter</title>
    <path d="M100 19.1c-3.7 1.6-7.6 2.7-11.8 3.2 4.2-2.5 7.5-6.5 9-11.3-4 2.3-8.4 4-13 5-3.7-4-9.1-6.5-15-6.5-11.3 0-20.5 9.2-20.5 20.4 0 1.6.2 3.2.5 4.7-17.1-.9-32.2-9-42.3-21.4-1.8 3-2.8 6.5-2.8 10.3 0 7.1 3.6 13.4 9.1 17-3.4-.1-6.5-1-9.3-2.6v.3c0 9.9 7.1 18.2 16.5 20.1-1.7.5-3.5.7-5.4.7-1.3 0-2.6-.1-3.9-.4 2.6 8.1 10.2 14 19.2 14.2-7 5.5-15.9 8.8-25.5 8.8-1.7 0-3.3-.1-4.9-.3 9.1 5.8 19.9 9.2 31.4 9.2 37.7 0 58.4-31.2 58.4-58.2 0-.9 0-1.8-.1-2.6 4.2-2.9 7.6-6.5 10.4-10.6z" />
  </symbol>

  <symbol id="vimeo" viewBox="0 0 100 100">
    <title>Vimeo</title>
    <path d="M100 26.9q-.72 14.51-20.44 39.75Q59.16 93 45 93q-8.74 0-14.79-16l-8.02-29.48q-4.49-16-9.63-16.05-1.12 0-7.85 4.68L0 30.13q7.4-6.47 14.59-12.94 9.87-8.48 14.82-8.93 11.67-1.11 14.37 15.87 2.91 18.32 4 22.79 3.36 15.2 7.41 15.2 3.14 0 9.43-9.86t6.73-15q.9-8.51-6.73-8.52a18.82 18.82 0 0 0-7.4 1.63Q64.63 6.35 85.42 7q15.42.47 14.58 19.9z" />
  </symbol>

  <symbol id="youtube" viewBox="0 0 100 100">
    <title>YouTube</title>
    <path d="M99 30.1s-1-6.86-4-9.88c-3.8-4-8.07-4-10-4.22-14-1-35-1-35-1s-21 0-35 1c-2 .23-6.22.25-10 4.22-3 3-4 9.88-4 9.88a149.82 149.82 0 0 0-1 16.11v7.55a149.81 149.81 0 0 0 1 16.11s1 6.86 4 9.88c3.8 4 8.8 3.84 11 4.25 8 .76 34 1 34 1s21 0 35-1c2-.23 6.22-.25 10-4.22 3-3 4-9.88 4-9.88a150 150 0 0 0 1-16.11v-7.58a150 150 0 0 0-1-16.11M39.68 62.91v-28l27 14z" />
  </symbol>

  <symbol id="whatsapp" viewBox="0 0 100 100">
    <title>WhatsApp</title>
    <path d="M85.4 14.5C76 5.2 63.5 0 50.2 0 22.8 0 .4 22.2.4 49.5c0 8.7 2.3 17.3 6.6 24.8L0 100l26.4-6.9c7.3 3.9 15.5 6 23.8 6 27.4 0 49.8-22.2 49.8-49.6 0-13.2-5.2-25.6-14.6-35zM50.2 90.8c-7.4 0-14.7-2-21.1-5.7l-1.5-.9-15.6 4L16.1 73l-1-1.6C11 64.9 8.8 57.3 8.8 49.6c0-22.7 18.6-41.2 41.4-41.2 11.1 0 21.4 4.3 29.3 12.1 7.8 7.8 12.1 18.1 12.1 29.1 0 22.7-18.6 41.2-41.4 41.2zm22.7-30.9c-1.2-.6-7.4-3.6-8.5-4-1.1-.4-2-.6-2.8.6-.8 1.2-3.2 4-3.9 4.9-.7.8-1.5.9-2.7.3-1.2-.6-5.3-1.9-10-6.1-3.7-3.3-6.2-7.3-6.9-8.6-.7-1.2-.1-1.9.5-2.5.6-.6 1.2-1.4 1.9-2.2.6-.7.8-1.2 1.2-2.1.4-.8.2-1.5-.1-2.2-.3-.6-2.8-6.7-3.8-9.2-1-2.4-2-2.1-2.8-2.1h-2.4c-.8 0-2.2.3-3.3 1.5-1.1 1.2-4.4 4.2-4.4 10.3 0 6.1 4.5 12 5.1 12.8.6.8 8.8 13.3 21.3 18.7 3 1.3 5.3 2 7.1 2.6 3 .9 5.7.8 7.8.5 2.4-.4 7.4-3 8.4-5.9 1-2.9 1-5.4.7-5.9-.3-.4-1.1-.8-2.4-1.4z" />
  </symbol>
</svg>