<?xml version="1.0" encoding="utf-8"?>
<!-- Generator: Adobe Illustrator 26.4.1, SVG Export Plug-In . SVG Version: 6.00 Build 0)  -->
<svg version="1.1" id="Camada_1" xmlns="http://www.w3.org/2000/svg" xmlns:xlink="http://www.w3.org/1999/xlink" x="0px" y="0px"
	 viewBox="0 0 32 32" style="enable-background:new 0 0 32 32;" xml:space="preserve">
<style type="text/css">
	.st0{fill:#121218;}
	.st1{fill:url(#SVGID_1_);}
	.st2{fill:url(#SVGID_00000088824864990809034340000005761295935676300218_);}
	.st3{fill:url(#SVGID_00000131364382472902988300000007310098271603063713_);}
	.st4{fill:url(#SVGID_00000098932436178450288560000009375316236615520405_);}
	.st5{fill:url(#SVGID_00000023279326719851631340000007089302268835307146_);}
	.st6{fill:url(#SVGID_00000119816112874801423590000001757178204790209945_);}
	.st7{fill:url(#SVGID_00000103247549187381789390000011857174867406311093_);}
	.st8{fill:#FFFFFF;}
</style>
<path class="st0" d="M29,32H3c-1.6,0-3-1.4-3-3V3c0-1.6,1.4-3,3-3h26c1.6,0,3,1.4,3,3v26C32,30.6,30.6,32,29,32z"/>
<g>
	
		<linearGradient id="SVGID_1_" gradientUnits="userSpaceOnUse" x1="1.2179" y1="21.6909" x2="1.4348" y2="4.4046" gradientTransform="matrix(1 0 0 1 0 2)">
		<stop  offset="0" style="stop-color:#833E90"/>
		<stop  offset="0.21" style="stop-color:#803F91"/>
		<stop  offset="0.37" style="stop-color:#794293"/>
		<stop  offset="0.52" style="stop-color:#6D4897"/>
		<stop  offset="0.65" style="stop-color:#6159A3"/>
		<stop  offset="0.78" style="stop-color:#4C74B9"/>
		<stop  offset="0.9" style="stop-color:#2498CC"/>
		<stop  offset="1" style="stop-color:#1EB8D1"/>
	</linearGradient>
	<path class="st1" d="M2.6,11.3c-1,1.2-1.9,2.5-2.6,3.9c0.7,1.4,1.6,2.7,2.6,3.9c-0.3-1.2-0.5-2.5-0.5-3.8S2.3,12.6,2.6,11.3
		L2.6,11.3z"/>
	
		<linearGradient id="SVGID_00000021093094888515745300000001925649877068723866_" gradientUnits="userSpaceOnUse" x1="30.5624" y1="22.0642" x2="30.7844" y2="4.778" gradientTransform="matrix(1 0 0 1 0 2)">
		<stop  offset="0" style="stop-color:#833E90"/>
		<stop  offset="0.22" style="stop-color:#803F91"/>
		<stop  offset="0.38" style="stop-color:#784192"/>
		<stop  offset="0.52" style="stop-color:#6E4897"/>
		<stop  offset="0.65" style="stop-color:#6158A2"/>
		<stop  offset="0.78" style="stop-color:#4D73B8"/>
		<stop  offset="0.89" style="stop-color:#2796CB"/>
		<stop  offset="1" style="stop-color:#1EB8D1"/>
	</linearGradient>
	<path style="fill:url(#SVGID_00000021093094888515745300000001925649877068723866_);" d="M29.4,19.1c1-1.2,1.9-2.4,2.6-3.8
		c-0.7-1.4-1.6-2.7-2.6-3.9c0.4,1.2,0.6,2.5,0.6,3.9S29.8,17.8,29.4,19.1z"/>
	
		<linearGradient id="SVGID_00000109028869388553974290000010380819418566034087_" gradientUnits="userSpaceOnUse" x1="25.9868" y1="22.0035" x2="26.2088" y2="4.7172" gradientTransform="matrix(1 0 0 1 0 2)">
		<stop  offset="0" style="stop-color:#833E90"/>
		<stop  offset="0.22" style="stop-color:#813F91"/>
		<stop  offset="0.38" style="stop-color:#784192"/>
		<stop  offset="0.52" style="stop-color:#6E4796"/>
		<stop  offset="0.65" style="stop-color:#6257A1"/>
		<stop  offset="0.77" style="stop-color:#4F72B7"/>
		<stop  offset="0.89" style="stop-color:#2A94CB"/>
		<stop  offset="1" style="stop-color:#1EB8D1"/>
	</linearGradient>
	<path style="fill:url(#SVGID_00000109028869388553974290000010380819418566034087_);" d="M27,9.1c-1-0.8-2.1-1.5-3.3-2
		c2.2,2.1,3.6,5,3.6,8.2s-1.3,6-3.4,8.1c1.2-0.6,2.2-1.2,3.2-2c1-1.8,1.5-3.9,1.5-6S28,10.9,27,9.1L27,9.1z"/>
	
		<linearGradient id="SVGID_00000079471998236906549740000006594096963478196889_" gradientUnits="userSpaceOnUse" x1="5.7436" y1="21.7515" x2="5.9605" y2="4.4652" gradientTransform="matrix(1 0 0 1 0 2)">
		<stop  offset="0" style="stop-color:#833E90"/>
		<stop  offset="0.17" style="stop-color:#803F91"/>
		<stop  offset="0.33" style="stop-color:#774293"/>
		<stop  offset="0.49" style="stop-color:#6A4B99"/>
		<stop  offset="0.64" style="stop-color:#5B60A8"/>
		<stop  offset="0.79" style="stop-color:#3E81C3"/>
		<stop  offset="0.94" style="stop-color:#12A9D0"/>
		<stop  offset="1" style="stop-color:#1EB8D1"/>
	</linearGradient>
	<path style="fill:url(#SVGID_00000079471998236906549740000006594096963478196889_);" d="M4.7,15.3C4.7,12,6.1,9.1,8.3,7
		C7.1,7.6,6,8.3,5,9.1c-1,1.8-1.6,3.9-1.6,6.2s0.6,4.2,1.6,6c1,0.8,2.1,1.5,3.2,2C6.1,21.3,4.8,18.4,4.7,15.3L4.7,15.3z"/>
	
		<linearGradient id="SVGID_00000062902100584084291700000014218395845781632899_" gradientUnits="userSpaceOnUse" x1="15.8911" y1="21.8774" x2="16.108" y2="4.5912" gradientTransform="matrix(1 0 0 1 0 2)">
		<stop  offset="0" style="stop-color:#833E90"/>
		<stop  offset="0.24" style="stop-color:#65519D"/>
		<stop  offset="0.6" style="stop-color:#3589C8"/>
		<stop  offset="0.86" style="stop-color:#10AED1"/>
		<stop  offset="1" style="stop-color:#1EB8D1"/>
	</linearGradient>
	<path style="fill:url(#SVGID_00000062902100584084291700000014218395845781632899_);" d="M17,25.1c5-0.5,8.9-4.7,8.9-9.9
		c0-5.5-4.4-9.9-9.9-9.9s-9.9,4.4-9.9,9.9c0,5.1,3.9,9.4,8.9,9.9c0.3,0,0.6,0,1,0C16.3,25.2,16.7,25.1,17,25.1L17,25.1z M7.4,15.3
		c0-4.7,3.8-8.6,8.6-8.6s8.6,3.8,8.6,8.6s-3.8,8.6-8.6,8.6S7.4,20,7.4,15.3z"/>
</g>
<g>
	
		<linearGradient id="SVGID_00000178924412552606424280000007651396368080496517_" gradientUnits="userSpaceOnUse" x1="15.8544" y1="20.2633" x2="16.1319" y2="6.8055" gradientTransform="matrix(1 0 0 1 0 2)">
		<stop  offset="5.000000e-02" style="stop-color:#5FACCC"/>
		<stop  offset="0.14" style="stop-color:#66B8DC"/>
		<stop  offset="0.29" style="stop-color:#6EC9EF"/>
		<stop  offset="0.44" style="stop-color:#7BCDF4"/>
		<stop  offset="0.6" style="stop-color:#80CFF5"/>
		<stop  offset="1" style="stop-color:#9BD7F6"/>
	</linearGradient>
	<path style="fill:url(#SVGID_00000178924412552606424280000007651396368080496517_);" d="M16,8c-4,0-7.2,3.2-7.2,7.2
		s3.2,7.2,7.2,7.2s7.2-3.2,7.2-7.2S20,8,16,8z M16,21.1c-3.3,0-5.9-2.6-5.9-5.9s2.6-5.9,5.9-5.9s5.9,2.6,5.9,5.9S19.3,21.1,16,21.1z
		"/>
	
		<linearGradient id="SVGID_00000048468218736418023370000013600276201711296398_" gradientUnits="userSpaceOnUse" x1="15.8565" y1="20.2633" x2="16.1339" y2="6.8055" gradientTransform="matrix(1 0 0 1 0 2)">
		<stop  offset="5.000000e-02" style="stop-color:#5FACCC"/>
		<stop  offset="0.14" style="stop-color:#66B8DC"/>
		<stop  offset="0.29" style="stop-color:#6EC9EF"/>
		<stop  offset="0.44" style="stop-color:#7BCDF4"/>
		<stop  offset="0.6" style="stop-color:#80CFF5"/>
		<stop  offset="1" style="stop-color:#9BD7F6"/>
	</linearGradient>
	<path style="fill:url(#SVGID_00000048468218736418023370000013600276201711296398_);" d="M19.1,14.4c0.1,0.3,0.1,0.6,0.1,0.9
		c0,1.8-1.4,3.2-3.2,3.2s-3.2-1.4-3.2-3.2s1.4-3.2,3.2-3.2c0.4,0,0.9,0.1,1.2,0.3c0.1-0.5,0.3-0.9,0.7-1.2c-0.6-0.3-1.2-0.4-1.9-0.4
		c-2.5,0-4.5,2-4.5,4.5s2,4.5,4.5,4.5s4.5-2,4.5-4.5c0-0.5-0.1-0.9-0.2-1.4C20,14.2,19.6,14.4,19.1,14.4L19.1,14.4z"/>
	<circle class="st8" cx="19" cy="12.6" r="0.9"/>
</g>
</svg>
