<?xml version="1.0" encoding="utf-8"?>
<!-- Generator: Adobe Illustrator 21.0.0, SVG Export Plug-In . SVG Version: 6.00 Build 0)  -->
<svg version="1.1" id="optisoul_1" xmlns="http://www.w3.org/2000/svg" xmlns:xlink="http://www.w3.org/1999/xlink" x="0px" y="0px"
	 viewBox="0 0 1174.7 308.1" style="enable-background:new 0 0 1174.7 308.1;" xml:space="preserve">
<style type="text/css">
	.st0{fill:#3D3F3C;}
	.st1{fill:#009ADE;}
	.st2{fill:#0055B8;}
</style>
<g>
	<path class="st0" d="M2.6,200.9c0-34.5,24.2-63.7,64.2-63.7c40.3,0,64.5,29.2,64.5,63.7s-24.2,64-64.5,64
		C26.8,264.9,2.6,235.4,2.6,200.9z M98,200.9c0-18.9-11.1-35.2-31.2-35.2c-19.9,0-31,16.4-31,35.2c0,19.1,11.1,35.5,31,35.5
		C86.9,236.4,98,220.1,98,200.9z"/>
	<path class="st0" d="M187.2,246.2v61.9h-32V140.2h32v15.4c9-11.6,22.8-18.4,37.5-18.4c31.2,0,53.9,23.2,53.9,63.7s-22.7,64-53.9,64
		C210.3,264.9,197.2,258.8,187.2,246.2z M245.6,200.9c0-20.9-12.6-35.2-31-35.2c-10.3,0-21.9,5.8-27.4,13.8v42.8
		c5.3,7.8,17.1,14.1,27.4,14.1C233,236.4,245.6,222.1,245.6,200.9z"/>
	<path class="st0" d="M308.5,231.4v-63.2h-20.1v-27.9h20.1V107h32v33.2h24.7v27.9h-24.7v54.6c0,7.8,4,13.6,11.1,13.6
		c4.8,0,9.3-1.8,11.1-3.8l6.8,24.4c-4.8,4.3-13.3,7.8-26.7,7.8C320.3,264.9,308.5,253.3,308.5,231.4z"/>
	<path class="st0" d="M384,108c0-10.5,8.5-19,19-19s19,8.5,19,19s-8.5,19-19,19S384,118.5,384,108z M387.1,261.8V140.2h32v121.6
		H387.1z"/>
	<path id="_Caminho_composto_" class="st1" d="M674.9,168.1c0-52.2,36.6-96.4,97.1-96.4c61,0,97.5,44.2,97.5,96.4
		s-36.6,96.8-97.5,96.8C711.5,264.9,674.9,220.3,674.9,168.1z M819.3,168.1c0-28.6-16.8-53.3-47.2-53.3c-30.1,0-46.9,24.8-46.9,53.3
		c0,29,16.8,53.7,46.9,53.7C802.5,221.8,819.3,197.1,819.3,168.1L819.3,168.1z"/>
	<path id="_Caminho_" class="st1" d="M1029.9,237.1L1029.9,237.1c-16.8,17.9-40.3,28-64.8,27.8c-40.4,0-59.4-22.1-59.4-57.9V76.3
		h48.4v111.6c0,25.5,13.3,33.9,33.9,33.9c18.7,0,33.5-10.3,41.9-21v-100c0-13.6,11-24.6,24.6-24.6c0,0,0,0,0,0h23.8v184h-25.1
		c-12.8,0.1-23.2-10.2-23.3-23C1029.9,237.2,1029.9,237.1,1029.9,237.1z"/>
	<path id="_Caminho_2" class="st1" d="M1126.3,260.3V54.6c0-26.7,21.7-48.4,48.4-48.4l0,0v254.1H1126.3z"/>
	<path id="_Caminho_3" class="st1" d="M538.6,98.9L538.6,98.9c-71.8-16-69.4-58.7-55.4-79.2c-21.2,14.3-33.1,36-33.1,60
		c0,95.6,146.3,64.8,146.3,109c0,14.9-14.1,28.2-44.2,28.2c-22,0.1-43.5-6.4-61.7-18.7c-11.6-7.6-27.1-4.6-35,6.8l0,0
		c-8.2,11.7-5.3,27.8,6.4,36c0.3,0.2,0.5,0.4,0.8,0.5c22.2,14.4,50.8,23.4,87.2,23.4c68.2,0,101.7-35,101.7-81.5
		C651.7,117.6,581.6,110.4,538.6,98.9z"/>
	<path id="_Caminho_4" class="st2" d="M536.4,2.7c-15.2,1.1-29.7,7.9-38.8,20.1c-20.8,27.6,8.4,48.9,8.4,48.9l0,0
		c2-13.1,14.6-21.3,35.5-21.3c19.3,0,38.4,4.9,55.3,14.2c10.7,6,24.4,4.3,32.4-5c9.2-10.6,8-26.6-2.6-35.8c-1.2-1.1-2.5-2-3.9-2.8
		c-21.4-12.3-47-18.7-76.2-18.7C543.1,2.4,539.7,2.5,536.4,2.7z"/>
</g>
</svg>
