<svg viewBox="0 0 600 250" style="width:60px;height:25px">
	<path fill="var(--primary)" d="M571.5 79c-.2-3.2-1.6-3.1-1.6-3.1l-3.4-.7c-3.6-.4-10.6-3.2-10.6-3.2-6.3-2.5-12.6-8.3-12.6-8.3-8.4-8.3-22.8-17.9-22.8-17.9-28.6-21.8-67.1-20.9-67.1-20.9-38.2-1.7-68.6 14.1-68.6 14.1-29.5 14.3-51.4 39-51.4 39l-2.3 1.8c-2.7 2.1-8.1 2.5-8.1 2.5-5 .8-24.3.5-24.3.5-1.6 0-19.3.2-24-.5 0 0-5.4-.3-8-2.5l-2.3-1.8s-21.7-24.7-51-39c0 0-30.1-15.8-67.9-14.1 0 0-38.1-.9-66.5 20.9 0 0-14.3 9.6-22.6 17.9 0 0-6.2 5.9-12.5 8.3 0 0-7 2.8-10.5 3.2l-3.4.7s-1.4-.1-1.6 3.1l-.7 25.7v.9s.1 1.1 1.9 1.8c0 0 3.7 1.3 5.5 2.2 0 0 5.2 1.6 10.2 11.1 0 0 10.1 28.5 12.7 34.7 0 0 8 22.5 24.3 37.5 0 0 31.4 34.7 80.8 32.2 0 0 29.6 1.8 59.8-17 0 0 27.3-17.2 39.5-50.2 0 0 6.5-16.6 9.2-29.1 0 0 2.3-11.7 6.7-15.6 0 0 4.9-4.8 9.8-5.4 0 0 4.6-.7 10.5-.8 5.9.2 10.5.8 10.5.8 5 .6 10 5.4 10 5.4 4.5 3.8 6.8 15.6 6.8 15.6 2.8 12.5 9.3 29.1 9.3 29.1 12.3 33 39.9 50.2 39.9 50.2 30.4 18.9 60.3 17 60.3 17 49.9 2.6 81.6-32.2 81.6-32.2 16.5-15 24.6-37.5 24.6-37.5 2.7-6.2 12.8-34.7 12.8-34.7 5-9.6 10.3-11.1 10.3-11.1 1.8-.9 5.6-2.2 5.6-2.2 1.8-.7 1.9-1.8 1.9-1.8v-.9l-.7-25.7zm-313.6 47.4c-1.8 52.2-44.8 90.8-99.7 90.8-55-1.5-100.6-46.9-96.8-111.5 2.9-47 45.2-71.4 97.1-69.6 59.6 4 101 38.9 99.4 90.3zm182.6 90.8c-55.4 0-98.8-38.7-100.6-90.8C338.2 74.9 380 40.1 440.2 36c52.4-1.8 95.1 22.5 98.1 69.6 3.8 64.6-42.2 110.1-97.8 111.6z"/>
</svg>