<?xml version="1.0" encoding="utf-8"?>
<!-- Generator: Adobe Illustrator 24.0.1, SVG Export Plug-In . SVG Version: 6.00 Build 0)  -->
<svg version="1.1" id="Capa_1" xmlns="http://www.w3.org/2000/svg" xmlns:xlink="http://www.w3.org/1999/xlink" x="0px" y="0px"
	 viewBox="0 0 600 250" style="enable-background:new 0 0 600 250;" xml:space="preserve">
<style type="text/css">
	.st0{fill:#272525;}
</style>
<g id="_x2018_ëîé_x5F_2">
</g>
<g id="_x2018_ëîé_x5F_1">
	<path class="st0" d="M571.5,79c-0.2-3.2-1.6-3.1-1.6-3.1l-3.4-0.7c-3.6-0.4-10.6-3.2-10.6-3.2c-6.3-2.5-12.6-8.3-12.6-8.3
		c-8.4-8.3-22.8-17.9-22.8-17.9c-28.6-21.8-67.1-20.9-67.1-20.9C415.2,23.2,384.8,39,384.8,39c-29.5,14.3-51.4,39-51.4,39l-2.3,1.8
		c-2.7,2.1-8.1,2.5-8.1,2.5c-5,0.8-24.3,0.5-24.3,0.5v0c-1.6,0-19.3,0.2-24-0.5c0,0-5.4-0.3-8-2.5l-2.3-1.8c0,0-21.7-24.7-51-39
		c0,0-30.1-15.8-67.9-14.1c0,0-38.1-0.9-66.5,20.9c0,0-14.3,9.6-22.6,17.9c0,0-6.2,5.9-12.5,8.3c0,0-7,2.8-10.5,3.2l-3.4,0.7
		c0,0-1.4-0.1-1.6,3.1l-0.7,25.7v0.9c0,0,0.1,1.1,1.9,1.8c0,0,3.7,1.3,5.5,2.2c0,0,5.2,1.6,10.2,11.1c0,0,10.1,28.5,12.7,34.7
		c0,0,8,22.5,24.3,37.5c0,0,31.4,34.7,80.8,32.2c0,0,29.6,1.8,59.8-17c0,0,27.3-17.2,39.5-50.2c0,0,6.5-16.6,9.2-29.1
		c0,0,2.3-11.7,6.7-15.6c0,0,4.9-4.8,9.8-5.4c0,0,4.6-0.7,10.5-0.8v0c5.9,0.2,10.5,0.8,10.5,0.8c5,0.6,10,5.4,10,5.4
		c4.5,3.8,6.8,15.6,6.8,15.6c2.8,12.5,9.3,29.1,9.3,29.1c12.3,33,39.9,50.2,39.9,50.2c30.4,18.9,60.3,17,60.3,17
		c49.9,2.6,81.6-32.2,81.6-32.2c16.5-15,24.6-37.5,24.6-37.5c2.7-6.2,12.8-34.7,12.8-34.7c5-9.6,10.3-11.1,10.3-11.1
		c1.8-0.9,5.6-2.2,5.6-2.2c1.8-0.7,1.9-1.8,1.9-1.8v-0.9L571.5,79z M257.9,126.4c-1.8,52.2-44.8,90.8-99.7,90.8
		c-55-1.5-100.6-46.9-96.8-111.5c2.9-47,45.2-71.4,97.1-69.6C218.1,40.1,259.5,75,257.9,126.4z M440.5,217.2
		c-55.4,0-98.8-38.7-100.6-90.8C338.2,74.9,380,40.1,440.2,36c52.4-1.8,95.1,22.5,98.1,69.6C542.1,170.2,496.1,215.7,440.5,217.2z"
		/>
</g>
</svg>
