<svg viewBox="0 0 600 250" style="width:60px;height:25px;">
	<path fill="var(--primary)" d="M572.2 47.1c.1-5.8-3.9-7.1-3.9-7.1l-9.3-1.6c-69.4-5.8-147.9 0-147.9 0-47.2 2.5-55.3 6.7-55.3 6.7-4.5 1.2-12.2 8.2-12.2 8.2-7.4 6.5-13.5 8.8-13.5 8.8-8.5 3.7-22.5 4-28.7 3.9v-.1h-3.2v.1c-6.3.1-20.2-.3-28.7-3.9 0 0-6.1-2.3-13.5-8.8 0 0-7.7-7-12.2-8.2 0 0-8.1-4.1-55.2-6.7 0 0-78.3-5.8-147.6 0L31.7 40s-4 1.4-3.9 7.1l.8 18.4s-.2 2.7 2.5 4.6c0 0 6.1 3.8 8.8 8.6 0 0 3.5 4.8 5 14.2 0 0 4.5 28 8.3 43.5 0 0 6.6 30.1 14.7 43 0 0 7.1 16.2 25.3 22.8 0 0 25.6 12.1 71.4 11.9 0 0 37.6 2.4 61.1-16.6 0 0 13.2-9.6 23.5-31.5 0 0 7.8-16.4 13.5-34.7l6.3-19.5s3.3-11.3 8.2-14.3c0 0 5.1-5.3 22.6-5.5 17.5.2 22.6 5.5 22.6 5.5 5 3 8.2 14.3 8.2 14.3l6.3 19.5c5.8 18.3 13.5 34.7 13.5 34.7 10.3 21.8 23.5 31.5 23.5 31.5 23.5 18.9 61.2 16.6 61.2 16.6 45.8.2 71.5-11.9 71.5-11.9 18.3-6.5 25.4-22.8 25.4-22.8 8.1-12.8 14.7-43 14.7-43 3.9-15.5 8.4-43.5 8.4-43.5 1.4-9.4 5-14.2 5-14.2 2.7-4.8 8.8-8.6 8.8-8.6 2.6-1.9 2.4-4.6 2.4-4.6l.9-18.4zm-355.8 146c-11.7 8-28.4 11-44.6 12.1-14.5 1-29 .4-43.4-1.7-22.8-3.4-39.3-10.1-51.8-30.9-13.2-23.5-17-55.6-18.9-83.9-5.3-51 46.2-44 101.7-42.6 55.5 4.9 96.6 7.3 97.7 55.3-.9 32.5-18.6 77.5-40.7 91.7zM542.3 88.6c-1.9 28.3-5.8 60.5-18.9 83.9-12.6 20.8-29 27.5-51.9 30.9-14.4 2.1-29 2.7-43.5 1.7-16.2-1.1-33-4.1-44.7-12.1-22.2-14.2-39.9-59.2-40.8-91.8 1.1-48 42.3-50.4 97.9-55.3 55.6-1.3 107.2-8.3 101.9 42.7z"/>
</svg>