<svg viewBox="0 0 600 250" style="width:60px;height:25px">
	<path fill="var(--primary)" d="m593.4 81.8-1.9-.6c-8.8-.6-14.2-11.1-14.2-11.1l-3.9-5.6c-5.8-8.2-24.1-10.3-24.1-10.3-28.8-4.8-80-5.2-80-5.2C430 47.2 353 58.7 353 58.7c-16.7 3.6-51.8 4.5-53.8 4.5-2.1 0-36.9-.9-53.5-4.5 0 0-76.6-11.5-115.7-9.8 0 0-50.9.4-79.5 5.2 0 0-18.2 2.1-24 10.3l-4 5.6S17.2 80.5 8.4 81.1l-1.9.6S5.3 82.9 5.4 84l.7 29.1s.2 2.4 1.7 2.2H13s5.2-1.1 7.3 8.3c0 0 7.4 34.9 15.3 49.4 0 0 6.1 13.7 17.2 18.1 0 0 12.3 7.1 69.8 9.8 0 0 50.5 1.3 74-1.9 0 0 16.3-2.1 24.4-9.5 0 0 10.4-10 16.5-21.1 0 0 22.4-34.6 31.6-71.5l1.2-4.6s.4-4.1 6.2-4.6l22.5-1.2 22.6 1.2c5.9.5 6.3 4.6 6.3 4.6l1.3 4.6c9.3 36.9 31.8 71.5 31.8 71.5 6.2 11.1 16.6 21.1 16.6 21.1 8.2 7.5 24.6 9.5 24.6 9.5 23.6 3.2 74.4 1.9 74.4 1.9 57.8-2.7 70.2-9.8 70.2-9.8 11.2-4.3 17.3-18.1 17.3-18.1 8-14.4 15.4-49.4 15.4-49.4 2.1-9.5 7.4-8.3 7.4-8.3h5.3c1.5.1 1.7-2.2 1.7-2.2l.7-29.1c0-1-1.2-2.2-1.2-2.2zm-343.3 51.1c-9.2 21.6-23.6 51.8-38.2 57.6-14 6.6-38.9 7.6-84.6 7.2-33.2-2.4-57.5-3-73.2-9.9-4.8-2.1-9-5.5-12-9.8-9-12.8-14.2-33.5-17.8-57.6-.4-14.2-6.1-42.1 11.1-53.9 14.1-11 65.4-11.4 102.8-11.9 51.2 2 118 10.5 123.3 20.7 5.4 12-4.2 40.2-11.4 57.6zm26.2-48.5-2.2.2s-.2-.1-.5-.2l11.5-.6-8.8.6zm48.1.2-2.2-.2-14-.8c6.5 0 13 .1 17.6.3-.6.5-1.4.7-1.4.7zm251.1 35.8c-3.7 24.1-8.9 44.8-17.9 57.6-3 4.3-7.2 7.7-12.1 9.8-15.8 6.9-40.2 7.5-73.6 9.9-45.9.4-71-.7-85.1-7.2-14.7-5.8-29.2-36-38.4-57.6-7.2-17.4-16.8-45.6-11.5-57.5 5.3-10.2 72.5-18.7 124-20.7 37.6.6 89.2.9 103.4 11.9 17.4 11.8 11.7 39.6 11.2 53.8z"/>
</svg>