<?xml version="1.0" encoding="utf-8"?>
<!-- Generator: Adobe Illustrator 24.0.1, SVG Export Plug-In . SVG Version: 6.00 Build 0)  -->
<svg version="1.1" id="Capa_1" xmlns="http://www.w3.org/2000/svg" xmlns:xlink="http://www.w3.org/1999/xlink" x="0px" y="0px"
	 viewBox="0 0 600 250" style="enable-background:new 0 0 600 250;" xml:space="preserve">
<style type="text/css">
	.st0{fill:#272525;}
</style>
<g id="_x2018_ëîé_x5F_2">
</g>
<g id="_x2018_ëîé_x5F_1">
	<path class="st0" d="M593.4,81.8l-1.9-0.6c-8.8-0.6-14.2-11.1-14.2-11.1l-3.9-5.6c-5.8-8.2-24.1-10.3-24.1-10.3
		c-28.8-4.8-80-5.2-80-5.2C430,47.2,353,58.7,353,58.7c-16.7,3.6-51.8,4.5-53.8,4.5c-2.1,0-36.9-0.9-53.5-4.5
		c0,0-76.6-11.5-115.7-9.8c0,0-50.9,0.4-79.5,5.2c0,0-18.2,2.1-24,10.3L22.5,70c0,0-5.3,10.5-14.1,11.1l-1.9,0.6
		c0,0-1.2,1.2-1.1,2.3l0.7,29.1c0,0,0.2,2.4,1.7,2.2l5.2,0c0,0,5.2-1.1,7.3,8.3c0,0,7.4,34.9,15.3,49.4c0,0,6.1,13.7,17.2,18.1
		c0,0,12.3,7.1,69.8,9.8c0,0,50.5,1.3,74-1.9c0,0,16.3-2.1,24.4-9.5c0,0,10.4-10,16.5-21.1c0,0,22.4-34.6,31.6-71.5l1.2-4.6
		c0,0,0.4-4.1,6.2-4.6l22.5-1.2l22.6,1.2c5.9,0.5,6.3,4.6,6.3,4.6l1.3,4.6c9.3,36.9,31.8,71.5,31.8,71.5
		c6.2,11.1,16.6,21.1,16.6,21.1c8.2,7.5,24.6,9.5,24.6,9.5c23.6,3.2,74.4,1.9,74.4,1.9c57.8-2.7,70.2-9.8,70.2-9.8
		c11.2-4.3,17.3-18.1,17.3-18.1c8-14.4,15.4-49.4,15.4-49.4c2.1-9.5,7.4-8.3,7.4-8.3l5.3,0c1.5,0.1,1.7-2.2,1.7-2.2l0.7-29.1
		C594.6,83,593.4,81.8,593.4,81.8z M250.1,132.9c-9.2,21.6-23.6,51.8-38.2,57.6c-14,6.6-38.9,7.6-84.6,7.2
		c-33.2-2.4-57.5-3-73.2-9.9c-4.8-2.1-9-5.5-12-9.8c-9-12.8-14.2-33.5-17.8-57.6c-0.4-14.2-6.1-42.1,11.1-53.9
		c14.1-11,65.4-11.4,102.8-11.9c51.2,2,118,10.5,123.3,20.7C266.9,87.3,257.3,115.5,250.1,132.9z M276.3,84.4l-2.2,0.2
		c0,0-0.2-0.1-0.5-0.2l11.5-0.6l0,0L276.3,84.4z M324.4,84.6l-2.2-0.2l-14-0.8c6.5,0,13,0.1,17.6,0.3
		C325.2,84.4,324.4,84.6,324.4,84.6z M575.5,120.4c-3.7,24.1-8.9,44.8-17.9,57.6c-3,4.3-7.2,7.7-12.1,9.8
		c-15.8,6.9-40.2,7.5-73.6,9.9c-45.9,0.4-71-0.7-85.1-7.2c-14.7-5.8-29.2-36-38.4-57.6c-7.2-17.4-16.8-45.6-11.5-57.5
		c5.3-10.2,72.5-18.7,124-20.7c37.6,0.6,89.2,0.9,103.4,11.9C581.7,78.4,576,106.2,575.5,120.4z"/>
</g>
</svg>
