<svg xmlns="http://www.w3.org/2000/svg" width="256" height="256"><path fill-opacity=".016" d="M0 128.004v128.004l128.25-.254 128.25-.254.254-127.75L257.008 0H0v128.004m.485.496c0 70.4.119 99.053.265 63.672.146-35.38.146-92.98 0-128C.604 29.153.485 58.1.485 128.5" fill="#1976D2" fill-rule="evenodd"/><path fill-opacity=".123" d="M19.5 2.84C12.935 5.968 6.496 12.265 2.821 19.151L.5 23.5.232 126.164l-.268 102.663 2.18 5.829c2.973 7.946 11.233 16.219 19.151 19.181l5.78 2.163H128c99.357 0 101.01-.032 106.414-2.054 7.42-2.776 14.829-9.621 18.123-16.743 1.45-3.137 3.048-6.484 3.55-7.439 1.125-2.14 1.247-205.088.123-204.394-.435.269-1.562-1.683-2.505-4.337-2.205-6.21-9.061-13.806-15.857-17.571L232.5.5 129 .241 25.5-.018l-6 2.858m76.971 19.394c-9.596 8.609-10.112 9.287-13.721 18.034C78.615 50.29 78.087 52.321 81 47c1.201-2.195 1.932-2.847 1.958-1.75.023.962.717 1.75 1.542 1.75.825 0 1.5.525 1.5 1.167 0 .641.304.862.676.491.372-.372 1.794.34 3.161 1.583 1.367 1.242 2.122 1.584 1.678.759-.597-1.107-.504-1.221.355-.433.64.587 4.754 11.612 9.143 24.5l7.979 23.433-.469-7.5c-.507-8.134-.938-60.667-.557-68 .198-3.826.353-4.126 1.034-2 .492 1.535.839 1.851.9.82.089-1.494.768-1.409 6.15.778 3.327 1.352 6.59 2.155 7.25 1.784.876-.493.906-.356.113.508-.801.872-1.826.903-3.889.119-1.541-.586-2.987-.879-3.214-.653-.227.227 1.027.915 2.787 1.528 2.385.831 3.554.821 4.593-.042 1.056-.876 1.676-.876 2.552 0 .877.877.685 1.167-.792 1.193-1.686.031-1.613.222.537 1.413 1.369.757 2.842 1.158 3.274.891.432-.267 3.025 1.389 5.762 3.681 2.738 2.291 4.977 3.928 4.977 3.637 0-1.578-20.964-17.331-26.76-20.109l-6.799-3.258-9.97 8.944m10.608-5.651c.048 1.165.285 1.402.604.605.289-.722.253-1.585-.079-1.917-.332-.332-.568.258-.525 1.312M120 21.378c0 .207.787.995 1.75 1.75 1.586 1.243 1.621 1.208.378-.378-1.307-1.666-2.128-2.195-2.128-1.372M.481 128c0 56.375.121 79.437.269 51.25.147-28.188.147-74.313 0-102.5C.602 48.562.481 71.625.481 128M142.5 39c.995 1.1 2.035 2 2.31 2 .275 0-.315-.9-1.31-2-.995-1.1-2.035-2-2.31-2-.275 0 .315.9 1.31 2m5 4c.995 1.1 2.035 2 2.31 2 .275 0-.315-.9-1.31-2-.995-1.1-2.035-2-2.31-2-.275 0 .315.9 1.31 2m5.706 4.522c1.637 1.957 1.25 2.54-12.007 18.089-7.534 8.836-16.105 18.951-19.046 22.478l-5.348 6.411 4.991-5.321c3.212-3.425 5.162-4.85 5.472-4 .396 1.084.728 1.088 1.857.021.756-.715 1.375-1.747 1.375-2.293s6.075-4.193 13.5-8.103c9.237-4.865 12.869-6.385 11.5-4.815l-2 2.294 2.25-1.382c1.238-.76 2.289-2.286 2.336-3.392.092-2.157 1.586 1.712 2.505 6.491.265 1.375 1.11 4.975 1.878 8 1.386 5.461 1.395 5.406 1.214-7.657-.103-7.426.202-12.917.702-12.607 1.647 1.021-7.804-11.782-10.347-14.017-2.084-1.833-2.229-1.867-.832-.197M165 63.378c0 .207.787.995 1.75 1.75 1.586 1.243 1.621 1.208.378-.378-1.307-1.666-2.128-2.195-2.128-1.372M60.636 83.413c-8.473 10.549-7.646 10.128-15.852 8.069-2.355-.591-2.739.095-9.9 17.702L27.433 127.5l-10.209 6.924c-5.615 3.808-10.014 7.12-9.774 7.359.239.239 1.73-.487 3.313-1.614 1.582-1.127 3.507-2.189 4.276-2.359.769-.171 4.219-1.989 7.667-4.041l6.267-3.731 3.514 3.084c3.017 2.65 3.513 3.706 3.513 7.482 0 4.022-.212 4.396-2.5 4.396H31v85.113l28.75-.307 28.75-.306 4.723-2.777c6.092-3.58 9.631-9.567 11.041-18.672 1.575-10.179-.059-16.494-5.97-23.069-4.489-4.993-4.539-5.122-2.52-6.536 5.35-3.747 7.855-22.966 3.936-30.196L97.949 145h2.525c2.958 0 3.219-1.083.776-3.224-4.585-4.021-8.773-5.277-19.25-5.776l-10.5-.5-1.17-27c-.644-14.85-1.319-28.772-1.5-30.939l-.33-3.939-7.864 9.791M144 76c-.825.533-1.05.969-.5.969s1.675-.436 2.5-.969c.825-.533 1.05-.969.5-.969s-1.675.436-2.5.969m-4.559 2.555c-1.864 1.494-1.852 1.512.309.465 1.238-.6 2.25-1.3 2.25-1.555 0-.765-.519-.544-2.559 1.09m-11.888 4.36a1.116 1.116 0 0 0 .362 1.532c.521.322 1.21.159 1.532-.362a1.116 1.116 0 0 0-.362-1.532 1.116 1.116 0 0 0-1.532.362m68.946 5.345-10.001 2.027-4.915 19.606c-2.703 10.784-5.311 21.07-5.796 22.857-.805 2.97-1.222 3.25-4.834 3.25-3.503 0-3.953.273-3.953 2.393 0 2.708-2.78 4.277-4.417 2.493-.808-.881-.639-1.024.667-.565 2.753.969 2.077.161-2.275-2.719-3.882-2.569-4.457-2.653-16.25-2.383l-12.225.281-.305 4.75c-.252 3.934-.639 4.75-2.25 4.75-1.556 0-1.945.7-1.945 3.5 0 3.481.024 3.5 4.5 3.5h4.5v78h17v-85l2.75-.015c2.702-.015 7.095-1.938 4.5-1.97-.687-.008-1.25-1.215-1.25-2.682 0-1.466.332-2.335.737-1.929.406.405.743 1.471.75 2.369.007.897 1.138 1.946 2.513 2.33 2.398.669 2.408.702.231.797l-2.269.1.269 22.095.269 22.096 16-.093c24.166-.139 27.5 1.262 27.5 11.562 0 5.611-1.594 9.926-4.584 12.413-1.297 1.079-6.253 1.549-20.316 1.927l-18.6.5-.293 7.819-.294 7.819 22.294-.319c21.656-.31 22.453-.394 27.9-2.948 9.658-4.529 13.897-12.818 13.887-27.156-.006-10.15-1.237-14.783-5.092-19.174-5.479-6.24-10.653-7.93-25.652-8.377l-13.25-.396V152h39v-3.434c0-3.002.345-3.473 2.75-3.75 2.546-.292 2.75-.65 2.75-4.816v-4.5l-11 .312c-6.724.19-10.611-.046-10-.607 1.305-1.199 30.678-9.36 31.332-8.706.276.276.042.501-.519.501-1.612 0-1.726 14.972-.116 15.118.717.065-.047.447-1.697.849-1.987.484.926.866 8.629 1.132l11.629.401-2.268-5c-1.248-2.75-3.423-7.554-4.834-10.675-2.216-4.904-3.394-6.162-8.664-9.25-3.355-1.966-6.512-3.575-7.016-3.575-.505 0-9.517 4.275-20.028 9.5-15.53 7.72-19.891 9.478-23.279 9.384-2.293-.064-3.382-.322-2.419-.573 1.385-.362 1.747-1.537 1.735-5.634-.011-3.711-.29-4.752-.985-3.677-.533.825-.976 1.086-.985.58-.016-.982 9.597-16.414 19.205-30.83 6.755-10.136 7.294-9.735-8.721-6.49M4.5 143c-.357.577.57.994 2.191.985 2.181-.012 2.474-.232 1.309-.985-1.921-1.242-2.733-1.242-3.5 0m45.958 10.249c-.296.771-.407 5.642-.248 10.826l.29 9.425 12.5.289c14.029.324 16.209.002 19.025-2.814 3.019-3.019 2.77-11.938-.436-15.669-2.4-2.794-2.473-2.807-16.502-3.132-11.38-.263-14.195-.056-14.629 1.075M108 182.5v8.5h21v-17h-21v8.5M50 202v11.048l16.643-.274 16.644-.274 1.951-2.614c2.823-3.785 2.904-11.872.155-15.56l-2.106-2.826-16.644-.274L50 190.952V202" fill="#1976D2" fill-rule="evenodd"/><path fill-opacity=".55" d="M21.73 2.42C14.146 5.539 9.448 9.227 5.855 14.881-.283 24.54-.063 20.039.231 130.071L.5 230.5l2.648 5.648c3.372 7.192 9.512 13.332 16.704 16.704L25.5 255.5h205l5.648-2.648c3.106-1.456 7.532-4.532 9.836-6.836 4.115-4.115 8.987-12.882 9.006-16.207.006-.93.46-1.969 1.01-2.309.656-.405 1-35.03 1-100.618 0-55-.364-99.775-.808-99.5-.445.274-1.32-1.41-1.944-3.743-1.666-6.229-7.071-13.687-12.597-17.38-9.771-6.53-4.844-6.261-114.583-6.235L27.5.047 21.73 2.42m74.006 19.934L85.5 31.709l-8 19.851c-7.52 18.66-8.502 20.498-16.364 30.645C56.535 88.142 52.429 93 52.011 93c-.418 0-2.673-.675-5.011-1.5S42.631 90 42.487 90c-.144 0-3.725 8.488-7.957 18.863l-7.696 18.863-12.667 8.387L1.5 144.5l14.75.277 14.75.276V230l28.25-.022c25.161-.02 28.688-.221 32.259-1.843 8.632-3.922 13.512-13.364 13.469-26.067-.025-7.624-2.172-13.108-6.852-17.505-3.766-3.539-3.803-3.969-.664-7.7 1.353-1.609 2.926-4.599 3.494-6.644 1.518-5.467 1.272-16.737-.456-20.873-.825-1.975-1.5-3.76-1.5-3.968 0-.208 6.271-.378 13.937-.378h13.936l.314 3.25c.294 3.049.575 3.269 4.551 3.557l4.239.307.261 38.693.262 38.693h18l.261-42.25.261-42.25H162v44h18.944c18.584 0 18.998.046 21.75 2.413 2.545 2.189 2.806 3.025 2.806 8.981 0 6.083-.241 6.809-3.267 9.837l-3.267 3.269-18.483.312-18.483.312V230h21.462c24.22 0 29.281-1.039 35.288-7.248 6.627-6.847 9.572-19.347 7.355-31.209-1.473-7.88-4.651-12.427-11.213-16.039-5.032-2.771-6.293-3.004-18.892-3.486l-13.5-.518-.286-9.729-.286-9.728 19.786-.272 19.786-.271.313-3.25.314-3.25h33.851l.272 41.25c.15 22.688.273-3.975.273-59.25.001-79.26-.107-88.031-.511-41.5-.484 55.739-.603 58.807-2.158 55.5-.906-1.925-3.239-6.896-5.186-11.046-3.381-7.206-3.848-7.716-10.354-11.299-6.601-3.635-7.123-4.218-16.708-18.703-5.441-8.224-9.941-14.95-10-14.948-.058.002-5.731 1.127-12.606 2.5l-12.5 2.495-2.25-2.749c-1.237-1.513-8.107-10.85-15.265-20.75l-13.016-18-18.202-14.839c-12.109-9.871-20.352-15.813-24.623-17.75-3.531-1.601-6.589-2.911-6.796-2.911-.206 0-4.981 4.209-10.612 9.354M50 163v10h14.845c17.924 0 18.655-.399 18.655-10.193 0-9.22-1.143-9.807-19.111-9.807H50v10m57 19.5v8.5h22v-17h-22v8.5m-56.333 9.167c-.367.366-.667 5.316-.667 11V213h31.822l2.589-3.077c1.941-2.306 2.589-4.196 2.589-7.549 0-4.946-2.05-9.795-4.545-10.753-2.182-.837-30.946-.796-31.788.046" fill="#1976D2" fill-rule="evenodd"/><path fill-opacity=".404" d="M26.746 1.072C16.409 3.547 7.944 10.562 3.302 20.5L.5 26.5.198 85.25C.033 117.563.261 144 .705 144c.445 0 6.411-3.742 13.258-8.316l12.449-8.316 7.582-18.434c8.212-19.967 7.423-19.052 15.083-17.501 3.564.722 3.608.688 11.226-8.784 7.14-8.877 8.225-10.906 16.335-30.528l8.688-21.018 10.537-9.396 10.538-9.397 6.742 3.123c6.417 2.973 36.548 26.283 42.965 33.24 1.434 1.555 8.778 11.265 16.321 21.577C179.971 80.563 186.735 89 187.461 89c.725 0 5.693-.9 11.039-2s10.683-1.99 11.86-1.979c1.641.016 4.421 3.474 11.923 14.833 9.422 14.266 10.033 14.952 16.612 18.658l6.83 3.847 4.613 10.071 4.612 10.07.024-58.5.024-58.5-2.88-6c-3.573-7.441-8.82-12.556-16.618-16.198L229.5.5 130 .336C73.934.244 28.861.565 26.746 1.072M.191 187.25.5 229.5l2.885 6.247c3.402 7.366 9.511 13.401 17.07 16.861l5.305 2.429 103.37-.269 103.37-.268 4.295-2.293c2.362-1.262 6.059-3.887 8.214-5.834 4.429-4.001 9.991-14.286 9.991-18.474 0-1.529.45-3.059 1-3.399.642-.397.972-15.007.921-40.809-.043-22.105-.268-39.741-.499-39.191-.263.628-6.748.89-17.421.704L222 144.909V152l-18.75.118c-10.312.066-19.088.066-19.5 0-.412-.065-.75 4.103-.75 9.261v9.38l12.25.433c9.891.349 13.21.863 17.238 2.669 10.048 4.506 13.653 10.362 14.306 23.237.786 15.49-3.906 25.383-14.474 30.519-5.764 2.802-6.033 2.833-28.11 3.203l-22.291.374.291-8.847.29-8.847 18.725-.5c17.325-.463 18.882-.657 20.821-2.599 3.632-3.636 4.517-12.288 1.801-17.607-1.458-2.857-7.584-3.783-25.077-3.788L162.039 189l-.269-21.75-.27-21.75-3.239-.313-3.239-.312-.261 42.812-.261 42.813h-18l-.5-39-.5-39-4.25-.307c-4.117-.298-4.25-.415-4.25-3.75V145H99.31l1.95 5.75c3.069 9.051 1.044 22.104-4.313 27.807-1.949 2.075-1.947 2.095.643 4.513 6.843 6.393 9.27 14.904 7.404 25.967-1.552 9.198-5.666 15.444-12.464 18.921l-4.97 2.542H30.5l-.261-42.75-.26-42.75H-.118l.309 42.25M.456 185c0 22.275.132 31.388.293 20.25.161-11.137.161-29.362 0-40.5C.588 153.613.456 162.725.456 185M51 162.924V173h14c12.667 0 14.19-.19 16-2 3.132-3.132 3.074-12.247-.099-15.5-1.732-1.776-3.518-2.037-15.926-2.326L51 152.849v10.075m56.212 19.326.288 9.25h22l.288-9.25.287-9.25h-23.15l.287 9.25M51 201.93V213h15.045c14.528 0 15.128-.082 17.434-2.388 4.244-4.244 4.529-11.907.624-16.736-1.852-2.289-2.49-2.388-17.512-2.696L51 190.859v11.071" fill="#1976D2" fill-rule="evenodd"/></svg>