<svg xmlns="http://www.w3.org/2000/svg" viewBox="0 0 600 250">
	<path style="fill-rule:evenodd;clip-rule:evenodd;" d="M323.8,138.6c-4.4-11-12.4-16.6-23.8-17.1
		c-11.4,0.5-19.4,6.1-23.8,17.1c-29,62.1-71.3,96.4-124.4,108.2C55.2,217.7,3.6,152.4,3.6,86.5c0-78.4,70.3-103,148.5-67.3
		c52.2-22.3,99.5-6.4,125.1,45.3c5.5,9.5,13.3,13.9,22.9,14.4c9.6-0.5,17.4-4.9,22.9-14.4C348.5,12.7,395.7-3.1,448,19.1
		c78.2-35.6,148.5-11,148.5,67.3c0,65.9-51.6,131.2-148.2,160.3C395.1,235,352.7,200.7,323.8,138.6L323.8,138.6z M270.1,98.8
		c0-53.5-62.6-96.8-116-58.3c-2.3,2.2-5.1,2.8-8.9-0.1c-42.3-30.9-104.5-17-109.3,53c-4,59,41.3,106.2,115.8,145
		C203.8,220.2,270.1,165.8,270.1,98.8L270.1,98.8z M329.9,98.8c0-53.5,62.6-96.8,116-58.3c2.3,2.2,5.1,2.8,8.9-0.1
		c42.3-30.9,104.5-17,109.3,53c4,59-41.3,106.2-115.8,145C396.2,220.2,329.9,165.8,329.9,98.8z
	"/>
</svg>