<svg xmlns="http://www.w3.org/2000/svg" viewBox="0 0 600 250">
	<path style="fill-rule:evenodd;clip-rule:evenodd;" d="M300,88.2l22,0.3
		c-1.1,8.8,0.1,21.1,3.1,29.4c9.5,25.7,17.5,52.7,33.5,75.3c13.9,19.6,34.9,38.5,59.5,41.6c25.3,3.2,52.5,3.4,76.2-7.1
		c24.2-10.7,40.4-24.4,50.9-49.4c1.9-4.6,4-9.1,6.1-13.6c1.8-4.1,4.8-10.5,7.4-16.5l25-29.4c4.2-5.5,7-11.7,7.8-19.1
		c3.3-16.6,4.7-33.5,5-50.4c0-5.1-2.2-7.4-5.3-8.5c-32-10.8-65.1-20.3-100.1-25.9c-20.4-3.2-40.7-1.7-60.8,3.4
		c-22.3,4.9-45.5,12.3-69.8,22.6c-13.1,4.8-23.2,13.1-28.7,26.1c-2,4.4-5.9,10.1-8.2,15.5c-6.2-3.3-14.4-4.8-23.7-4.8
		s-17.6,1.6-23.7,4.8c-2.3-5.4-6.1-11-8.2-15.5c-5.5-13-15.6-21.3-28.7-26.1c-24.3-10.3-47.6-17.7-69.8-22.6
		c-20.1-5.1-40.4-6.7-60.8-3.4C73.8,20.5,40.7,30,8.7,40.8c-3.1,1.1-5.3,3.4-5.3,8.5c0.3,17,1.7,33.8,5,50.4
		c0.8,7.3,3.6,13.6,7.8,19.1l25,29.4c2.6,6,5.6,12.4,7.4,16.5c2,4.5,4.1,9.1,6.1,13.6c10.5,25,26.8,38.8,50.9,49.4
		c23.8,10.5,50.9,10.3,76.2,7.1c24.7-3.1,45.6-22,59.5-41.6c16-22.6,24-49.6,33.5-75.3c3.1-8.3,4.2-20.6,3.1-29.4L300,88.2L300,88.2
		z M41.9,135.4c-5.5-17.6-4.9-35.6,1.4-53.2c1.3-3.6,3.7-6.6,5.3-10.1C54.1,60.4,64.6,53,79.3,48c36.2-12.1,82.1-12.5,133.5,0.4
		c18.8,4.7,35,9.9,49.8,19.3c2.5,1.6,5.4,8.1,7,11.2c1.8,3.4,2.9,6.6,3.1,10.5c0.5,9,0.2,18.1-2.9,26.5c-9.3,25.1-17.3,52-32.9,74.1
		c-13,18.3-32.8,36.5-55.8,39.4c-24.3,3.1-50.6,3.4-73.4-6.7c-22.9-10.1-38.2-22.9-48.2-46.6c-1.9-4.6-4-9.2-6.1-13.8
		C50.5,156,43.5,140.7,41.9,135.4L41.9,135.4z M558.1,135.4c5.5-17.6,4.9-35.6-1.4-53.2c-1.3-3.6-3.7-6.6-5.3-10.1
		c-5.5-11.9-16-19.2-30.8-24.2c-36.2-12.1-82.1-12.5-133.5,0.4c-18.8,4.7-36.9,8.8-49.8,19.3c-2.3,1.9-5.4,8.1-7,11.2
		c-1.8,3.4-2.9,6.6-3.1,10.5c-0.5,9-0.2,18.1,2.9,26.5c9.3,25.1,17.3,52,32.9,74.1c13,18.3,32.8,36.5,55.8,39.4
		c24.3,3.1,50.6,3.4,73.4-6.7c22.9-10.1,38.2-22.9,48.2-46.6c1.9-4.6,4-9.2,6.1-13.8C549.5,156,556.5,140.7,558.1,135.4z
	"/>
</svg>