<?xml version="1.0" encoding="utf-8"?>
<!-- Generator: Adobe Illustrator 26.4.1, SVG Export Plug-In . SVG Version: 6.00 Build 0)  -->
<svg version="1.1" xmlns="http://www.w3.org/2000/svg" xmlns:xlink="http://www.w3.org/1999/xlink" x="0px" y="0px"
	 viewBox="0 0 600 250" style="enable-background:new 0 0 600 250;" xml:space="preserve">
<style type="text/css">
	.st0{display:none;}
	.st1{display:inline;}
	.st2{fill-rule:evenodd;clip-rule:evenodd;fill:#EDEDED;}
	.st3{fill:none;stroke:#020203;stroke-width:6;stroke-miterlimit:22.9256;}
	.st4{fill:none;stroke:#020203;stroke-width:6;stroke-miterlimit:22.9256;stroke-dasharray:12,12;}
	.st5{fill:none;stroke:#020203;stroke-width:6;stroke-miterlimit:22.9256;stroke-dasharray:12.5263,12.5263;}
	.st6{display:inline;fill-rule:evenodd;clip-rule:evenodd;fill:#020203;}
	.st7{fill-rule:evenodd;clip-rule:evenodd;fill:#020203;}
	.st8{fill-rule:evenodd;clip-rule:evenodd;fill:none;stroke:#FFFFFF;stroke-miterlimit:10;}
	.st9{fill:#FFFFFF;}
</style>
<g id="Camada_2" class="st0">
	<g class="st1">
		<rect class="st2" width="600" height="250"/>
		<g>
			<polyline class="st3" points="600,244 600,250 594,250 			"/>
			<line class="st4" x1="582" y1="250" x2="12" y2="250"/>
			<polyline class="st3" points="6,250 0,250 0,244 			"/>
			<line class="st5" x1="0" y1="231.5" x2="0" y2="12.3"/>
			<polyline class="st3" points="0,6 0,0 6,0 			"/>
			<line class="st4" x1="18" y1="0" x2="588" y2="0"/>
			<polyline class="st3" points="594,0 600,0 600,6 			"/>
			<line class="st5" x1="600" y1="18.5" x2="600" y2="237.7"/>
		</g>
	</g>
</g>
<g id="Polarized" class="st0">
	<path id="Polarized_00000036216027049714845650000000359791539673433776_" class="st6" d="M467.6,30.2c-34.1,0.5-73,7.1-124.2,21.1
		c-13.5,4.7-28.9,6.2-43.4,7.2c-14.5-1-29.9-2.4-43.4-7.2c-51.3-14-90.1-20.6-124.2-21.1c-44.2-0.7-88,0.6-129.7,7.6
		c1.5,13.1,3,26.3,4.5,39.4c10.6,2,18,14.3,22.9,34.1c2.5,12.2,4.9,24.3,7.4,36.5c9.4,54.7,42,69.8,103.5,72.1
		c68.9,0.4,108.3-33.2,126.8-91.1c2.5-7.8,13.5-31.8,17.7-35.4c4.2-3.6,12.9-3.2,14.5-3.2c1.6,0.1,10.4-0.4,14.5,3.2
		c4.2,3.6,15.2,27.6,17.7,35.4c18.5,57.8,58,91.5,126.8,91.1c61.5-2.3,94-17.4,103.5-72.1c2.5-12.2,4.9-24.3,7.4-36.5
		c4.9-19.8,12.3-32.1,22.9-34.1c1.5-13.1,3-26.3,4.5-39.4C555.7,30.8,511.9,29.5,467.6,30.2z M251,106.5c-3.8,19.7-8,39.7-19.6,58.6
		c-16.3,26.9-44.6,42-87.6,44.7c-59.5-0.1-82-20.5-91.4-69.9c-1.9-11.6-2.7-23.4-4.6-35.1C42,72.7,61,49.2,89.7,45.9
		c21,0,41.9-0.3,62.9,0c24.4,0.4,46.8,4.7,67.9,11.5C248.5,65.7,256.6,77.5,251,106.5z M554.2,104.9c-1.9,11.6-2.7,23.4-4.6,35.1
		c-9.4,49.4-31.9,69.8-91.4,69.9c-43-2.7-71.3-17.8-87.6-44.7c-11.5-18.9-15.8-39-19.6-58.6c-5.5-29,2.6-40.8,30.5-49.2
		c21.1-6.8,43.5-11.1,67.9-11.5c21-0.3,41.9,0,62.9,0C541.1,49.2,560.1,72.7,554.2,104.9z"/>
</g>
<g id="Ful_Vue" class="st0">
	<path id="Ful_Vue_00000164495059286575542850000012074841543676145085_" class="st6" d="M353.8,111.8c0.6-5.3,1.7-11,3.8-15.6
		c-0.3,9.3-0.2,18.1,0.3,26.4c-0.6-0.3-1.1-0.6-1.7-0.9C355.4,118.1,354.6,115.3,353.8,111.8L353.8,111.8z M246.2,111.8
		c-0.6-5.3-1.7-11-3.8-15.6c0.3,9.3,0.2,18.1-0.3,26.4c0.6-0.3,1.1-0.6,1.7-0.9C244.6,118.1,245.4,115.3,246.2,111.8L246.2,111.8z
		 M43.3,41.4H5.6c-1.3,0-2.4,1.1-2.4,2.4v11.9c0,1.3,1.1,2.4,2.4,2.4h23.9C22,70.4,17.9,85.4,17.9,102.9
		c0,68.7,50.3,131.8,114.6,131.9c42.3,0,86-23.5,108.6-99.3c2.5-2.2,4.9-4.3,7.3-6c1.5-5.1,3.1-10.1,4.6-15.2
		c2.1-6.5,1.2-13.3-2.2-20c-2.9-6.9-1.6-12.7,2.7-16.6C265.1,67,280.7,61.7,300,60.8c19.3,0.9,34.9,6.2,46.5,16.8
		c4.3,3.9,5.6,9.7,2.7,16.6c-3.3,6.7-4.3,13.5-2.2,20c1.5,5.1,3.1,10.1,4.6,15.2c2.3,1.7,4.8,3.8,7.3,6
		c22.7,75.9,66.4,99.4,108.6,99.3c64.3-0.1,114.6-63.2,114.6-131.9c0-17.5-4.1-32.5-11.6-44.8h23.9c1.3,0,2.4-1.1,2.4-2.4V43.8
		c0-1.3-1.1-2.4-2.4-2.4h-37.7c-20.5-18.6-52.2-27.4-90-26C399.3,18,366.1,40.3,358.9,84.2c-4.1-21.3-27.3-34.1-58.9-34.1
		c-31.6,0-54.8,12.8-58.9,34.1c-7.2-44-40.5-66.3-107.9-68.8C95.5,14,63.8,22.8,43.3,41.4L43.3,41.4z M238,95.6
		c0,1.5,0.2,18-0.3,26.6c-0.3,4-0.6,7.9-0.8,11.9c-8.4,28.1-22.2,57.2-45.5,75.9c-17.1,13.8-37.1,20.2-58.9,20.2
		c-12.7,0-25.1-2.6-36.8-7.6c-22.1-9.4-40.2-26.7-52.7-47c-13.4-21.8-20.6-47.3-20.6-72.8c0-18.4,4.8-36.1,16.6-50.5
		C48.9,40.2,62.4,32.1,77.1,27c17.8-6.1,37.3-7.9,56-7.2c31,1.2,71.2,6.8,91.1,33.7c6.9,9.3,10.7,20,12.6,31.4
		C237.8,91,237.9,92.6,238,95.6L238,95.6z M362,95.6c0,1.5-0.2,18,0.3,26.6c0.3,4,0.6,7.9,0.8,11.9c8.4,28.1,22.2,57.2,45.5,75.9
		c17.1,13.8,37.1,20.2,58.9,20.2c12.7,0,25.1-2.6,36.8-7.6c22.1-9.4,40.2-26.7,52.7-47c13.4-21.8,20.6-47.3,20.6-72.8
		c0-18.4-4.8-36.1-16.6-50.5c-9.9-12.1-23.5-20.3-38.2-25.4c-17.8-6.1-37.3-7.9-56-7.2c-31,1.2-71.2,6.8-91.1,33.7
		c-6.9,9.3-10.7,20-12.6,31.4C362.2,91,362.1,92.6,362,95.6z"/>
</g>
<g id="Mirrored" class="st0">
	<path id="Mirrored_00000081626919062162620580000010589604116866372779_" class="st6" d="M300,88.2l22,0.3
		c-1.1,8.8,0.1,21.1,3.1,29.4c9.5,25.7,17.5,52.7,33.5,75.3c13.9,19.6,34.9,38.5,59.5,41.6c25.3,3.2,52.5,3.4,76.2-7.1
		c24.2-10.7,40.4-24.4,50.9-49.4c1.9-4.6,4-9.1,6.1-13.6c1.8-4.1,4.8-10.5,7.4-16.5l25-29.4c4.2-5.5,7-11.7,7.8-19.1
		c3.3-16.6,4.7-33.5,5-50.4c0-5.1-2.2-7.4-5.3-8.5c-32-10.8-65.1-20.3-100.1-25.9c-20.4-3.2-40.7-1.7-60.8,3.4
		c-22.3,4.9-45.5,12.3-69.8,22.6c-13.1,4.8-23.2,13.1-28.7,26.1c-2,4.4-5.9,10.1-8.2,15.5c-6.2-3.3-14.4-4.8-23.7-4.8
		s-17.6,1.6-23.7,4.8c-2.3-5.4-6.1-11-8.2-15.5c-5.5-13-15.6-21.3-28.7-26.1c-24.3-10.3-47.6-17.7-69.8-22.6
		c-20.1-5.1-40.4-6.7-60.8-3.4C73.8,20.5,40.7,30,8.7,40.8c-3.1,1.1-5.3,3.4-5.3,8.5c0.3,17,1.7,33.8,5,50.4
		c0.8,7.3,3.6,13.6,7.8,19.1l25,29.4c2.6,6,5.6,12.4,7.4,16.5c2,4.5,4.1,9.1,6.1,13.6c10.5,25,26.8,38.8,50.9,49.4
		c23.8,10.5,50.9,10.3,76.2,7.1c24.7-3.1,45.6-22,59.5-41.6c16-22.6,24-49.6,33.5-75.3c3.1-8.3,4.2-20.6,3.1-29.4L300,88.2L300,88.2
		z M41.9,135.4c-5.5-17.6-4.9-35.6,1.4-53.2c1.3-3.6,3.7-6.6,5.3-10.1C54.1,60.4,64.6,53,79.3,48c36.2-12.1,82.1-12.5,133.5,0.4
		c18.8,4.7,35,9.9,49.8,19.3c2.5,1.6,5.4,8.1,7,11.2c1.8,3.4,2.9,6.6,3.1,10.5c0.5,9,0.2,18.1-2.9,26.5c-9.3,25.1-17.3,52-32.9,74.1
		c-13,18.3-32.8,36.5-55.8,39.4c-24.3,3.1-50.6,3.4-73.4-6.7c-22.9-10.1-38.2-22.9-48.2-46.6c-1.9-4.6-4-9.2-6.1-13.8
		C50.5,156,43.5,140.7,41.9,135.4L41.9,135.4z M558.1,135.4c5.5-17.6,4.9-35.6-1.4-53.2c-1.3-3.6-3.7-6.6-5.3-10.1
		c-5.5-11.9-16-19.2-30.8-24.2c-36.2-12.1-82.1-12.5-133.5,0.4c-18.8,4.7-36.9,8.8-49.8,19.3c-2.3,1.9-5.4,8.1-7,11.2
		c-1.8,3.4-2.9,6.6-3.1,10.5c-0.5,9-0.2,18.1,2.9,26.5c9.3,25.1,17.3,52,32.9,74.1c13,18.3,32.8,36.5,55.8,39.4
		c24.3,3.1,50.6,3.4,73.4-6.7c22.9-10.1,38.2-22.9,48.2-46.6c1.9-4.6,4-9.2,6.1-13.8C549.5,156,556.5,140.7,558.1,135.4z"/>
</g>
<g id="Goggles" class="st0">
	<path id="Goggles_00000116211412013535342860000001042459029674108319_" class="st6" d="M227.8,24.3c24.1-0.1,48.1,0.3,72.2,0.8
		c24.1-0.4,48.1-0.9,72.2-0.8C435,24.6,497,31,557.4,47.3c5.8,1.9,8.8,5.6,8.2,11.9c0,2.2,0.1,4.4,0.1,6.6c-0.7,0.3-1.4,0.6-2.2,0.9
		c-2.6,34.2-3.6,64.5-4.7,98c-0.1,2.5,1.7,3.5,3.2,3.1l0,2l-0.9,0.1c-0.7,0-1,0.5-0.9,0.8c0,2.2,0,4.4-0.1,6.5
		c0.4,6.6-5,11.6-14.9,15.4c-32.3,12.9-78,23.6-138.1,32.1c-17.1,1.9-29.2-2.5-36.7-12.6c-11.5-16-23.1-32-34.6-47.9
		c-6.2-7.6-14.2-13.3-27-13.1l-8.8-0.1l-8.8,0.1c-12.8-0.2-20.8,5.5-27,13.1c-11.5,16-23.1,32-34.6,47.9
		c-7.5,10.1-19.6,14.4-36.7,12.6c-60.1-8.5-105.8-19.3-138.1-32.1c-9.9-3.8-15.3-8.8-14.9-15.4c0-2.2-0.1-4.4-0.1-6.5
		c0-0.3-0.3-0.8-0.9-0.8l-0.9-0.1l0-2c1.5,0.4,3.2-0.6,3.2-3.1c-1-33.5-2.1-63.8-4.7-98c-0.7-0.3-1.4-0.6-2.2-0.9
		c0-2.2,0.1-4.4,0.1-6.6c-0.6-6.2,2.4-10,8.2-11.9C103,31,165,24.6,227.8,24.3L227.8,24.3z M300,3.8c-24.3,0-48.6-0.4-72.8,1.2
		c-38.6,2.5-77.1,6.5-115.1,12.1C89.3,20.4,67.5,27,45.3,31.9C30.4,36.4,23.6,42.6,25,50.5c0,3.7,0,7.4,0,11.1
		c-6-0.4-9.4,0.5-9.4,3.1c0,32.4,0.7,65.7,0,98.2c0,2,2.2,3.7,4.9,3.9c2.3,0.2,4.6,0,6.9,0.3c-0.1,3.8-0.2,7.6-0.3,11.4
		c0.1,11.9,5.9,21.1,19.5,26.8c59.6,25.1,113.6,38.6,162.1,40.7c16.9,1.7,25.1-5.1,31.2-14.6c10.4-17.2,21.8-34,32.3-51.3
		c6-6.4,15.2-9.8,27.7-10c12.6,0.2,21.7,3.6,27.7,10c10.4,17.2,21.8,34,32.3,51.3c6.1,9.5,14.4,16.3,31.2,14.6
		c48.5-2.1,102.5-15.7,162.1-40.7c13.6-5.7,19.5-14.9,19.5-26.8c-0.1-3.8-0.2-7.6-0.3-11.4c2.3-0.3,4.6-0.1,6.9-0.3
		c2.6-0.2,4.9-1.8,4.9-3.9c-0.7-32.5,0-65.8,0-98.2c0-2.7-3.4-3.6-9.4-3.1c0-3.7,0-7.4,0-11.1c1.4-7.9-5.4-14.1-20.3-18.6
		c-22.3-5-44.1-11.5-66.8-14.9c-38-5.6-76.5-9.6-115.1-12.1C348.6,3.4,324.3,3.8,300,3.8z"/>
</g>
<g id="Heart" class="st0">
	<path id="Heart_00000013909031121921673310000002372148834520070020_" class="st6" d="M323.8,138.6c-4.4-11-12.4-16.6-23.8-17.1
		c-11.4,0.5-19.4,6.1-23.8,17.1c-29,62.1-71.3,96.4-124.4,108.2C55.2,217.7,3.6,152.4,3.6,86.5c0-78.4,70.3-103,148.5-67.3
		c52.2-22.3,99.5-6.4,125.1,45.3c5.5,9.5,13.3,13.9,22.9,14.4c9.6-0.5,17.4-4.9,22.9-14.4C348.5,12.7,395.7-3.1,448,19.1
		c78.2-35.6,148.5-11,148.5,67.3c0,65.9-51.6,131.2-148.2,160.3C395.1,235,352.7,200.7,323.8,138.6L323.8,138.6z M270.1,98.8
		c0-53.5-62.6-96.8-116-58.3c-2.3,2.2-5.1,2.8-8.9-0.1c-42.3-30.9-104.5-17-109.3,53c-4,59,41.3,106.2,115.8,145
		C203.8,220.2,270.1,165.8,270.1,98.8L270.1,98.8z M329.9,98.8c0-53.5,62.6-96.8,116-58.3c2.3,2.2,5.1,2.8,8.9-0.1
		c42.3-30.9,104.5-17,109.3,53c4,59-41.3,106.2-115.8,145C396.2,220.2,329.9,165.8,329.9,98.8z"/>
</g>
<g id="Buttefly" class="st0">
	<path id="Buttefly_00000015329252770813334030000015623565230749885831_" class="st6" d="M514.1,9.3c15.7-0.1,34.6,3.5,61,18.2
		c6.1,3.4,12.3,6.3,18.4,9.6c1.3,0.7,1.8,1.8,1.8,2.9c1,22,1.5,44.5-1.7,66.2c-1.1,7.6-2.2,12.3-5.6,18.7
		c-16.5,31.2-34.2,60.7-55,90c-7.2,10.1-16.9,17.3-31.9,20.1c-21.5,4-44.4,6.4-68.8,5.4c-18.4-0.8-31.9-6.4-41.3-14.7
		c-20.8-18.5-40.8-40-56.5-70.7c-4.7-9.2-9.1-18.6-13.8-27.8c-2.4-4.8-6.5-8.2-12.6-9c-2.7-0.3-5.5,0-8.2,0h0c-2.7,0-5.5-0.3-8.2,0
		c-6.2,0.8-10.2,4.2-12.6,9c-4.7,9.2-9,18.6-13.8,27.8c-15.7,30.8-35.7,52.2-56.5,70.7c-9.3,8.3-22.8,14-41.3,14.7
		c-24.3,1-47.3-1.4-68.8-5.4c-15-2.8-24.8-10-31.9-20.1c-20.8-29.3-38.5-58.8-55-90c-3.4-6.4-4.5-11.1-5.6-18.7
		C3.2,84.5,3.7,62,4.7,40c0.1-1.1,0.6-2.3,1.8-2.9c6.1-3.3,12.4-6.2,18.4-9.6c26.4-14.7,45.4-18.3,61-18.2c13.7,0.1,27.4,0,41.1,0
		c53.2-0.1,97.4,15.2,129.7,51.1c14.2,15.8,28.7,22,43.3,21.4h0c14.6,0.7,29.1-5.6,43.3-21.4c32.3-35.9,76.5-51.2,129.7-51.1
		C486.6,9.3,500.3,9.4,514.1,9.3L514.1,9.3z M252.3,127.2c4.1-17,2.3-35.8-9.8-52.2c-10-13.5-25.7-21.7-41.7-28.5
		c-27-11.4-62.2-17.8-106.6-16.2c-24.4,0.9-42,8.9-50.1,22.1c-12.8,20.7-10,37.2-5.4,53.5c7.8,28.1,17.5,54.4,30.5,79.1
		c10.3,19.8,26.2,34.3,50.6,39.8c8.4,1.9,21.4,2.1,30.2,2.1c24.5,0,38.3-5.4,48.4-14.9C224.3,187.7,244.5,159.8,252.3,127.2
		L252.3,127.2z M347.7,127.2c-4.1-17-2.3-35.8,9.8-52.2c10-13.5,25.7-21.7,41.7-28.5c27-11.4,62.2-17.8,106.6-16.2
		c24.4,0.9,42,8.9,50.1,22.1c12.8,20.7,10,37.2,5.4,53.5c-7.8,28.1-17.5,54.4-30.5,79.1c-10.3,19.8-26.2,34.3-50.6,39.8
		c-8.4,1.9-21.4,2.1-30.2,2.1c-24.5,0-38.3-5.4-48.4-14.9C375.7,187.7,355.5,159.8,347.7,127.2z"/>
</g>
<g id="Pilot" class="st0">
	<g id="Pilot_00000020381987867327657580000001050666622481205439_" class="st1">
		<path class="st7" d="M335.2,115.1l-1.6,5.8c5.3,16.1,12.8,31.1,24.6,43.6l6.8,2.3l10.8-5.9V152c-11.7-12.8-20.1-27.2-25.7-42.9
			l-4.7-0.5L335.2,115.1z"/>
		<path class="st7" d="M23.6,96.4H6.5c-1.5,0-2.7,1.2-2.7,2.7v15.7c0,1.5,1.2,2.7,2.7,2.7h17c0,3.4,0.1,6.9,0.3,10.5
			c-0.3,26.6,7.4,50.2,25.8,68.9c18.8,20.6,41.1,33.3,68.6,33.8c23.9,0.3,46.6-9,68.3-24.6c27.3-21.6,51-45.6,67.2-74.6
			c1.7,0.3,3.6-0.3,4.8-1.7l0,0c1.8-2,1.7-5.2-0.2-7.1c1.6-3.3,3.2-6.7,4.6-10.1c5.1-10.5,7-21.8,6-33.8c1.3,0,2.5,0,3.8,0
			c-0.1-3.9-0.2-7.7-0.3-11.6c0.1-6.9,7-10.3,19.7-10.7l7.8,0.1h0l7.8-0.1c12.7,0.4,19.6,3.8,19.7,10.7c-0.1,3.9-0.2,7.7-0.3,11.6
			c1.3,0,2.5,0,3.8,0c-1,12,0.9,23.3,6,33.8c1.4,3.4,3,6.8,4.6,10.1c-1.9,1.9-2,5-0.2,7.1l0,0c1.2,1.4,3.1,2,4.8,1.7
			c16.3,29,39.9,53,67.2,74.6c21.8,15.6,44.4,24.8,68.3,24.6c27.5-0.5,49.8-13.1,68.6-33.8c18.5-18.7,26.1-42.3,25.8-68.9
			c0.1-3.6,0.2-7.1,0.3-10.5h17c1.5,0,2.7-1.2,2.7-2.7V99.1c0-1.5-1.2-2.7-2.7-2.7h-17.1c-0.1-4.9-0.2-9.8-0.3-14.6
			c-2.4-32.8-27.3-50.6-66.4-58.9c-41.2-6.4-80.3-3.7-118.3,4.3c-0.3-1.4,0.3-3,0-4.5c-31.8,2.7-62.4,3.4-91.3,3.2h0
			c-28.9,0.2-59.5-0.5-91.3-3.2c-0.3,1.4,0.3,3,0,4.5c-37.9-8-77.1-10.7-118.3-4.3C51.3,31.2,26.4,49,24,81.8
			C23.9,86.6,23.7,91.4,23.6,96.4L23.6,96.4z M300,49.3L300,49.3l-9.8,0c-14.1,0.2-22.3,5.3-24.1,15.5
			c-4.7-15.5-17.9-26.8-35.2-32.9c23.9,2.6,46.5,1.5,69.1,1.9h0c22.6-0.4,45.2,0.6,69.1-1.9c-17.3,6.2-30.5,17.4-35.2,32.9
			c-1.9-10.3-10-15.3-24.1-15.5L300,49.3L300,49.3z M349,116.1l5.2-4.7c2.1-1.9,5.4-1.7,7.3,0.4l0,0c1.9,2.1,1.7,5.4-0.4,7.3
			l-7.1,6.3c16.9,30.2,34.9,49.5,64.9,73.2c18.5,13.2,39.5,23.1,62.7,22.7c25.3-0.4,45.2-12.4,61.9-30.8
			c17.2-18.9,23.7-37,23.4-62.6c-0.2-15.3,0.2-30.4-0.2-45.8C564.4,50.2,536,38,507.9,32c-38.6-5.9-76.8-4.7-115.1,2.7
			c-7.2,1.4-12.2,3-20.7,5.9c-13,4.6-25.3,13.2-29.5,27c-1.4,4.1-2.2,8.2-2.5,12c-0.8,10.1,0.7,19.9,5.1,29.1
			C346.5,111.1,347.8,113.6,349,116.1L349,116.1z M251,116.1l-5.2-4.7c-2.1-1.9-5.4-1.7-7.3,0.4l0,0c-1.9,2.1-1.7,5.4,0.4,7.3
			l7.1,6.3c-16.9,30.2-34.9,49.5-64.9,73.2c-18.5,13.2-39.5,23.1-62.7,22.7C93,221.1,73.1,209,56.4,190.7
			c-17.2-18.9-23.7-37-23.4-62.6c0.2-15.3-0.2-30.4,0.2-45.8C35.6,50.2,64,38,92.1,32c38.6-5.9,76.8-4.7,115.1,2.7
			c7.2,1.4,12.2,3,20.7,5.9c13,4.6,25.3,13.2,29.5,27c1.4,4.1,2.2,8.2,2.5,12c0.8,10.1-0.7,19.9-5.1,29.1
			C253.5,111.1,252.2,113.6,251,116.1z"/>
		<path class="st7" d="M264.8,115.1l1.6,5.8c-5.3,16.1-12.8,31.1-24.6,43.6l-6.8,2.3l-10.8-5.9V152c11.7-12.8,20.1-27.2,25.7-42.9
			l4.7-0.5L264.8,115.1z"/>
	</g>
</g>
<g id="Square">
	<path id="Square_00000175292566685100212860000005609276009758682508_" class="st7" d="M592.3,77.1l-23.4,0.2
		c-1-10-3-20.2-5.9-30.5c-3.8-12.1-13.4-18.7-27.2-21.5c-22.1-3.1-48.5-4.3-77.7-4.2c-28.4,1.6-56.7,4.3-84.5,10.3
		c-23.4,5.9-36.5,18.9-36.5,41c-1,0-2.1,0-3.1,0c-2.3-5.3-5.1-8.6-9.1-8c-8.3,0-16.6,0-24.8,0s-16.6,0-24.8,0c-4-0.6-6.9,2.6-9.1,8
		c-1,0-2.1,0-3.1,0c0-22.1-13.1-35.2-36.5-41c-27.8-6-56.1-8.7-84.5-10.3c-29.2,0-55.7,1.1-77.7,4.2C50.4,28.1,40.8,34.7,37,46.8
		c-2.9,10.4-4.9,20.5-5.9,30.5L7.7,77.1c-1.4,0.2-3.9,1.7-3.9,3.2V86c0,1.5,1.6,3.6,3.9,3.7h22.7c-0.1,2.8,0,5.5,0,8.3
		c0.4,12.1,2.3,24.2,3.6,36.2c1.5,13.9,5.3,27.4,10.5,40.3c7.6,24.1,22.4,36.2,40.5,43.1c34.4,13.1,69.5,13.4,105.1,8
		c18.2-4.9,32.4-13.1,41.2-25.8c12.7-19,21.4-38.7,26.5-59.1c0.5,0.4,1,0.8,1.5,0.9c3.6,0.8,7.9-5.9,9.4-15c1.6-9-0.1-17-3.8-17.7
		c-0.7-0.2-1.5,0-2.2,0.4c0.2-2.9,0.4-5.8,0.4-8.7c0-1.5,0.5-3.2,0.5-4.7c1.2-0.4,1.9-0.5,3.1-0.9c0.5-1.3,1.1-2.6,1.6-3.9
		c-0.1-4-0.2-8-0.2-11.9c2.4-4,5.5-6.4,9.8-6.6c7.3,0,14.7,0,22,0s14.7,0,22,0c4.2,0.2,7.4,2.6,9.8,6.6c-0.1,4-0.2,8-0.2,11.9
		c0.5,1.3,1.1,2.6,1.6,3.9c1.2,0.4,1.9,0.5,3.1,0.9c0,1.5,0.5,3.2,0.5,4.7c0.1,3.1,0.2,6.2,0.5,9.2c-1-0.7-2-1.1-2.9-0.9
		c-3.6,0.8-5.3,8.7-3.8,17.7c1.6,9,5.8,15.7,9.4,15c0.8-0.2,1.5-0.7,2.1-1.5c5,20.6,13.8,40.5,26.6,59.7c8.8,12.7,23,20.9,41.2,25.8
		c35.6,5.4,70.7,5.1,105.1-8c18.1-6.9,32.9-18.9,40.5-43.1c5.3-12.9,9.1-26.3,10.5-40.3c1.3-12,3.2-24.1,3.6-36.2
		c0.1-2.7,0.1-5.5,0-8.3h22.7c2.3-0.1,3.9-2.2,3.9-3.7v-5.8C596.2,78.8,593.8,77.3,592.3,77.1z M257.2,111.8c-0.2,0-0.4-0.1-0.7-0.1
		h-8.7c-1.9,0-3.4,1.5-3.4,3.4v10.2c0,1.9,1.5,3.4,3.4,3.4h7.1c-4.4,24.2-13.8,46.9-28,68c-8.9,12.7-23.3,19.6-37.9,23.6
		c-34.8,5.3-68.9,4.9-102.2-7.7c-19.3-7.3-31.1-19.7-37.3-39.7c-4.6-14.7-8.6-23.4-10.3-39.2c-1.3-11.9-3.2-23.9-3.5-35.9
		c-0.5-16.8,1.9-33.3,6.4-49.5c3.4-10.8,12.3-15.6,23-17.7c25.1-3.5,51.4-4.2,76.7-4.1c28,1.6,56,4.3,83.5,10.2
		c19.2,4.8,32.4,14.9,32.4,35.9c0,9.1,0.1,18.8,0.2,28C257.8,104.3,257.5,108.1,257.2,111.8z M564.3,97.8c-0.4,12-2.2,23.9-3.5,35.9
		c-1.7,15.8-5.7,24.6-10.3,39.2c-6.3,20-18,32.4-37.3,39.7c-33.3,12.6-67.4,13-102.2,7.7c-14.6-3.9-29-10.8-37.9-23.6
		c-14.2-21.2-23.6-43.8-28-68h6.3c1.9,0,3.4-1.5,3.4-3.4v-10.2c0-1.9-1.5-3.4-3.4-3.4h-8.6c-0.3-3.7-0.5-7.5-0.6-11.3
		c0.1-9.2,0.2-18.9,0.2-28c0-21,13.2-31,32.4-35.9c27.5-5.9,55.5-8.6,83.5-10.2c25.3,0,51.6,0.6,76.7,4.1c10.6,2.1,19.5,6.9,23,17.7
		C562.5,64.5,564.8,81,564.3,97.8z"/>
</g>
<g id="Oval" class="st0">
	<path id="Oval_00000019644826284789281970000003701076101406540733_" class="st6" d="M300,74.8c7.7,0,15.3,0,23,0
		c4.2,0.7,9.9-1.4,16.4-5c28.2-22,67.4-34.5,120.2-35.4c38.4-0.2,75.2,8.8,109.4,33.3c8.8,5.7,17.1,9.5,24.5,11
		c1.4,0.3,2.4,1.5,2.4,2.9c0,14.2,0,28.5,0,42.7c0,1.1-0.5,2-1.5,2.6c-12.9,7.6-25.2,18.5-36.8,34c-25.2,37-63.8,54-113.6,54.4
		c-61.3,2.8-100.8-26-118.3-86.6c-3.6-14.4-11.4-23.2-25.6-23.5c-14.2,0.3-22,9.1-25.6,23.5c-17.6,60.6-57.1,89.4-118.3,86.6
		C106.2,215,67.6,198,42.4,161c-11.6-15.5-23.9-26.4-36.8-34c-0.9-0.6-1.5-1.5-1.5-2.6c0-14.2,0-28.5,0-42.7c0-1.4,1-2.7,2.4-2.9
		c7.4-1.4,15.7-5.3,24.5-11c34.2-24.5,71-33.5,109.4-33.3c52.8,0.9,92,13.4,120.2,35.4c6.5,3.7,12.2,5.8,16.4,5
		C284.7,74.8,292.3,74.8,300,74.8L300,74.8z M156,202c64.8,1.7,102.3-34.8,102.2-82.5c-0.1-35.5-44.1-65.7-112.8-65.7
		c-68.7,0-100.2,21.8-100.1,57C45.5,169.1,91.2,200.2,156,202L156,202z M17.6,89.6c-2.2,0-4,1.8-4,4c0,2.2,1.8,4,4,4s4-1.8,4-4
		C21.6,91.4,19.8,89.6,17.6,89.6L17.6,89.6z M17.6,114.2c-2.2,0-4,1.8-4,4s1.8,4,4,4s4-1.8,4-4S19.8,114.2,17.6,114.2L17.6,114.2z
		 M444,202c-64.8,1.7-102.3-34.8-102.2-82.5c0.1-35.5,44.1-65.7,112.8-65.7c68.7,0,100.2,21.8,100.1,57
		C554.5,169.1,508.8,200.2,444,202L444,202z M582.4,89.6c2.2,0,4,1.8,4,4c0,2.2-1.8,4-4,4c-2.2,0-4-1.8-4-4
		C578.4,91.4,580.2,89.6,582.4,89.6L582.4,89.6z M582.4,114.2c2.2,0,4,1.8,4,4s-1.8,4-4,4c-2.2,0-4-1.8-4-4S580.2,114.2,582.4,114.2
		z"/>
</g>
<g id="Shield" class="st0">
	<path id="Shield_00000036229609025682272860000008000650438419325622_" class="st6" d="M393.1,14.9c-30.7-2.8-62.7-4.3-93.1-4.7
		c-30.4,0.4-62.4,2-93.1,4.7c-6-3.9-12.2-7.2-18.2-11.1c-37.1,5.5-73,11.8-111.8,23c-28.2,9.2-55,24.5-70.3,41.4
		c-1,15.2-2.9,27.3,3.6,43.8c0.3,0.2,1,0.3,1.8,0.3c-3.7,10.2-7,28.3-4.7,35c2.9,10.8,5.9,21.6,8.8,32.5c2.2,8.1,8.7,13.2,17.8,14.9
		c25.8,5.5,50.8,13.6,74.3,24.5c19.5,9,39.7,16.7,60.3,23.4c24.3,7.8,50.1,3.3,62.3-18.1c2.1-3.6,4-8.3,5.9-12.2
		c0.3-0.5,0.3-1.1,0.3-1.6c2.6-0.6,4.7-2,6.2-4.3l24.1-49.9c2.7-7.5,8.5-11.6,17.7-12H300h15.1c9.2,0.4,15,4.5,17.7,12l24.1,49.9
		c1.5,2.3,3.5,3.7,6.2,4.3c-0.1,0.5,0,1.1,0.3,1.6c1.8,3.8,3.8,8.5,5.9,12.2c12.2,21.4,38,25.9,62.3,18.1
		c20.6-6.7,40.9-14.4,60.3-23.4c23.5-10.9,48.5-19,74.3-24.5c9.1-1.6,15.6-6.8,17.8-14.9c2.9-10.8,5.9-21.6,8.8-32.5
		c2.3-6.8-1-24.8-4.7-35c0.8,0,1.4-0.1,1.8-0.3c6.5-16.4,4.6-28.6,3.6-43.8c-15.3-17-42.1-32.2-70.3-41.4
		c-38.9-11.2-74.7-17.5-111.8-23C405.3,7.7,399.1,11,393.1,14.9L393.1,14.9z M300,27.5c31.8,1.5,63.2,2.6,95.1,4.2
		c9.5-6.1,19.5-10.8,29-16.9c30.2,6.1,60.4,12.1,90.7,18.2c4.7,4.8,9.4,9.6,14.1,14.3c13.9,6.6,27.9,13.2,41.8,19.8l8,40.9
		c-0.1,0.7,0,1.4,0.4,2.1c4.1,6.6,8.5,28.4,6.5,35.7c-2.9,10.8-5.9,21.7-8.8,32.5c-1.8,6.1-5.5,8.5-12.2,10
		c-26.4,5.7-52,13.9-76.1,25.1c-19.1,8.9-39,16.4-59.3,23c-21.9,5.7-41.8,4.9-53.1-14.7l-5.4-11.2l7.3-1.2l-39-81.2
		c-4.5-8.5-12.6-11.9-23-12.1h-16h-16c-10.4,0.2-18.5,3.6-23,12.1l-39,81.2l7.3,1.2l-5.4,11.2c-11.3,19.6-31.2,20.4-53.1,14.7
		c-20.3-6.6-40.2-14.2-59.3-23c-24.1-11.2-49.7-19.4-76.1-25.1c-6.7-1.4-10.4-3.9-12.2-10c-2.9-10.8-5.9-21.7-8.8-32.5
		c-2-7.3,2.4-29.1,6.5-35.7c0.4-0.7,0.5-1.4,0.4-2.1l8-40.9c13.9-6.6,27.9-13.2,41.8-19.8c4.7-4.8,9.4-9.6,14.1-14.3
		c30.2-6.1,60.4-12.1,90.7-18.2c9.5,6.1,19.5,10.8,29,16.9C236.8,30.1,268.2,29,300,27.5z"/>
</g>
<g id="Wrap" class="st0">
	<g id="Wrap_00000068651980838433749030000008474720505105330086_" class="st1">
		<path class="st7" d="M587.3,46.1c-23.1-11.7-80-18.6-131.8-14.2c-50.6,4.9-78.7,16.6-155.5,16.9c-76.8-0.3-104.9-12-155.5-16.9
			C92.7,27.5,35.8,34.4,12.7,46.1C6.1,50,1.8,56.1,3.8,66.8c6,32.3,18.6,63.5,31.5,93.9c9.9,23.3,27.1,35.3,43.5,38.8
			c24.2,6.7,47.5,14.4,74.9,18.2c36.8,5.1,56.4-0.2,69.5-24.4c1.3-2.2,2.6-4.3,3.9-6.5l0,0c1.8-0.1,3.7-0.9,5.4-2.7
			c16.2-18.7,29.3-42.3,40.8-68.5c1.3-3.5,2-7,0-10.8c-0.7-1.1-1.4-2.1-2.2-3.2l-0.1,0.1c0.3-0.7,0.6-1.4,0.9-2.2
			c5.5-13.6,9.1-16.4,21.5-17.1c2.1,0,4.2,0,6.4,0l0,0c0.1,0,0.1,0,0.2,0c0.1,0,0.1,0,0.2,0l0,0c2.1,0,4.2,0,6.4,0
			c12.4,0.7,16,3.5,21.5,17.1c0.3,0.7,0.6,1.4,0.9,2.2l-0.1-0.1c-0.7,1.1-1.4,2.1-2.2,3.2c-2,3.8-1.3,7.3,0,10.8
			c11.5,26.1,24.6,49.8,40.8,68.5c1.8,1.8,3.6,2.7,5.4,2.7l0,0c1.3,2.2,2.6,4.3,3.9,6.5c13.1,24.2,32.7,29.5,69.5,24.4
			c27.4-3.8,50.7-11.5,74.9-18.2c16.4-3.5,33.6-15.4,43.5-38.8c13-30.4,25.6-61.6,31.5-93.9C598.2,56.1,593.9,50,587.3,46.1z
			 M12,74.9c-3.6,0-6.4-2.7-6.4-6.1c0-3.4,2.9-6.1,6.4-6.1c3.6,0,6.4,2.7,6.4,6.1C18.4,72.2,15.5,74.9,12,74.9z M253.9,103.9
			c-7.9,29-20.7,55.5-38.6,79.7c-8,10.8-20,18.2-43.2,16.2c-25.8-2.3-51.8-5.3-77.9-11.5c-19.1-4.5-29.9-13.6-36.2-24.9
			C46.3,142.1,38.6,117,40.4,86.9c1.3-23,18.2-36.3,43.6-40.5c45.4-7.5,90.4-3.1,134.2,6.6C251.2,60.3,260.5,79.5,253.9,103.9z
			 M542.1,163.3c-6.2,11.3-17.1,20.4-36.2,24.9c-26.1,6.2-52.1,9.2-77.9,11.5c-23.2,2.1-35.2-5.4-43.2-16.2
			c-17.9-24.2-30.8-50.8-38.6-79.7c-6.6-24.3,2.6-43.6,35.7-50.9c43.8-9.7,88.8-14.1,134.2-6.6c25.4,4.2,42.3,17.5,43.6,40.5
			C561.4,117,553.7,142.1,542.1,163.3z M588,74.9c-3.6,0-6.4-2.7-6.4-6.1c0-3.4,2.9-6.1,6.4-6.1c3.6,0,6.4,2.7,6.4,6.1
			C594.5,72.2,591.6,74.9,588,74.9z"/>
		<path class="st7" d="M12,66.2c-1.6,0-2.8,1.2-2.8,2.7c0,1.5,1.3,2.7,2.8,2.7c1.6,0,2.8-1.2,2.8-2.7C14.8,67.3,13.5,66.2,12,66.2z"
			/>
		<path class="st7" d="M588,66.2c1.6,0,2.8,1.2,2.8,2.7c0,1.5-1.3,2.7-2.8,2.7c-1.6,0-2.8-1.2-2.8-2.7
			C585.2,67.3,586.5,66.2,588,66.2z"/>
		<path class="st8" d="M437.8,219.4c24.3-4.6,48.2-11.5,71.4-19.3c24.1-8.8,38.5-21.6,46.9-44.7c8.2-18.8,9.5-37,12.2-56.2
			c3.2-23.3-4.3-37.9-19.1-47.9c-8.5-5.7-18.5-9.1-28.9-10.2c-34.5-3.8-59.1-3.7-97.9,1.5c-38.5,4.8-87.3,10.1-122.5,9.8"/>
		<path class="st8" d="M300.2,52.4c-35.2,0.6-84-5-122.5-9.8c-38.9-5.2-63.4-5.4-97.9-1.5c-10.4,1.1-20.4,4.5-28.9,10.2
			C36,61.4,28.5,75.9,31.7,99.2c2.6,19.2,4,37.4,12.2,56.2c8.4,23.1,22.8,35.9,46.9,44.7c23.2,7.8,47.1,14.7,71.4,19.3"/>
	</g>
</g>
<g id="RoundEye" class="st0">
	<path id="RoundEye_00000170264355298085363780000008778739283102222498_" class="st6" d="M596.4,125.4c0-3.7-2.9-4.9-5.1-5.3
		c-8.9-1.4-22.9-1.1-24.4-11.2C558.7,49.6,508.6,5.5,448.6,5.5c-47.2,0-90.1,27.8-109.2,71c-3.2,6.9-8.6,6.9-13.2,5.7
		c-8.7-2.4-17.4-4.2-26.1-4.3c-8.7,0.1-17.4,1.9-26.1,4.3c-4.6,1.3-10,1.3-13.2-5.7c-19.1-43.2-62-71-109.2-71
		C91.4,5.5,41.3,49.6,33,108.9c-1.5,10.2-15.4,9.8-24.4,11.2c-2.1,0.3-5.1,1.6-5.1,5.3l0,23.8c0,1.8,1.5,3.3,3.3,3.3h21
		c3.9,0,7.7,2.8,9.5,8.3c16.2,49.8,61.4,83.8,114.1,83.8c70.9,0,119.5-54.3,119.5-119.5c0-5.6,0-9.7,0-12.6
		c0-11.4,14.4-16.1,29.1-16.1c14.7,0,29.1,4.7,29.1,16.1c0,2.9,0,6.9,0,12.6c0,65.2,48.6,119.5,119.5,119.5
		c52.7,0,97.9-34,114.1-83.8c1.8-5.5,5.6-8.3,9.5-8.3h21c1.8,0,3.3-1.5,3.3-3.3L596.4,125.4z M151.4,228.2
		c-57,0-103.2-46.2-103.2-103.2c0-57,46.2-103.2,103.2-103.2c57,0,103.2,46.2,103.2,103.2C254.6,182,208.4,228.2,151.4,228.2z
		 M448.6,228.2c-57,0-103.2-46.2-103.2-103.2c0-57,46.2-103.2,103.2-103.2c57,0,103.2,46.2,103.2,103.2
		C551.8,182,505.6,228.2,448.6,228.2z"/>
</g>
<g id="Wayfarer" class="st0">
	<path id="Wayfarer_00000057127227811777299170000016236946399272734143_" class="st6" d="M466.9,30.6c-33.9,0.5-72.6,7.1-123.7,21
		c-13.5,4.7-28.8,6.2-43.2,7.1c-14.4-1-29.8-2.4-43.2-7.1c-51-13.9-89.7-20.5-123.7-21c-44-0.7-87.6,0.6-129.1,7.6
		c1.5,13.1,3,26.1,4.5,39.2c10.6,2,17.9,14.2,22.8,34c2.5,12.1,4.9,24.2,7.4,36.3c9.4,54.4,41.8,69.5,103,71.8
		c68.6,0.4,107.8-33.1,126.3-90.7c2.5-7.7,13.5-31.7,17.6-35.2c4.2-3.6,12.9-3.2,14.5-3.2c1.6,0.1,10.3-0.4,14.5,3.2
		c4.2,3.6,15.1,27.5,17.6,35.2c18.4,57.6,57.7,91.1,126.3,90.7c61.2-2.3,93.6-17.4,103-71.8c2.5-12.1,4.9-24.2,7.4-36.3
		c4.9-19.7,12.2-32,22.8-34c1.5-13.1,3-26.1,4.5-39.2C554.5,31.2,510.9,29.9,466.9,30.6z M251.3,106.6c-3.7,19.6-8,39.6-19.5,58.4
		c-16.2,26.8-44.4,41.8-87.2,44.5c-59.2-0.1-81.6-20.4-91-69.6c-1.9-11.6-2.7-23.3-4.6-34.9c-5.9-32.1,13-55.4,41.7-58.7
		c20.9,0,41.7-0.3,62.6,0c24.3,0.4,46.6,4.6,67.6,11.4C248.7,66,256.8,77.7,251.3,106.6z M553.1,105c-1.9,11.6-2.7,23.3-4.6,34.9
		c-9.4,49.2-31.7,69.5-91,69.6c-42.8-2.7-71-17.7-87.2-44.5c-11.5-18.8-15.7-38.8-19.5-58.4c-5.5-28.9,2.6-40.6,30.4-48.9
		c21-6.8,43.3-11,67.6-11.4c20.9-0.3,41.7,0,62.6,0C540,49.6,558.9,72.9,553.1,105z"/>
</g>
<g id="Pantos" class="st0">
	<path id="Pantos_00000103983239684759077920000010104321227605905843_" class="st6" d="M593.1,52.9c0-2.8-0.6-5-3.4-5.1
		c-22.1-5.1-40.2-8.6-61.6-18c-23.5-8.3-49.3-10.9-77.3-10.5C399.8,21.8,364,41,337.5,69.2c-3.1,2.5-6.9,2.1-11.2-0.2
		c-9-3-17.8-4.2-26.3-4.1c-8.5-0.1-17.3,1-26.3,4.1c-4.3,2.3-8.1,2.8-11.2,0.2C236,41,200.2,21.8,149.3,19.3
		c-28-0.5-53.9,2.2-77.3,10.5c-21.4,9.4-39.5,12.9-61.6,18c-2.8,0.1-3.4,2.3-3.4,5.1c-1.5-0.1-2.8,0.2-3,2.4c0,1.4,0,2.8,0,4.3
		c0,2.9,1.7,2.6,3,2.8c0.7,3,2.1,5,4.9,5.2c8.7,0.9,13.7,5.6,14.2,14.6c2,34.3,9.7,64,23.3,89.2c20.6,37.7,54.6,58.6,105.1,59.3
		c56.8-1.1,93.4-31.8,110.6-91.2c2.4-9.2,4.8-28.4,5.5-36.4c0.7-8,3.2-12.8,5.8-15.4c2.6-2.6,14.8-2.8,16.1-2.8c1.2,0,4.6,0,7.1,0
		c0.2,0,0.4,0,0.6,0c2.6,0,5.9,0,7.1,0c1.3,0,13.5,0.2,16.1,2.8c2.6,2.6,5.1,7.4,5.8,15.4c0.7,8,3.1,27.1,5.5,36.4
		c17.2,59.4,53.9,90.1,110.6,91.2c50.4-0.7,84.5-21.7,105.1-59.3c13.6-25.2,21.4-55,23.3-89.2c0.6-9,5.6-13.7,14.2-14.6
		c2.8-0.2,4.2-2.2,4.9-5.2c1.4-0.2,3,0.1,3-2.8c0-1.4,0-2.8,0-4.3C595.9,53.1,594.6,52.8,593.1,52.9z M262.2,120.3
		c-9.6,67.4-49.1,102.4-119.6,103.7c-53.5-7.1-87.2-39.4-99.2-99.7C28.7,57.8,65.8,25,155,26C231.3,35.5,267.5,66.7,262.2,120.3z
		 M556.7,124.3c-12,60.3-45.7,92.6-99.2,99.7c-70.6-1.3-110-36.3-119.6-103.7C332.5,66.7,368.7,35.5,445,26
		C534.2,25,571.3,57.8,556.7,124.3z"/>
</g>
<g id="ClubMaster" class="st0">
	<path id="ClubMaster_00000146459563109828548740000017483802183691424394_" class="st6" d="M596.3,46.2c0-1.8-3.4-1.6-5.7-1.8
		c-2.3-0.3-30.1-7.8-56.4-10.6c-26.4-2.8-51.2-8.5-92.9-6.8c-41.7,1.7-90.8,9.1-101,18.4c-9.6,8.7-8.7,6.1-8.3,8.1
		c0.2,0.9-0.3,0.9,0.1,4.3l0,0l-5.5-0.3c0,0-2.5-2.6-8.3-4.1c-5.8-1.6-11.3-1.9-13.2-1.9c-1.8,0-4.7-0.3-5.1-0.3v0c0,0,0,0,0,0
		c0,0,0,0,0,0v0c-0.4,0-3.3,0.3-5.1,0.3c-1.9,0-7.4,0.4-13.2,1.9c-5.8,1.6-8.3,4.1-8.3,4.1l-5.5,0.3l0,0c0.4-3.5,0-3.4,0.1-4.3
		c0.4-2.1,1.3,0.6-8.3-8.1c-10.2-9.3-59.3-16.6-101-18.4c-41.7-1.7-66.5,4-92.9,6.8C39.5,36.5,11.7,44,9.4,44.3
		c-2.3,0.3-5.7,0-5.7,1.8c0,1.8,0,4.8,0,4.8l0.3,17.2c0,0-0.7,4.3,0,6c0.7,1.7,2.4,0.9,4.4,0.9s9.4,2.4,11.6,4.3
		c2.3,1.8,6.7,8.1,7.9,9.9c1.3,1.8,6.4,11.5,7.2,13c0.9,1.6,3.4,1.6,3.4,1.6c1.3,23,2.9,35.9,9.7,59.3c7.5,25.7,21.6,42.5,37.2,50.8
		c15.5,8.3,35.2,9.4,51.9,9.6c16.7,0.3,38.7-2.7,52.2-7.9c13.5-5.2,30.5-18.3,40.1-30.9c9.6-12.6,17.6-28.1,22.9-43.4
		c5.3-15.3,7.7-45.7,6.4-55.3c4.5,1.6,3.2,1.7,6,0c2.8-1.7,2.6-4,4.5-8.2c2-4.3,2.8-2,6-5.1c3.1-3.1,11.3-4.5,11.3-4.5H300h0.1h13.1
		c0,0,8.2,1.4,11.3,4.5c3.1,3.1,4,0.9,6,5.1c2,4.3,1.7,6.5,4.5,8.2c2.8,1.7,1.6,1.6,6,0c-1.3,9.6,1.2,40,6.4,55.3
		c5.3,15.3,13.3,30.8,22.9,43.4c9.6,12.6,26.6,25.7,40.1,30.9c13.5,5.2,35.5,8.2,52.2,7.9c16.7-0.3,36.4-1.3,51.9-9.6
		c15.5-8.3,29.7-25.1,37.2-50.8c6.8-23.3,8.4-36.3,9.7-59.3c0,0,2.5,0,3.4-1.6c0.9-1.6,6-11.2,7.2-13c1.3-1.8,5.7-8.1,7.9-9.9
		c2.3-1.8,9.6-4.3,11.6-4.3s3.7,0.9,4.4-0.9c0.7-1.7,0-6,0-6l0.3-17.2C596.3,51,596.3,48,596.3,46.2z M248.8,135.3
		c-4.5,15.9-16.9,37-21.7,45c-4.8,7.9-20.6,22.4-43.1,30.3c-22.5,7.9-44.8,6.2-68.2,3.1c-23.4-3.1-36.5-12-48.5-29.5
		c-12.1-17.4-18.2-51-19-57.7c-0.9-6.7-0.9-32.6,1.4-42.8c2.3-10.2,8.1-19.1,15.9-27c7.8-7.9,19.6-9.9,36.9-13
		c17.3-3.1,51.4-2.6,51.4-2.6s10.4,0,36.9,1.8c26.5,1.9,41.3,12.1,44.1,13.7c2.8,1.7,16.3,12,17.2,31.7
		C252.7,108,253.3,119.3,248.8,135.3z M551.8,126.5c-0.9,6.7-6.9,40.3-19,57.7c-12.1,17.4-25.1,26.3-48.5,29.5
		c-23.4,3.1-45.7,4.8-68.2-3.1c-22.6-7.9-38.3-22.4-43.1-30.3c-4.8-7.9-17.2-29-21.7-45c-4.5-15.9-4-27.2-3.1-46.9
		c0.9-19.7,14.3-30,17.2-31.7c2.8-1.7,17.6-11.9,44.1-13.7c26.5-1.9,36.9-1.8,36.9-1.8s34.1-0.6,51.4,2.6c17.3,3.1,29.1,5.1,36.9,13
		c7.8,7.9,13.6,16.8,15.9,27C552.7,93.9,552.7,119.8,551.8,126.5z"/>
</g>
<g id="CatEye" class="st0">
	<path id="CatEye_00000093898416387524471460000015019887145084674194_" class="st6" d="M23,120.6C12.3,94.2,3.9,66.7,3.1,36.4
		c60.6-27.8,123.6-24.9,192,1c23.6,8.9,48,19.5,70.1,33.4c30.3,16.1,51.5,12.3,68.8,0c22.7-13.5,44.9-24.1,68.2-34.4
		c81.6-26.6,146.2-26.1,194.6,0c-0.1,42.3-12.3,75.4-29.1,105c-19.4,33.9-46.8,62.4-88.4,81.3c-33.8,14.6-62.3,12.7-89.7-0.4
		c-25.3-12.8-52.2-53.5-64.4-83.4c-6.8-19-14.3-21.9-25.3-23.1c-12.2-0.3-19.5,8.4-25.4,24.1c-13.7,32.7-33.5,61.1-60.4,81.4
		c-39.3,18.6-77.5,16.5-116.9-9.5C63.4,187,39.5,156.3,23,120.6L23,120.6z M163.3,59.7c0,0,40.9,5.6,55.2,11.9
		c14.2,6.2,31.7,11.9,39.2,26.7c7.4,14.8,1.2,42.6,0,46.3c-1.7,5.1-14.5,32.3-21.4,40c-6.8,7.7-20.5,23.4-40,30.5
		c-19.6,7.1-32,5.9-59.9,0c-27.9-5.9-51.9-34.4-51.9-34.4s-20.8-34.5-25.2-51.6c-4.4-17.2-7.7-34.7-3.9-48.9
		C59.2,65.9,112,59.7,112,59.7C130,58.2,147.1,58.3,163.3,59.7L163.3,59.7z M436.6,59.7c0,0-40.9,5.6-55.2,11.9
		c-14.2,6.2-31.7,11.9-39.2,26.7c-7.4,14.8-1.2,42.6,0,46.3c1.7,5.1,14.5,32.3,21.4,40c6.8,7.7,20.5,23.4,40,30.5
		c19.6,7.1,32,5.9,59.9,0c27.9-5.9,51.9-34.4,51.9-34.4s20.8-34.5,25.2-51.6c4.4-17.2,7.7-34.7,3.9-48.9
		c-3.9-14.2-56.6-20.5-56.6-20.5C469.9,58.2,452.9,58.3,436.6,59.7z"/>
</g>
<g id="Aviator" class="st0">
	<path id="Aviator_00000039123107179851734690000012757614288448972681_" class="st6" d="M594.7,101.9c-1.5-3.2-13.5-0.3-17.6-1.4
		c0.1-3.6-0.8-13.5-1-15.5c-5.6-45.2-38.9-62.1-86.3-65.2c-43.4-4.7-86.1,5.9-104.5,4.7c-46.4-0.1-124.4-0.1-170.6,0
		c-18.4,1.2-61.1-9.4-104.5-4.7c-47.4,3.1-80.7,20-86.3,65.2c-0.2,1.9-1.1,11.9-1,15.5c-4.1,1.1-16.1-1.8-17.6,1.4
		c-1.8,4.9-1.4,8.1-0.9,10.7c6.7,2.4,11.1,3,16.1,3.2c-0.2,1.5,0.8,2.3,1.8,2.5c0.7,10,1.6,20.1,3.6,29.9c1.6,8,3.9,15.7,7.4,23.2
		c4.3,9.2,10.1,17.3,16.7,25c7.8,9.2,17.2,17.1,27.7,23.1c12.8,7.3,26.8,11.3,41.6,11.9c11.4,0.5,22.8-1.7,33.6-5.5
		c11.3-4,22-9.7,31.9-16.2c13.4-8.8,25.9-19.3,37.1-30.7c4.9-5,9.5-10.2,13.9-15.6c3.5-4.4,6.9-9,9.8-13.8c0,0,0,0,0,0l3-5.1
		c0.1-0.1,0.1-0.2,0.1-0.4c1.9,0.3,4.7,0.5,8.5,0.9c-2,4.1-4.1,7-4.1,7c0,0.2,0,0.4-0.1,0.6c-0.3,5.6-0.4,8.1-0.4,9.2
		c0,0.6,0.1,1.2,0.3,1.7c0.7,1.7,1.5,2.6,1.5,2.6c1.4,1.5,5.7-4.2,6.8-5.7c0.2-0.2,0.3-0.5,0.5-0.7c6.3-11.6,10.7-22.9,11.5-25
		c0.1-0.2,0.2-0.5,0.2-0.7c0.2-0.7,0.3-1.3,0.4-1.9c1.3-6.5-5.1-11.2-8.7-6.4c-0.3,0.4-0.5,0.7-0.5,0.7c0.1-0.3-2.3,4.6-4.1,9.7
		c-2.2-9.8,11.1-32,10.6-54.4l0.2-2c4.8-5.5,0.7-10.2,4.2-15.8c3.8-4.9,14.2-7.5,24.5-7.6c10.3,0.1,20.7,2.7,24.5,7.6
		c3.5,5.5-0.7,10.3,4.2,15.8l0.2,2c-0.5,22.1,12.4,43.9,10.7,53.9c-1.8-4.9-4-9.5-3.9-9.2c0,0-0.2-0.3-0.5-0.7
		c-3.7-4.9-10-0.2-8.7,6.4c0.1,0.6,0.3,1.2,0.4,1.9c0.1,0.2,0.1,0.5,0.2,0.7c0.8,2.1,5.1,13.4,11.5,25c0.1,0.3,0.3,0.5,0.5,0.7
		c1.1,1.5,5.4,7.2,6.8,5.7c0,0,0.8-0.9,1.5-2.6c0.2-0.5,0.3-1.1,0.3-1.7c0-1.1-0.1-3.7-0.4-9.2c0-0.2,0-0.4-0.1-0.6
		c0,0-2.1-2.9-4.1-7c3.7-0.4,6.4-0.6,8.2-0.9c0,0.1,0.1,0.2,0.1,0.4l3,5.1c0,0,0,0,0,0c2.9,4.8,6.3,9.4,9.8,13.8
		c4.4,5.4,9,10.6,13.9,15.6c11.2,11.4,23.7,22,37.1,30.7c10,6.5,20.7,12.2,31.9,16.2c10.8,3.8,22.1,6,33.6,5.5
		c14.7-0.6,28.8-4.6,41.6-11.9c10.5-6,19.9-13.9,27.7-23.1c6.6-7.7,12.4-15.8,16.7-25c3.5-7.4,5.8-15.1,7.4-23.2
		c2-9.8,2.9-19.9,3.6-29.9c0.9-0.2,2-1,1.8-2.5c5-0.2,9.4-0.8,16.1-3.2C596.1,110,596.5,106.8,594.7,101.9z M259.5,113.2
		c-0.2,0.3-0.4,0.7-0.6,1.1c0-0.1,0.1-0.2,0.1-0.3l-8.3-1.7l-2.2,4.8c1.7,4.2,2.1,4.3,6.4,6.4c-0.3,0.6-0.5,1.1-0.6,1.5
		c-1.4,6-2.3,6.1-5.8,11.5c-2.5,3.9-3.2,5.7-2,6.7l-3,5c-2.8,4.7-6.2,9.2-9.6,13.5c-4.3,5.4-8.9,10.5-13.7,15.4
		c-11,11.3-23.4,21.7-36.6,30.4c-9.8,6.4-20.3,12-31.4,15.9c-10.5,3.7-21.5,5.9-32.6,5.4c-14.3-0.6-28-4.5-40.5-11.6
		c-10.3-5.8-19.4-13.6-27-22.5c-6.4-7.5-12.1-15.4-16.3-24.4c-3.4-7.2-5.7-14.8-7.2-22.6c-2-9.7-2.9-19.7-3.5-29.6
		c0-0.1,0-0.3-0.1-0.4c0.4-0.3,0.7-0.7,0.7-1.7c0-3.3,0.7-6.8,0.7-10.5c1.9-55.7,26-74,73.3-81.3c18.4-1.8,35.1-2.6,53.7-1.6
		c17.2,0.9,31.3,3.3,47.4,5.2c28.2,3.3,38.8,9.3,54.7,23.2C273.6,67,265.2,103.3,259.5,113.2z M318.5,55.3
		c-4.4-1.4-11.7-2.4-17.6-2.5c-0.7,0-1.5,0-2.2,0c-5.8,0.1-13.2,1.1-17.6,2.5c-11.5,3.7-7.7,8.4-12.5,10.2
		c-0.6-8.1-9.2-18.7-13.5-22.4c-8.5-7.2-13.1-7.4-18.4-11c-2.4-1.6-1.5-0.9-3.2-2.6l66.3,0.1l66.3-0.1c-1.6,1.7-0.8,1-3.2,2.6
		c-5.3,3.6-9.9,3.8-18.4,11c-4.3,3.7-13,14.3-13.5,22.4C326.2,63.7,330,59,318.5,55.3z M575.2,117.9c-0.7,9.9-1.6,19.9-3.6,29.6
		c-1.6,7.8-3.8,15.3-7.2,22.6c-4.2,9-9.9,16.9-16.3,24.4c-7.6,9-16.8,16.7-27,22.5c-12.5,7.1-26.1,11-40.5,11.6
		c-11.1,0.5-22.2-1.7-32.6-5.4c-11.1-3.9-21.6-9.5-31.4-15.9c-13.2-8.7-25.6-19.1-36.6-30.4c-4.8-4.9-9.4-10.1-13.7-15.4
		c-3.4-4.3-6.7-8.8-9.6-13.5l-3-5c1.2-1,0.5-2.8-2-6.7c-3.4-5.5-4.3-5.5-5.8-11.5c-0.2-0.4-0.4-0.8-0.6-1.4c4.1-2,4.5-2.2,6.2-6.3
		l-2.2-4.8l-8.2,1.6c-0.2-0.4-0.4-0.7-0.5-1c-5.7-9.9-14.1-46.1,4.2-62.2c15.9-13.9,26.5-19.8,54.7-23.2c16.1-1.9,30.2-4.3,47.4-5.2
		c18.6-1,35.3-0.2,53.7,1.6c47.3,7.3,71.5,25.6,73.3,81.3c-0.1,3.6,0.6,7.2,0.7,10.5c0.1,1,0.4,1.5,0.7,1.7
		C575.3,117.6,575.2,117.8,575.2,117.9z"/>
</g>
<g id="Bike" class="st0">
	<g id="Bike_00000060748017699091279280000002381587398759153312_" class="st1">
		<path class="st7" d="M593.6,49.9c-1.6-12.6-4.7-21.1-10.6-27.5c-5.9-6.4-14.7-10.5-30.3-11.8c-15.6-1.3-37.9,0.3-49.2,3.3
			c-11.4,3-11.8,7.4-10.2,12.5c1.6,5.1,5.1,10.9,17.5,11.2c12.4,0.3,33.6-4.8,46.4-2.7c12.8,2.1,17.1,11.4,15,18.3
			c-2.1,6.9-10.7,11.3-27.7,16.3c-17,5-42.5,10.5-71.5,15.6c-29,5.1-61.5,9.8-86.9,14.2c-25.4,4.5-43.6,8.8-55,13.9
			c-11.4,5.1-16,11.1-21.6,14.1c-5.6,3-12.1,2.9-17.1,1.1c-5-1.8-8.3-5.4-14.2-9.2c-5.9-3.8-14.4-7.7-24.7-11.1
			c-10.3-3.4-22.3-6.3-39.8-9.4c-17.4-3.1-40.2-6.4-66.7-11c-26.4-4.5-56.5-10.2-76.7-14.7C50,68.7,39.6,65.4,34,62.1
			c-5.6-3.3-6.3-6.7-6.4-9.3c-0.1-2.6,0.4-4.6,2.1-7.1c1.7-2.6,4.7-5.8,8.4-7.9c3.7-2.1,8.1-3.2,17.8-2.9c9.7,0.3,24.8,2,33.5,2.1
			c8.8,0.1,11.3-1.3,13.4-4.1c2.1-2.8,3.8-7,3.8-10.4c0-3.4-1.7-6-12.7-7.8c-11-1.8-31.3-2.7-45-2c-13.7,0.8-20.7,3.3-26.9,8.9
			c-6.1,5.6-11.4,14.3-14.4,27.3C4.8,61.8,4.1,79,5,95.3c0.9,16.3,3.4,31.7,6.3,43.8c2.9,12.1,6.2,21,13.7,31.5
			c7.6,10.4,19.4,22.4,33.2,32.4c13.8,10.1,29.6,18.2,44.4,23.7c14.7,5.5,28.4,8.2,44.1,10.4c15.7,2.1,33.5,3.6,47.9,2.3
			c14.4-1.3,25.3-5.3,34.4-10.7c9.1-5.5,16.3-12.4,22.4-20.3c6.1-7.9,11-16.7,15.6-25c4.5-8.3,8.6-16.1,12.8-21.5
			c4.2-5.5,8.6-8.6,13.2-10.2c4.7-1.6,9.7-1.5,14-0.2c4.4,1.3,8.2,4,11.9,8.3c3.7,4.3,7.4,10.1,13.1,19.4
			c5.7,9.3,13.3,22.1,23.9,32.4c10.6,10.3,24.1,18.2,39.7,22.3c15.6,4.1,33.4,4.3,51.3,3.1c17.9-1.2,35.9-3.7,53.7-10.5
			c17.8-6.8,35.3-17.8,51-31.4c15.7-13.6,29.5-29.8,36.4-46.8c7-17,7.2-34.7,7.2-51.9C595.4,79.1,595.2,62.5,593.6,49.9z
			 M250.2,178.8c-2,5.5-4.9,11.6-8.3,17.6c-3.4,6-7.3,12-11.4,16.4c-4.1,4.4-8.2,7.1-15,9.7c-6.7,2.6-16.1,5-26.7,6.3
			c-10.6,1.4-22.6,1.7-34.4,0.5c-11.8-1.2-23.5-3.9-35.6-7.7c-12.1-3.8-24.5-8.5-35.3-15.1c-10.8-6.6-20-14.9-27.6-24.5
			c-7.6-9.6-13.5-20.3-16.5-30.1c-3-9.9-3-18.8-3-25.1c0-6.3,0-10,0.3-12.9c0.3-2.9,0.9-4.9,1.9-6.7c1-1.8,2.3-3.3,4.8-4.1
			c2.6-0.8,6.4-0.8,22,1.5c15.6,2.3,43.1,6.8,66.6,11c23.5,4.2,43.1,8.2,58.6,11.9c15.5,3.7,27,7.2,36,10.9
			c9,3.8,15.6,7.8,19.8,12.1c4.2,4.2,6.1,8.7,6.5,13.3C253.5,168.4,252.3,173.3,250.2,178.8z M566.2,126.7c0,6.3-0.1,15.3-3,25.1
			c-3,9.8-8.9,20.6-16.5,30.1c-7.6,9.6-16.8,17.9-27.6,24.5c-10.8,6.6-23.2,11.3-35.3,15.1c-12.1,3.8-23.8,6.5-35.6,7.7
			c-11.8,1.2-23.8,0.8-34.4-0.5c-10.6-1.4-19.9-3.8-26.7-6.3c-6.7-2.6-10.9-5.3-15-9.7c-4.1-4.4-8-10.3-11.4-16.4
			c-3.4-6-6.3-12.1-8.3-17.6c-2-5.5-3.2-10.4-2.9-15c0.4-4.7,2.3-9.1,6.5-13.3c4.2-4.2,10.8-8.3,19.8-12.1c9-3.8,20.5-7.2,36-10.9
			c15.5-3.7,35.1-7.6,58.6-11.9c23.5-4.2,51-8.8,66.6-11c15.6-2.3,19.5-2.3,22-1.5c2.6,0.8,3.9,2.3,4.8,4.1c1,1.8,1.6,3.8,1.9,6.7
			C566.2,116.7,566.2,120.4,566.2,126.7z"/>
		<g>
			<path class="st9" d="M10.8,57.6c0.8,3.1,1.7,6.3,3.5,9c1.8,2.7,4.4,4.7,7.1,6.5c5.5,3.4,11.4,6,17.5,8.3
				c12.1,4.5,24.7,7.4,37.3,10.2c37.8,8.6,76,14.7,114.2,21.6c6.4,1.2,12.7,2.5,19,3.5c6.4,1.1,12.8,1.8,19.1,3.3
				c6.3,1.5,12.5,3.1,18.8,4.9c6.3,1.6,12.2,4.2,18.1,6.8c3,1.2,6.1,2.2,9,3.5c3,1.3,5.6,3.2,8.6,4.5c2.9,1.3,6,2.4,9.1,3.2
				c9.5,2.7,19.3,0,27.9-4.2c5.8-2.8,11.5-5.9,17.5-8.3c6-2.4,12.1-4.5,18.4-6.2c6.2-1.7,12.6-3,19-4c12.8-1.8,25.5-3.8,38.3-5.7
				c38.6-5,76.5-11.2,114.5-19.6c18.9-3.9,38.1-8.9,53.9-20.4c5.5-4,9.5-8.6,8.9-16c0.5,7.4-3.1,12-8.8,16.2
				c-15.8,11.6-35,16.8-53.8,20.8c-38,8.4-75.9,14.5-114.5,19.6c-12.8,1.9-25.5,3.9-38.3,5.7c-6.4,1-12.7,2.3-18.9,4
				c-6.2,1.7-12.3,3.8-18.3,6.2c-6,2.4-11.6,5.5-17.5,8.3c-8.6,4.3-18.7,7-28.3,4.3c-3.2-0.8-6.2-1.9-9.2-3.2
				c-3-1.3-5.6-3.2-8.6-4.5c-2.9-1.3-6-2.3-9-3.5c-5.9-2.6-11.8-5.2-18.1-6.8c-6.2-1.8-12.5-3.3-18.7-4.8
				c-6.3-1.5-12.7-2.2-19.1-3.3c-6.4-1-12.7-2.3-19.1-3.5c-38.1-6.9-76.4-13-114.2-21.6c-12.6-2.9-25.2-5.9-37.3-10.5
				c-6-2.3-12-4.9-17.4-8.4c-2.7-1.8-5.3-3.8-7.1-6.5C12.5,63.9,11.6,60.7,10.8,57.6L10.8,57.6z"/>
		</g>
		<g>
			<path class="st9" d="M581.4,67.8c4.7-5.4,6-13,5-19.8c-1.2-7-6.4-12.6-12-16.7c-1.9-1.4-3.9-2.6-6-3.7c-2-1.1-4.1-2.5-6.5-2.5
				c1.2-0.1,2.4,0.2,3.5,0.6c3.4,1.2,6.4,3.1,9.4,5.1c5.7,4.1,11,9.9,12.2,17C588,54.9,586.8,62.9,581.4,67.8L581.4,67.8z"/>
		</g>
		<g>
			<path class="st9" d="M18.6,67.5c-5.9-6.1-7.1-15-3.1-22.4c3.6-7.2,9.7-13.2,17.4-15.9c2.5-1,5.1-1.7,7.7-2.2
				c2.7-0.4,5.3-0.3,8-0.3c-5.3,0.3-10.6,1.1-15.5,3.1c-5,1.8-9.5,4.8-12.7,9c-3.3,4.1-6.1,8.9-6.6,14.1
				C13.3,58.1,15.4,63.4,18.6,67.5L18.6,67.5z"/>
		</g>
		<g>
			<path class="st9" d="M559.8,103c12.8,3.5,12.8,17,11.8,27.9c-0.8,11.1-3.5,22-8,32.2c-4.4,10.1-9.6,20.2-17.7,27.9
				c-2.7,2.6-5.6,4.9-8.5,7.1c-5.9,4.4-11.8,8.9-18.2,12.7c-12.7,7.6-26.9,12.3-41.1,16.2c14-4.4,28.1-9.2,40.8-16.7
				c6.3-3.7,12.2-8.2,18.1-12.6c2.9-2.2,5.8-4.5,8.5-7c8-7.6,13.2-17.7,17.6-27.8c4.4-10.1,7.1-21,7.9-32
				C572,120.2,572.4,106.6,559.8,103L559.8,103z"/>
		</g>
		<g>
			<path class="st9" d="M44.1,103.4c-12.5,3.7-12.2,17.2-11.2,27.9c0.8,11,3.5,21.8,7.9,32c4.4,10.1,9.5,20.1,17.6,27.8
				c2.7,2.5,5.5,4.8,8.5,7c5.9,4.4,11.8,8.9,18.1,12.6c12.7,7.5,26.8,12.3,40.8,16.7c-14.2-3.9-28.4-8.6-41.1-16.2
				c-6.4-3.8-12.3-8.3-18.2-12.7c-2.9-2.2-5.9-4.5-8.5-7.1c-8.1-7.7-13.3-17.8-17.7-27.9c-4.4-10.2-7.2-21.1-8-32.2
				C31.3,120.5,31.3,106.9,44.1,103.4L44.1,103.4z"/>
		</g>
	</g>
</g>
</svg>
