<?xml version="1.0" encoding="utf-8"?>
<!-- Generator: Adobe Illustrator 27.4.1, SVG Export Plug-In . SVG Version: 6.00 Build 0)  -->
<svg version="1.1" id="Capa_1" xmlns="http://www.w3.org/2000/svg" xmlns:xlink="http://www.w3.org/1999/xlink" x="0px" y="0px"
	 viewBox="0 0 768 540" style="enable-background:new 0 0 768 540;" xml:space="preserve">
<style type="text/css">
	.st0{fill:#383838;}
</style>
<g id="_x2018_ëîé_x5F_2">
</g>
<g id="_x2018_ëîé_x5F_1">
	<path class="st0" d="M687.5,225.3l-1.9-0.7c-9.1-0.6-14.6-11.5-14.6-11.5l-4.1-5.8c-6-8.5-25-10.7-25-10.7
		c-29.8-5-82.7-5.4-82.7-5.4c-40.7-1.8-120.4,10.1-120.4,10.1c-17.3,3.8-53.5,4.6-55.7,4.7c-2.1,0-38.1-0.9-55.3-4.7
		c0,0-79.2-11.9-119.7-10.1c0,0-52.7,0.4-82.3,5.4c0,0-18.9,2.2-24.8,10.7l-4,5.8c0,0-5.5,10.9-14.6,11.5l-1.9,0.7
		c0,0-1.2,1.3-1.1,2.4l0.7,30.1c0,0,0.3,2.5,1.7,2.3h5.4c0,0,5.4-1.2,7.6,8.6c0,0,7.6,36.1,15.8,51c0,0,6.3,14.2,17.8,18.7
		c0,0,12.8,7.4,72.2,10.2c0,0,52.3,1.3,76.5-2c0,0,16.8-2.1,25.3-9.8c0,0,10.7-10.4,17.1-21.8c0,0,23.2-35.8,32.7-73.9l1.3-4.8
		c0,0,0.4-4.3,6.5-4.8l23.3-1.2l23.4,1.2c6.1,0.5,6.5,4.8,6.5,4.8l1.3,4.8c9.6,38.1,32.9,73.9,32.9,73.9
		c6.4,11.5,17.2,21.8,17.2,21.8c8.5,7.7,25.4,9.8,25.4,9.8c24.4,3.3,76.9,2,76.9,2c59.8-2.8,72.6-10.2,72.6-10.2
		c11.6-4.5,17.9-18.7,17.9-18.7c8.3-14.9,15.9-51,15.9-51c2.2-9.8,7.6-8.6,7.6-8.6h5.4c1.5,0.2,1.8-2.3,1.8-2.3l0.7-30.1
		C688.7,226.6,687.5,225.3,687.5,225.3z M332.5,278.2c-9.5,22.3-24.4,53.6-39.5,59.6c-14.5,6.8-40.3,7.9-87.5,7.5
		c-34.3-2.5-59.5-3.1-75.7-10.3c-5-2.2-9.3-5.7-12.4-10.1c-9.3-13.2-14.7-34.7-18.5-59.5c-0.4-14.7-6.3-43.5,11.5-55.7
		c14.6-11.4,67.7-11.7,106.3-12.3c53,2,122,10.8,127.5,21.4C349.7,231,339.8,260.2,332.5,278.2z M668.9,265.3
		c-3.8,24.9-9.2,46.3-18.6,59.5c-3.2,4.5-7.5,7.9-12.5,10.1c-16.3,7.2-41.6,7.8-76.1,10.3c-47.5,0.4-73.4-0.7-88-7.5
		c-15.2-6-30.2-37.2-39.7-59.6c-7.4-18-17.4-47.1-11.9-59.5c5.5-10.6,74.9-19.4,128.2-21.4c38.9,0.6,92.3,1,106.9,12.3
		C675.3,221.8,669.4,250.5,668.9,265.3z"/>
</g>
</svg>
