<?xml version="1.0" encoding="utf-8"?>
<!-- Generator: Adobe Illustrator 27.4.1, SVG Export Plug-In . SVG Version: 6.00 Build 0)  -->
<svg version="1.1" id="Capa_1" xmlns="http://www.w3.org/2000/svg" xmlns:xlink="http://www.w3.org/1999/xlink" x="0px" y="0px"
	 viewBox="0 0 768 540" style="enable-background:new 0 0 768 540;" xml:space="preserve">
<style type="text/css">
	.st0{fill:#383838;}
</style>
<g id="_x2018_ëîé_x5F_2">
</g>
<g id="_x2018_ëîé_x5F_1">
	<g>
		<path class="st0" d="M688.6,188.4l-32.9-10.9c-86.4-35.1-193.4-4.9-223.4,8.8c-25.3,11.5-39.2,19.5-54.3,19.5
			c-15.1,0-29-7.9-54.3-19.5c-30-13.6-136.9-43.9-223.4-8.8l-21,6.5c0,0,17.3,11.3,24.3,41.4c7.1,30.1,16.9,92.3,67.8,131.3
			c33.8,26,77.2,28.2,113.4,12.2c35.3-15.6,81.9-53.1,81.3-130.6c0-6.5,5.1-12,11.6-12c0.1,0,0.2,0,0.3,0c0.1,0,0.2,0,0.3,0
			c5.9,0,10.7,4.9,10.7,10.8c-0.1,77,47.1,116.3,82.2,131.8c36.2,16,79.6,13.8,113.4-12.2c50.8-39.1,77.8-104.9,84.9-135
			C676.7,191.5,688.6,188.4,688.6,188.4z M346.5,265.3c-1.9,31.1-24.5,81.9-77.2,96.5s-91.8-10.3-111.9-39.4
			c-22.5-32.5-34-89.1-21.3-107.4c9.9-14.3,52.8-23.9,94.6-21.2c14.6,0.9,35.3,0.5,73,11.8C346.2,218.3,348.4,234.2,346.5,265.3z
			 M598.7,322.4c-20.1,29.1-59.2,54-111.9,39.4s-75.3-65.4-77.2-96.5s0.3-47,42.8-59.8c37.7-11.3,58.4-10.9,72.9-11.8
			c41.8-2.7,84.7,6.9,94.6,21.2C632.7,233.3,621.2,289.9,598.7,322.4z"/>
	</g>
</g>
</svg>
