<?xml version="1.0" encoding="utf-8"?>
<!-- Generator: Adobe Illustrator 27.4.1, SVG Export Plug-In . SVG Version: 6.00 Build 0)  -->
<svg version="1.1" id="Capa_1" xmlns="http://www.w3.org/2000/svg" xmlns:xlink="http://www.w3.org/1999/xlink" x="0px" y="0px"
	 viewBox="0 0 768 540" style="enable-background:new 0 0 768 540;" xml:space="preserve">
<style type="text/css">
	.st0{fill:#383838;}
</style>
<g id="_x2018_ëîé_x5F_2">
</g>
<g id="_x2018_ëîé_x5F_1">
	<path class="st0" d="M110.5,321.9c14.2,6,142.9,33.5,198,11.2s25.1-76.8,69.8-75.3c44.7-1.5,14.7,52.9,69.8,75.3
		c55.1,22.3,183.8-5.2,197.9-11.2c14.2-6,13.4-38,17.9-47.7s24.5-16.4,24.5-16.4v-51.4c-29.4-14.2-178.2-6.7-213.9,0
		c-35.8,6.7-94.1,20.1-94.1,20.1s-56-13.4-91.7-20.1c-35.8-6.7-188.4-14.2-209.4,0v51.4c0,0,14.5,6.7,19,16.4
		C102.8,283.9,96.4,315.9,110.5,321.9z M420.3,235.1c11-8.7,85.2-30.8,202.5-21.6c6.5,0.5,21,5,21.6,14.5c0.5,9.5,0.5,60.5-2.6,67.6
		c-3.2,7.1-5,22.9-70.5,31.8s-120.4,1.8-134.6-17.1C422.4,291.3,409.2,243.7,420.3,235.1z M112.6,228c0.5-9.5,15.1-14,21.6-14.5
		c117.3-9.2,191.4,12.9,202.5,21.6c11,8.7-2.1,56.3-16.3,75.2c-14.2,18.9-69.2,26-134.6,17.1c-65.5-8.9-67.3-24.7-70.5-31.8
		C112.1,288.4,112.1,237.4,112.6,228z"/>
</g>
</svg>
