<?xml version="1.0" encoding="utf-8"?>
<!-- Generator: Adobe Illustrator 27.4.1, SVG Export Plug-In . SVG Version: 6.00 Build 0)  -->
<svg version="1.1" id="Capa_1" xmlns="http://www.w3.org/2000/svg" xmlns:xlink="http://www.w3.org/1999/xlink" x="0px" y="0px"
	 viewBox="0 0 768 540" style="enable-background:new 0 0 768 540;" xml:space="preserve">
<style type="text/css">
	.st0{fill:#383838;}
</style>
<g id="_x2018_ëîé_x5F_2">
</g>
<g id="_x2018_ëîé_x5F_1">
	<path class="st0" d="M656.2,192.1c0.1-5.8-3.9-7.1-3.9-7.1l-9.3-1.6c-69.4-5.8-147.9,0-147.9,0c-47.2,2.5-55.3,6.7-55.3,6.7
		c-4.5,1.2-12.2,8.2-12.2,8.2c-7.4,6.5-13.5,8.8-13.5,8.8c-8.5,3.7-22.5,4-28.7,3.9v-0.1c0,0-0.6,0-1.6,0s-1.6,0-1.6,0v0.1
		c-6.3,0.1-20.2-0.3-28.7-3.9c0,0-6.1-2.3-13.5-8.8c0,0-7.7-7-12.2-8.2c0,0-8.1-4.1-55.2-6.7c0,0-78.3-5.8-147.6,0l-9.3,1.6
		c0,0-4,1.4-3.9,7.1l0.8,18.4c0,0-0.2,2.7,2.5,4.6c0,0,6.1,3.8,8.8,8.6c0,0,3.5,4.8,5,14.2c0,0,4.5,28,8.3,43.5
		c0,0,6.6,30.1,14.7,43c0,0,7.1,16.2,25.3,22.8c0,0,25.6,12.1,71.4,11.9c0,0,37.6,2.4,61.1-16.6c0,0,13.2-9.6,23.5-31.5
		c0,0,7.8-16.4,13.5-34.7l6.3-19.5c0,0,3.3-11.3,8.2-14.3c0,0,5.1-5.3,22.6-5.5c17.5,0.2,22.6,5.5,22.6,5.5c5,3,8.2,14.3,8.2,14.3
		l6.3,19.5c5.8,18.3,13.5,34.7,13.5,34.7c10.3,21.8,23.5,31.5,23.5,31.5c23.5,18.9,61.2,16.6,61.2,16.6
		c45.8,0.2,71.5-11.9,71.5-11.9c18.3-6.5,25.4-22.8,25.4-22.8c8.1-12.8,14.7-43,14.7-43c3.9-15.5,8.4-43.5,8.4-43.5
		c1.4-9.4,5-14.2,5-14.2c2.7-4.8,8.8-8.6,8.8-8.6c2.6-1.9,2.4-4.6,2.4-4.6L656.2,192.1z M300.4,338.1c-11.7,8-28.4,11-44.6,12.1
		c-14.5,1-29,0.4-43.4-1.7c-22.8-3.4-39.3-10.1-51.8-30.9c-13.2-23.5-17-55.6-18.9-83.9c-5.3-51,46.2-44,101.7-42.6
		c55.5,4.9,96.6,7.3,97.7,55.3C340.2,278.9,322.5,323.9,300.4,338.1z M626.3,233.6c-1.9,28.3-5.8,60.5-18.9,83.9
		c-12.6,20.8-29,27.5-51.9,30.9c-14.4,2.1-29,2.7-43.5,1.7c-16.2-1.1-33-4.1-44.7-12.1c-22.2-14.2-39.9-59.2-40.8-91.8
		c1.1-48,42.3-50.4,97.9-55.3C579.9,189.6,631.6,182.6,626.3,233.6z"/>
</g>
</svg>
