<?xml version="1.0" encoding="utf-8"?>
<!-- Generator: Adobe Illustrator 24.0.1, SVG Export Plug-In . SVG Version: 6.00 Build 0)  -->
<svg version="1.1" id="Capa_1" xmlns="http://www.w3.org/2000/svg" xmlns:xlink="http://www.w3.org/1999/xlink" x="0px" y="0px"
	 viewBox="0 0 1920 768" style="enable-background:new 0 0 1920 768;" xml:space="preserve">
<style type="text/css">
	.st0{fill:#353535;}
</style>
<g id="_x2018_ëîé_x5F_2">
</g>
<g id="_x2018_ëîé_x5F_1">
	<g>
		<path class="st0" d="M1795.8,156.6l-91.5-30.3c-240.7-97.8-538.5-13.5-622,24.5c-70.4,32.1-109.2,54.2-151.1,54.2
			c-41.9,0-80.7-22.1-151.1-54.2c-83.4-38-381.3-122.3-622-24.5l-58.6,18c0,0,48.1,31.4,67.7,115.3
			c19.7,83.9,47.2,256.8,188.7,365.6c94.1,72.3,214.9,78.6,315.8,34.1c98.2-43.4,227.9-147.9,226.4-363.6
			c-0.1-18.1,14.1-33.3,32.3-33.5c0.3,0,0.5,0,0.8,0c0.3,0,0.5,0,0.8,0c16.5,0.1,29.8,13.7,29.8,30.2
			c-0.4,214.3,131.1,323.7,228.9,366.9c100.9,44.5,221.6,38.3,315.8-34.1c141.5-108.8,216.8-292,236.4-375.8
			C1762.5,165.4,1795.8,156.6,1795.8,156.6z M843.4,370.9c-5.2,86.5-68.1,228-214.9,268.6C481.7,680.1,372.9,610.7,317,529.8
			c-62.5-90.4-94.7-248-59.3-299.1c27.5-39.7,146.9-66.6,263.4-59.1c40.6,2.6,98.3,1.4,203.1,32.9
			C842.4,239.9,848.6,284.4,843.4,370.9z M1545.4,529.8c-56,80.9-164.8,150.4-311.5,109.8S1024.2,457.4,1019,370.9
			s0.9-130.9,119.2-166.4c104.8-31.5,162.5-30.2,203.1-32.9c116.5-7.5,235.9,19.3,263.4,59.1
			C1640.1,281.8,1607.9,439.4,1545.4,529.8z"/>
	</g>
</g>
</svg>
