<?xml version="1.0" encoding="utf-8"?>
<!-- Generator: Adobe Illustrator 24.0.1, SVG Export Plug-In . SVG Version: 6.00 Build 0)  -->
<svg version="1.1" id="Capa_1" xmlns="http://www.w3.org/2000/svg" xmlns:xlink="http://www.w3.org/1999/xlink" x="0px" y="0px"
	 viewBox="0 0 1920 768" style="enable-background:new 0 0 1920 768;" xml:space="preserve">
<style type="text/css">
	.st0{fill:#353535;}
</style>
<g id="_x2018_ëîé_x5F_2">
</g>
<g id="_x2018_ëîé_x5F_1">
	<g>
		<path class="st0" d="M1608.3,116c-87.3-28.6-171.6-44.2-296-21.4c-124.4,22.9-186.4,91.7-207.9,93.2c-21.4,1.4-78.3-25.4-136-25.4
			c-57.6,0-114.9,26.8-136.4,25.4c-21.4-1.4-83.6-70.3-208.1-93.2C499.5,71.8,415.4,87.4,328.2,116s-132.6,65.7-212.8,65.7v90.1
			c0,0,48.6,1.4,54.4,30c5.7,28.6,24.3,157.3,88.7,237.5c64.4,80.1,134,133.5,256.1,138.8c133.7,5.7,224-50,272.9-105.8
			C856.2,493.6,884.9,372,892,314.8c0,0-29.8-15.7-18.3-48.6c9-26,37-31.5,94.7-31.5s85.2,5.4,94.3,31.5
			c11.5,32.9-18.8,48.6-18.8,48.6c7.1,57.2,35.9,178.8,104.7,257.5c48.8,55.8,139.2,111.6,272.9,105.8
			c122-5.2,191.8-58.6,256.2-138.8s83.2-208.8,88.9-237.5c5.7-28.6,54.8-30,54.8-30v-90.1C1740.7,181.7,1695.5,144.6,1608.3,116z
			 M796.3,492.9C756.1,578.8,679,628,600.8,639.8c-69.4,10.4-129.3,16.9-219-31.9c-85.2-46.3-137.2-133.1-151.1-235.6
			c-13.9-102.6,46.3-184.7,108.1-220.4c69.8-40.3,210.7-51.3,300.8-26.3c90.1,24.9,156.6,85.9,174.6,137.2
			C832.3,314,836.5,406.9,796.3,492.9z M1705.1,372.3c-13.9,102.6-65.9,189.3-151.1,235.6c-89.7,48.8-149.5,42.3-219,31.9
			c-78.2-11.7-155.2-61-195.4-146.9c-40.2-85.9-36-178.8-18-230.1c18-51.3,84.5-112.3,174.6-137.2c90.1-24.9,231-13.9,300.8,26.3
			C1658.8,187.6,1719,269.7,1705.1,372.3z"/>
	</g>
</g>
</svg>
