<?xml version="1.0" encoding="utf-8"?>
<!-- Generator: Adobe Illustrator 24.0.1, SVG Export Plug-In . SVG Version: 6.00 Build 0)  -->
<svg version="1.1" id="Capa_1" xmlns="http://www.w3.org/2000/svg" xmlns:xlink="http://www.w3.org/1999/xlink" x="0px" y="0px"
	 viewBox="0 0 1920 768" style="enable-background:new 0 0 1920 768;" xml:space="preserve">
<style type="text/css">
	.st0{fill:none;}
	.st1{fill:#353535;}
</style>
<g id="_x2018_ëîé_x5F_2">
</g>
<g id="_x2018_ëîé_x5F_1">
	<g>
		<path class="st0" d="M1251.8,106.9c72.6-18.2,137.5-24.1,194.8-22.2c-120.2-18.7-275.1-27.6-463.9-26.3
			c-8.3,0.1-15.1,0.1-20.3,0.1s-12.1-0.1-20.3-0.1c-188.8-1.2-343.7,7.6-463.9,26.3c57.3-1.8,122.2,4.1,194.8,22.2
			c148,37,187,128,187,128c11-5,60.5-12.5,102.5-12.5c42,0,91.5,7.5,102.5,12.5C1064.8,234.8,1103.8,143.9,1251.8,106.9z"/>
		<path class="st1" d="M1749.8,169.4c-11.9-2.3-22.9-6.7-35.9-12.4C1611,77,1365,37.8,982.3,40.3c-8.2,0.1-14.9,0.1-20.1,0.1
			c-5.2,0-11.9-0.1-20.1-0.1C559.4,37.8,313.2,77,210.3,157c-12.9,5.7-25.8,10-37.7,12.4c-36,7-89,21.9-89,21.9v85
			c0,0,47.5-3,59.5,27c12,30,22.4,153.2,56.3,226c45.5,98,120.1,177.5,251,193.9c144.2,18,250.1-17.1,332.1-94.1
			c99.5-93.4,106.3-228.3,93.7-343.8c0,0,32.1-16,86.1-16c54,0,86.1,16,86.1,16c-12.6,115.5-5.8,250.4,93.7,343.8
			c82,77,187.7,112.1,332,94.1c130.9-16.4,205.2-95.9,250.7-193.9c33.8-72.8,42.6-196,54.6-226c12-30,57.1-27,57.1-27v-85
			C1836.5,191.3,1785.7,176.4,1749.8,169.4z M794.1,550.7c-42.8,70-142.4,140.4-288.2,137c-145.9-3.4-215.7-65.5-260-149.2
			c-46.8-88.2-65.5-224.7-32.3-295.3c33.2-70.6,143.1-121.9,301.3-120.9c158.2,1,250,74.5,282.2,125
			C862.7,350.1,840,475.6,794.1,550.7z M962.4,222.3c-42,0-91.5,7.5-102.5,12.5c0,0-39-91-187-128c-72.6-18.2-137.5-24.1-194.8-22.2
			C598.4,65.9,753.2,57,942,58.3c8.3,0.1,15.1,0.1,20.3,0.1s12.1-0.1,20.3-0.1c188.8-1.2,343.7,7.6,463.9,26.3
			c-57.3-1.8-122.2,4.1-194.8,22.2c-148,37-187,128-187,128C1053.8,229.8,1004.3,222.3,962.4,222.3z M1678.8,538.6
			c-44.3,83.6-114.1,145.8-260,149.2c-145.8,3.4-245.5-67-288.2-137c-45.9-75.1-68.5-200.5-3-303.4c32.1-50.5,124-124,282.2-125
			c158.2-1,268.1,50.4,301.3,120.9C1744.3,313.9,1725.6,450.3,1678.8,538.6z"/>
	</g>
</g>
</svg>
