<?xml version="1.0" encoding="utf-8"?>
<!-- Generator: Adobe Illustrator 24.0.1, SVG Export Plug-In . SVG Version: 6.00 Build 0)  -->
<svg version="1.1" id="Capa_1" xmlns="http://www.w3.org/2000/svg" xmlns:xlink="http://www.w3.org/1999/xlink" x="0px" y="0px"
	 viewBox="0 0 1920 768" style="enable-background:new 0 0 1920 768;" xml:space="preserve">
<style type="text/css">
	.st0{fill:#353535;}
</style>
<g id="_x2018_ëîé_x5F_2">
</g>
<g id="_x2018_ëîé_x5F_1">
	<g>
		<path class="st0" d="M1746.1,118.7c-32.3-4.2-182.9-44.2-274.5-44.2c-143.5,0-196.2,12.1-263.7,31.8c-67.5,19.7-105.3,46.8-125,44
			c-19.7-2.8-73.1-12-106.8-12c-33.8,0-87.2,9.2-106.9,12c-19.7,2.8-57.7-24.3-125.2-44c-67.5-19.7-120.5-31.8-264-31.8
			c-91.6,0-244.2,39.9-276.6,44.2c-32.3,4.2-63,6.9-63,6.9v74.6c0,0,29.5,2.8,36.6,33.8s12.7,164.8,46.4,246.2
			c38.2,92.4,99.2,160.4,204.7,190c105.5,29.5,216.8,8.3,288.8-40.8c53.6-36.6,104.1-91,142.3-167.4
			c48.3-96.6,49.8-181.8,49.8-181.8s-8.4-21.3,2.9-52.7c8.4-23.4,36.1-27.2,64.3-27.2s55.8,3.8,64.3,27.2
			c11.3,31.4,3.9,46.1,3.9,46.1s0.5,91.8,48.8,188.4c38.2,76.4,88.6,130.9,142.2,167.4c72,49.1,183.1,70.4,288.6,40.8
			c105.5-29.5,166.1-97.6,204.4-190c33.7-81.5,37.3-215.3,44.3-246.2c7-30.9,33.8-33.8,33.8-33.8v-74.6
			C1806.2,125.7,1778.5,123,1746.1,118.7z M761.3,545.4c-86.1,97.2-221.4,133.2-347.1,87.2c-125.7-46-158.5-156.7-176.3-227.9
			c-17.8-71.3-25.3-197,35.7-247.6s186.7-50.8,250.5-53.5c66.6-2.8,262.6,16.9,313.3,101.3C887.9,289.3,845.2,450.7,761.3,545.4z
			 M1714.3,404.8c-17.8,71.3-50.6,182-176.3,227.9c-125.7,46-261,9.9-347.1-87.2c-83.9-94.7-126.6-256.1-76-340.5
			c50.7-84.4,246.7-104.1,313.3-101.3c63.7,2.7,189.5,2.8,250.5,53.5C1739.6,207.8,1732.1,333.5,1714.3,404.8z"/>
	</g>
</g>
</svg>
