<?xml version="1.0" encoding="utf-8"?>
<!-- Generator: Adobe Illustrator 24.0.1, SVG Export Plug-In . SVG Version: 6.00 Build 0)  -->
<svg version="1.1" id="Capa_1" xmlns="http://www.w3.org/2000/svg" xmlns:xlink="http://www.w3.org/1999/xlink" x="0px" y="0px"
	 viewBox="0 0 768 540" style="enable-background:new 0 0 768 540;" xml:space="preserve">
<style type="text/css">
	.st0{fill:#272525;}
</style>
<path class="st0" d="M684.9,265c-4,26.3-9.7,48.9-19.6,62.9c-3.3,4.7-7.9,8.4-13.2,10.7c-17.2,7.5-43.9,8.2-80.4,10.9
	c-50.1,0.4-77.6-0.7-92.9-7.9c-16-6.3-31.9-39.3-41.9-62.9c-7.8-19-18.4-49.8-12.5-62.8c5.8-11.2,79.1-20.5,135.4-22.6
	c41.1,0.6,97.4,1,112.9,13C691.6,219.1,685.3,249.5,684.9,265z M410.6,225.9l-2.4-0.2l-15.3-0.9c7.1,0,14.2,0.1,19.2,0.4
	C411.5,225.7,410.6,225.9,410.6,225.9z M358.1,225.7l-2.4,0.2c0,0-0.2-0.1-0.5-0.2l12.6-0.6L358.1,225.7z M329.6,278.6
	c-10,23.6-25.8,56.6-41.7,62.9c-15.3,7.2-42.5,8.3-92.4,7.9c-36.3-2.7-62.8-3.3-79.9-10.9c-5.2-2.3-9.8-6-13.1-10.7
	C92.6,314,87,291.3,83,265c-0.5-15.6-6.7-45.9,12.2-58.8c15.4-12,71.4-12.4,112.3-13c55.9,2.1,128.9,11.4,134.6,22.6
	C347.8,228.8,337.3,259.6,329.6,278.6z M704.4,222.8l-2-0.7c-9.6-0.6-15.5-12.2-15.5-12.2l-4.3-6.1c-6.3-9-26.4-11.3-26.4-11.3
	c-31.4-5.3-87.4-5.7-87.4-5.7c-43-1.9-127.1,10.7-127.1,10.7c-18.3,4-56.5,4.9-58.8,4.9c-2.2-0.1-40.3-1-58.4-4.9
	c0,0-83.6-12.6-126.4-10.7c0,0-55.6,0.4-86.9,5.7c0,0-19.9,2.3-26.2,11.3l-4.3,6.1c0,0-5.8,11.5-15.4,12.2l-2,0.7
	c0,0-1.3,1.3-1.2,2.5l0.7,31.8c0,0,0.3,2.6,1.8,2.4h5.7c0,0,5.7-1.2,8,9.1c0,0,8,38.2,16.7,53.9c0,0,6.6,15,18.8,19.7
	c0,0,13.5,7.8,76.2,10.7c0,0,55.2,1.4,80.8-2.1c0,0,17.7-2.2,26.7-10.4c0,0,11.3-11,18-23c0,0,24.5-37.8,34.5-78.1l1.4-5.1
	c0,0,0.4-4.5,6.8-5.1l24.5-1.3l24.7,1.3c6.4,0.5,6.9,5.1,6.9,5.1l1.4,5.1c10.1,40.3,34.7,78.1,34.7,78.1c6.7,12.1,18.1,23,18.1,23
	c9,8.2,26.8,10.4,26.8,10.4c25.7,3.5,81.2,2.1,81.2,2.1c63.1-3,76.7-10.7,76.7-10.7c12.2-4.7,18.9-19.7,18.9-19.7
	c8.7-15.7,16.8-53.9,16.8-53.9c2.3-10.3,8-9.1,8-9.1h5.7c1.6,0.2,1.8-2.4,1.8-2.4l0.7-31.8C705.7,224.1,704.4,222.8,704.4,222.8z"/>
</svg>
