<?xml version="1.0" encoding="utf-8"?>
<!-- Generator: Adobe Illustrator 24.0.1, SVG Export Plug-In . SVG Version: 6.00 Build 0)  -->
<svg version="1.1" id="Capa_1" xmlns="http://www.w3.org/2000/svg" xmlns:xlink="http://www.w3.org/1999/xlink" x="0px" y="0px"
	 viewBox="0 0 768 540" style="enable-background:new 0 0 768 540;" xml:space="preserve">
<g id="_x2018_ëîé_x5F_2">
</g>
<g id="_x2018_ëîé_x5F_1">
	<path d="M656.2,235.5h-12.5c-5.1-33.5-16.1-63.2-66.6-70.9c-33-5-61.8-7.5-85.7-7.5c-21.3,0-15.2-2.6-27.9,1.4
		c0.9-1.8-22,0.7-25.7-0.5c-7.4-2.3-59.2-1.1-59.2-1.1s-49.6-1.2-57,1.1c-3.9,1.2-41.5-2.5-40.4-0.6c-12.8-4.2,8-0.3-13.8-0.3
		c-23.9,0-52.8,2.4-85.7,7.4c-50.5,7.7-61.5,37.4-66.6,70.9h-1.9v22.3h-0.9c-3.1,40.9,17.1,75.3,18,76.9l0.3,0.6
		c18.5,25.3,62.9,43.2,87.9,46.3c4.5,0.6,8.3,0.8,11.9,0.8c22.4,0,42.5-11.2,74.3-41.4c12.2-11.6,21.7-26.4,28.8-42.5
		c1.1-0.2,2.3-0.5,3.4-1.1c5.5-3.2,22.2-44.8,25.9-53.6c3.7-8.8,13.1-6.9,17.6-6.9s12.9-1.9,16.6,6.9s20.3,50.3,25.9,53.6
		c0.8,0.5,1.8,0.8,2.7,1c7.1,16.1,16.7,31.9,28.9,43.5c31.8,30.2,51.9,42.3,74.3,42.3l0,0c3.6,0,7.4-1.2,11.9-1.7
		c25-3.1,69.4-21.4,87.9-46.7l0.3-1c0.9-1.6,21.1-36.2,18-77.1h9.7L656.2,235.5L656.2,235.5z M296.8,333
		c-33.6,31.9-50.3,38.3-66.5,38.3c-3.2,0-6.5-0.2-10.5-0.7c-22.3-2.8-63.5-19.2-80.1-41.5c-1.8-3.3-20.4-38.4-16-73.9l0.2-1.2
		c4.9-39.3,8.8-70.4,59.5-78.1c32.4-4.9,60.7-7.4,84-7.4c39.7,0,63,7.3,67.6,21C345.9,222.3,334.7,297,296.8,333z M619,329.1
		c-16.5,22.3-57.8,37.8-80.1,40.5c-4,0.5-7.4-0.2-10.5-0.2l0,0c-16.2,0-33-5.5-66.5-37.4c-37.9-36-49.1-110.3-38.1-143.1
		c4.6-13.7,27.9-20.7,67.6-20.7c23.4,0,51.6,2.7,84.1,7.6c50.7,7.7,54.5,38.7,59.4,78.1l0.2,1.2C639.4,290.7,620.8,325.8,619,329.1z
		"/>
</g>
</svg>
