<?xml version="1.0" encoding="utf-8"?>
<!-- Generator: Adobe Illustrator 24.0.1, SVG Export Plug-In . SVG Version: 6.00 Build 0)  -->
<svg version="1.1" id="Capa_1" xmlns="http://www.w3.org/2000/svg" xmlns:xlink="http://www.w3.org/1999/xlink" x="0px" y="0px"
	 viewBox="0 0 768 540" style="enable-background:new 0 0 768 540;" xml:space="preserve">
<style type="text/css">
	.st0{fill:#353535;}
</style>
<g id="_x2018_ëîé_x5F_2">
</g>
<g id="_x2018_ëîé_x5F_1">
	<g>
		<path class="st0" d="M440.5,184.9c-17.8,5.9-38.7,14.2-56.5,14.2s-38.8-8.3-56.5-14.2c-47.9-15.8-168.5-26-244.9-1.5l2.3,42.3
			c0,0,13.9-3.1,18.5,12.2c4.6,15.3,15.2,78.3,34.7,102.9c24.2,30.5,76.2,31.7,111.4,30.2c47.4-2,78.4-23.1,91.7-58.7
			c13.2-35.6,20.7-66.2,29.2-75.9c4.6-5.2,9.7-5.6,13.8-5.6c4,0,9.2,0.4,13.8,5.6c8.5,9.7,16,40.2,29.2,75.9s44.3,56.7,91.7,58.7
			c35.2,1.5,87.2,0.3,111.4-30.2c19.5-24.6,30.1-87.6,34.7-102.9s18.5-12.2,18.5-12.2l2.3-42.3C609.1,158.9,488.4,169.1,440.5,184.9
			z M96.6,203.2c0-3,7.7-5.4,17.1-5.4c9.5,0,17.1,2.4,17.1,5.4s-7.7,5.4-17.1,5.4S96.6,206.2,96.6,203.2z M319.8,312.2
			c-12.7,23.9-34.1,36.2-66.2,40.2s-70.4-2.2-89.8-13.8c-17-10.2-25.3-42.3-29.4-61.6s-11.2-61.1,8.7-74.9s69.8-14.8,102.9-12.7
			c25,1.5,78.9,8.1,89.1,27.5C345.3,236.3,330.1,292.8,319.8,312.2z M633.5,277c-4.1,19.3-12.3,51.5-29.4,61.6
			c-19.3,11.5-57.7,17.8-89.8,13.8c-32.1-4.1-53.5-16.3-66.2-40.2c-10.3-19.4-25.5-75.9-15.3-95.2s64.2-26,89.1-27.5
			c33.1-2,83-1,102.9,12.7C644.7,215.9,637.6,257.7,633.5,277z M654.2,208.6c-9.5,0-17.1-2.4-17.1-5.4s7.7-5.4,17.1-5.4
			s17.1,2.4,17.1,5.4S663.7,208.6,654.2,208.6z"/>
	</g>
</g>
</svg>
