<?xml version="1.0" encoding="utf-8"?>
<!-- Generator: Adobe Illustrator 24.0.1, SVG Export Plug-In . SVG Version: 6.00 Build 0)  -->
<svg version="1.1" id="Capa_1" xmlns="http://www.w3.org/2000/svg" xmlns:xlink="http://www.w3.org/1999/xlink" x="0px" y="0px"
	 viewBox="0 0 768 540" style="enable-background:new 0 0 768 540;" xml:space="preserve">
<style type="text/css">
	.st0{fill:#353535;}
</style>
<g id="_x2018_ëîé_x5F_2">
</g>
<g id="_x2018_ëîé_x5F_1">
	<g>
		<path class="st0" d="M636.5,184.9c-10.6-1.4-59.8-14.4-89.7-14.4c-46.9,0-64.1,4-86.2,10.4s-34.4,15.3-40.9,14.4
			s-23.9-3.9-34.9-3.9s-28.5,3-34.9,3.9s-18.8-7.9-40.9-14.4c-22.1-6.4-39.4-10.4-86.3-10.4c-29.9,0-79.8,13-90.4,14.4
			s-20.6,2.3-20.6,2.3v24.4c0,0,9.7,0.9,12,11s4.2,53.8,15.2,80.5c12.5,30.2,32.4,52.4,66.9,62.1s70.8,2.7,94.4-13.3
			c17.5-12,34-29.7,46.5-54.7c15.8-31.6,16.3-59.4,16.3-59.4s-2.8-7,0.9-17.2c2.8-7.7,11.8-8.9,21-8.9s18.2,1.2,21,8.9
			c3.7,10.3,1.3,15,1.3,15s0.2,30,15.9,61.6c12.5,25,28.9,42.8,46.5,54.7c23.5,16,59.8,23,94.3,13.3s54.3-31.9,66.8-62.1
			c11-26.6,12.2-70.3,14.5-80.5c2.3-10.1,11-11,11-11v-24.4C656.2,187.2,647.1,186.3,636.5,184.9z M314.7,324.3
			c-28.1,31.8-72.3,43.5-113.4,28.5s-51.8-51.2-57.6-74.5s-8.3-64.4,11.7-80.9s61-16.6,81.8-17.5C259,179,323,185.4,339.6,213
			C356.1,240.6,342.2,293.4,314.7,324.3z M626.1,278.4c-5.8,23.3-16.6,59.5-57.6,74.5c-41.1,15-85.3,3.3-113.4-28.5
			c-27.4-31-41.4-83.7-24.8-111.3c16.6-27.6,80.6-34,102.4-33.1c20.8,0.9,61.9,0.9,81.8,17.5C634.4,214,632,255.1,626.1,278.4z"/>
	</g>
</g>
</svg>
