<?xml version="1.0" encoding="utf-8"?>
<!-- Generator: Adobe Illustrator 24.0.1, SVG Export Plug-In . SVG Version: 6.00 Build 0)  -->
<svg version="1.1" id="Capa_1" xmlns="http://www.w3.org/2000/svg" xmlns:xlink="http://www.w3.org/1999/xlink" x="0px" y="0px"
	 viewBox="0 0 768 540" style="enable-background:new 0 0 768 540;" xml:space="preserve">
<style type="text/css">
	.st0{fill:none;}
	.st1{fill:#353535;}
</style>
<g id="_x2018_ëîé_x5F_2">
</g>
<g id="_x2018_ëîé_x5F_1">
	<g>
		<path class="st0" d="M485.4,173.7c25.2-6.3,47.8-8.4,67.7-7.7c-41.8-6.5-95.6-9.6-161.2-9.1c-2.9,0-5.2,0-7.1,0s-4.2,0-7.1,0
			c-65.6-0.4-119.4,2.6-161.2,9.1c19.9-0.6,42.5,1.4,67.7,7.7c51.4,12.9,65,44.5,65,44.5c3.8-1.7,21-4.3,35.6-4.3s31.8,2.6,35.6,4.3
			C420.4,218.2,434,186.5,485.4,173.7z"/>
		<path class="st1" d="M658.5,195.4c-4.2-0.8-8-2.3-12.5-4.3c-35.8-27.8-121.3-41.5-254.3-40.6c-2.8,0-5.2,0-7,0s-4.2,0-7,0
			c-133-0.9-218.6,12.8-254.3,40.6c-4.5,2-9,3.5-13.1,4.3c-12.5,2.4-30.9,7.6-30.9,7.6v29.5c0,0,16.5-1,20.7,9.4s7.8,53.2,19.5,78.5
			c15.8,34,41.8,61.7,87.3,67.4c50.1,6.3,86.9-5.9,115.4-32.7c34.6-32.5,37-79.3,32.6-119.5c0,0,11.2-5.6,29.9-5.6
			s29.9,5.6,29.9,5.6c-4.4,40.1-2,87,32.5,119.5c28.5,26.8,65.2,39,115.4,32.7c45.5-5.7,71.3-33.3,87.1-67.4
			c11.7-25.3,14.8-68.1,19-78.5s19.9-9.4,19.9-9.4V203C688.6,203,671,197.9,658.5,195.4z M326.3,327.9
			c-14.9,24.3-49.5,48.8-100.2,47.6c-50.7-1.2-75-22.8-90.4-51.8c-16.3-30.7-22.8-78.1-11.2-102.6c11.5-24.5,49.7-42.4,104.7-42
			s86.9,25.9,98.1,43.4C350.2,258.2,342.3,301.8,326.3,327.9z M384.8,213.8c-14.6,0-31.8,2.6-35.6,4.3c0,0-13.5-31.6-65-44.5
			c-25.2-6.3-47.8-8.4-67.7-7.7c41.8-6.5,95.6-9.6,161.2-9.1c2.9,0,5.2,0,7.1,0s4.2,0,7.1,0c65.6-0.4,119.5,2.6,161.2,9.1
			c-19.9-0.6-42.5,1.4-67.7,7.7c-51.4,12.9-65,44.5-65,44.5C416.6,216.4,399.4,213.8,384.8,213.8z M633.8,323.7
			c-15.4,29.1-39.7,50.7-90.4,51.8c-50.7,1.2-85.3-23.3-100.2-47.6c-15.9-26.1-23.8-69.7-1-105.4c11.2-17.5,43.1-43.1,98.1-43.4
			c55-0.4,93.2,17.5,104.7,42C656.6,245.6,650.1,293,633.8,323.7z"/>
	</g>
</g>
</svg>
