<?xml version="1.0" encoding="utf-8"?>
<!-- Generator: Adobe Illustrator 24.0.1, SVG Export Plug-In . SVG Version: 6.00 Build 0)  -->
<svg version="1.1" id="Capa_1" xmlns="http://www.w3.org/2000/svg" xmlns:xlink="http://www.w3.org/1999/xlink" x="0px" y="0px"
	 viewBox="0 0 768 540" style="enable-background:new 0 0 768 540;" xml:space="preserve">
<g id="_x2018_ëîé_x5F_2">
</g>
<g id="_x2018_ëîé_x5F_1">
	<path d="M550.8,189c-7.8,0.4-22.5,1.4-39.4,4c-13.7,1.6-27.9,4.5-41.1,9c-20.3,6.2-38.6,15.4-47.7,28.7c-11-5.2-29.3-9.8-38.1-9.8
		c-9.1,0-28.1,4.8-39,10.2c-11.9-18-40.6-28.4-68.4-34.4c-3.9-0.9-7.7-1.6-11.6-2.3c-20.6-3.6-39.3-5-48.4-5.4
		c-24.9-1.2-101.1-12.3-102.8-4.6c-1.7,7.7-4.3,21.1-1,24.4s15,40.9,17.2,45.9c0.9,2,3.7,3.3,6.8,4c0.2,1.4,0.4,2.8,0.6,4.1
		c0.2,1.6,0.5,3.1,0.6,4.6c0.1,2.8,1.3,28.8,6.3,36.8c0.4,0.7,1,2,1.7,3.6c6,13.9,22.1,50.9,94.2,54.1c2,0.1,3.9,0.1,5.8,0.1
		c78.9,0,100.8-70.2,102.4-89.4c0.4-4.5,0.4-8,0.2-11.6h4.6l-3.5-19.7c-0.3-1.3-0.8-1.9-1.3-5.5h35.8h34.6c-0.5,3.6-0.9,4.2-1.3,5.5
		l-3.5,19.7h3c-0.2,3.6-0.2,7.1,0.2,11.6c1.5,19.1,23.5,90,102.4,90c1.9,0,3.8-0.3,5.8-0.4c72.1-3.2,88.1-40.3,94.2-54.3
		c0.7-1.6,1.3-3,1.7-3.7c5-8.1,6.2-34,6.3-36.9c0.1-1.4,0.3-3,0.6-4.6c0.2-1.2,0.4-2.5,0.5-3.8c3.6-0.8,7.3-2.1,8.3-4.4
		c2.2-5,13.8-42.6,17.1-45.9s0.7-21.9-0.9-29.6C652,171.5,575.7,187.9,550.8,189z M341.6,271c-1.5,18.2-22.9,87.2-100.7,83.8
		c-67.5-3-82.3-37-87.8-49.8c-0.8-1.9-1.5-3.4-2.2-4.5c-3-4.9-4.8-23.1-5.2-33.5c-0.1-1.7-0.4-3.4-0.6-5.2c-0.1-0.6-0.2-1.2-0.3-1.9
		c1.3,0.1,2.2,0.1,2.2,0.1c0.2-26.9,26.6-44.9,52.9-49.6c39.8-7.2,100.6-1.3,128.3,24.2c7.7,7,12.5,20.3,13.6,23.4
		C342,262.2,342,266.5,341.6,271z M621.4,261.9c-0.3,1.8-0.5,3.5-0.6,5.2c-0.4,10.3-2.2,28.6-5.2,33.5c-0.7,1.1-1.3,2.6-2.2,4.5
		c-5.6,12.8-20.3,46.8-87.8,49.8c-77.8,3.3-99.2-64.4-100.7-82.6c-0.3-4.2-0.4-7.4-0.2-11h1.3c0,0,5.1-17.3,13.8-25.3
		c27.6-25.4,88.5-32,128.3-24.8c26.3,4.7,52.7,22.4,52.9,49.3c0,0,0.2-0.2,0.7-0.2C621.6,260.9,621.5,261.3,621.4,261.9z"/>
</g>
</svg>
