<?xml version="1.0" encoding="utf-8"?>
<!-- Generator: Adobe Illustrator 24.0.1, SVG Export Plug-In . SVG Version: 6.00 Build 0)  -->
<svg version="1.1" id="Capa_1" xmlns="http://www.w3.org/2000/svg" xmlns:xlink="http://www.w3.org/1999/xlink" x="0px" y="0px"
	 viewBox="0 0 768 540" style="enable-background:new 0 0 768 540;" xml:space="preserve">
<style type="text/css">
	.st0{fill:#353535;}
</style>
<g id="_x2018_ëîé_x5F_2">
</g>
<g id="_x2018_ëîé_x5F_1">
	<g>
		<path class="st0" d="M612.5,175.3c-31.2-10.2-61.3-15.8-105.7-7.6c-44.4,8.2-66.6,32.8-74.2,33.3c-7.7,0.5-28-9.1-48.6-9.1
			s-41,9.6-48.7,9.1s-29.9-25.1-74.3-33.3c-44.4-8.2-74.5-2.6-105.6,7.6s-47.4,23.5-76,23.5V231c0,0,17.4,0.5,19.4,10.7
			s8.7,56.2,31.7,84.8c23,28.6,47.9,47.7,91.4,49.5c47.8,2,80-17.9,97.4-37.8c24.6-28.1,34.8-71.5,37.4-92c0,0-10.6-5.6-6.5-17.4
			c3.2-9.3,13.2-11.2,33.8-11.2s30.4,1.9,33.7,11.2c4.1,11.8-6.7,17.4-6.7,17.4c2.5,20.4,12.8,63.8,37.4,92
			c17.4,19.9,49.7,39.8,97.5,37.8c43.6-1.9,68.5-20.9,91.5-49.5s29.7-74.6,31.8-84.8c2-10.2,19.6-10.7,19.6-10.7v-32.2
			C659.8,198.8,643.7,185.6,612.5,175.3z M322.5,309.9c-14.3,30.7-41.9,48.3-69.8,52.5c-24.8,3.7-46.2,6-78.2-11.4
			c-30.4-16.5-49-47.5-54-84.1s16.5-66,38.6-78.7c24.9-14.4,75.2-18.3,107.4-9.4s55.9,30.7,62.4,49S336.9,279.2,322.5,309.9z
			 M647.1,266.8c-4.9,36.6-23.5,67.6-53.9,84.1c-32,17.4-53.4,15.1-78.2,11.4c-27.9-4.2-55.4-21.8-69.8-52.5
			c-14.3-30.7-12.9-63.8-6.4-82.2c6.4-18.3,30.2-40.1,62.4-49s82.5-5,107.4,9.4C630.6,200.9,652.1,230.2,647.1,266.8z"/>
	</g>
</g>
</svg>
