<?xml version="1.0" encoding="utf-8"?>
<!-- Generator: Adobe Illustrator 24.0.1, SVG Export Plug-In . SVG Version: 6.00 Build 0)  -->
<svg version="1.1" id="Capa_1" xmlns="http://www.w3.org/2000/svg" xmlns:xlink="http://www.w3.org/1999/xlink" x="0px" y="0px"
	 viewBox="0 0 768 540" style="enable-background:new 0 0 768 540;" xml:space="preserve">
<style type="text/css">
	.st0{fill:#272525;}
</style>
<g id="_x2018_ëîé_x5F_2">
</g>
<g id="_x2018_ëîé_x5F_1">
	<path class="st0" d="M687.9,210.2c0-2,0.3-6.5,0.7-10.7c0.6-6.6-3.6-12.7-10-14.6c-9.6-2.9-21.1-5-21.1-5
		c-42-18.2-113.6-7.9-113.6-7.9c-66.9,0.3-126.7,33.6-126.7,33.6c-8.7,4.2-29.3,5.2-33.1,5.3c-3.8-0.1-24.4-1.1-33.1-5.3
		c0,0-59.7-33.3-126.4-33.6c0,0-66.6-11.2-108.5,7c0,0-11.1,1.7-21.4,4.1c-9,2.1-15.4,10.2-15.4,19.4l1.3,8.7c0,0,1.8,8.7,3.4,11.9
		l3.8,9.1l2.8,4.2l14.8,44.4c0,0,14.5,50.5,58,74.7c0,0,27.6,17.3,65.5,15.7c0,0,42.9,0.9,78.9-27.6c0,0,27.3-22.6,40.1-56.5
		l12.8-32.9c0,0,3.4-17.6,23.2-18c19.9,0.4,23.3,18,23.3,18l12.9,32.9c12.9,33.9,40.2,56.5,40.2,56.5c36.1,28.6,79.1,27.6,79.1,27.6
		c38,1.6,65.6-15.7,65.6-15.7c43.6-24.2,58.2-74.7,58.2-74.7l14.8-44.4l1.8-5.4l4.3-10.1C686.9,216.5,687.9,210.2,687.9,210.2z
		 M345.1,245.3c-6.9,64.7-54.3,119.9-117.6,117.2c-75.7,2.5-114.8-66.1-116.3-131c-0.8-45.6,54.9-43.3,106.9-47.5
		C278,184,346.8,205.4,345.1,245.3z M540.9,362.5C477.5,365.3,430,310,423,245.3c-1.7-40,67.3-61.3,127.3-61.3
		c52.1,4.2,108,1.9,107.2,47.5C656,296.4,616.8,365.1,540.9,362.5z"/>
</g>
</svg>
