<?xml version="1.0" encoding="utf-8"?>
<!-- Generator: Adobe Illustrator 24.0.1, SVG Export Plug-In . SVG Version: 6.00 Build 0)  -->
<svg version="1.1" id="Capa_1" xmlns="http://www.w3.org/2000/svg" xmlns:xlink="http://www.w3.org/1999/xlink" x="0px" y="0px"
	 viewBox="0 0 768 540" style="enable-background:new 0 0 768 540;" xml:space="preserve">
<style type="text/css">
	.st0{fill:#272525;}
</style>
<g id="_x2018_ëîé_x5F_2">
</g>
<g id="_x2018_ëîé_x5F_1">
	<path class="st0" d="M168.8,323.6c0,0,39,32.7,87.3,30.7c0,0,54.4,1.5,84.4-37.6c0,0,13.7-20.9,23.4-46.8c0,0,1.5-12,20-12.5
		c18.5,0.5,20,12.5,20,12.5c9.8,25.9,23.4,46.8,23.4,46.8c30,39,84.5,37.6,84.5,37.6c48.3,2,87.4-30.7,87.4-30.7
		c60.8-49.3,57-109.8,57-109.8c1.5-34.5-76.3-27.8-76.3-27.8c-75.2-1.2-162.3,38.2-162.3,38.2c-12.3,6.6-32.3,7.1-33.6,7.1
		c-1.3,0-21.3-0.5-33.6-7.1c0,0-87.1-39.4-162.2-38.2c0,0-77.7-6.7-76.2,27.8C111.9,213.9,108,274.4,168.8,323.6z M524.2,203.4
		c59.1-6.8,101.4-8,100.3,31.8c0,62.2-49.4,107-111.7,107s-90.3-38.8-91.5-79.5C420.5,230.7,470.5,214.4,524.2,203.4z M243.7,203.4
		c53.6,11,103.6,27.3,102.9,59.3c-1.2,40.7-29.2,79.5-91.5,79.5s-111.6-44.8-111.6-107C142.5,195.3,184.7,196.5,243.7,203.4z"/>
</g>
</svg>
