<?xml version="1.0" encoding="utf-8"?>
<!-- Generator: Adobe Illustrator 24.0.1, SVG Export Plug-In . SVG Version: 6.00 Build 0)  -->
<svg version="1.1" id="Capa_1" xmlns="http://www.w3.org/2000/svg" xmlns:xlink="http://www.w3.org/1999/xlink" x="0px" y="0px"
	 viewBox="0 0 768 540" style="enable-background:new 0 0 768 540;" xml:space="preserve">
<style type="text/css">
	.st0{fill:#353535;}
</style>
<g id="_x2018_ëîé_x5F_2">
</g>
<g id="_x2018_ëîé_x5F_1">
	<g>
		<path class="st0" d="M469.2,180.1c-36.8,8.7-55.9,9.7-85.3,9.7s-48.4-0.9-85.2-9.7s-140.5-6.4-186.8,28.1v31.7
			c0,0,11.8-1.4,18.3,28.5s19.3,80.4,57,88.8c44.3,9.9,96.9,11,129.5-8.3c33.8-20,38.5-59.8,43.6-79.6s5.4-34,23.8-34
			s18.7,14.3,23.8,34s9.7,59.8,43.6,79.6c27.8,16.2,81.1,16.2,129.5,8.3c38.1-6.2,50.6-58.9,57-88.8s18.4-28.5,18.4-28.5v-31.7
			C610.2,173.7,506,171.4,469.2,180.1z M327.3,318.1c-16.1,27.6-44.6,42.8-95.2,37.3s-59.8-19.3-72.7-40.9s-20.2-80-12-99.8
			c8.3-19.8,69.5-24.4,98-24.8c29-0.5,77.7,4.1,96.1,26.2C359.9,238.1,343.4,290.5,327.3,318.1z M608.3,314.5
			c-11,28.8-55.7,41.3-87.8,39.8c-43.8-2.1-59.2-4.6-80.7-32.6c-19.4-25.4-32.1-83.5-13.7-105.6s67.2-26.7,96.1-26.2
			c28.5,0.5,89.7,5.1,98,24.8C628.6,234.4,617.3,290.9,608.3,314.5z"/>
	</g>
</g>
</svg>
