<?xml version="1.0" encoding="utf-8"?>
<!-- Generator: Adobe Illustrator 24.0.1, SVG Export Plug-In . SVG Version: 6.00 Build 0)  -->
<svg version="1.1" id="Capa_1" xmlns="http://www.w3.org/2000/svg" xmlns:xlink="http://www.w3.org/1999/xlink" x="0px" y="0px"
	 viewBox="0 0 768 540" style="enable-background:new 0 0 768 540;" xml:space="preserve">
<g id="_x2018_ëîé_x5F_2">
</g>
<g id="_x2018_ëîé_x5F_1">
	<path d="M670.2,204.1c-33.5-50.7-80.6-51.4-130.5-52.3l-9.2-0.1c-1.6,0-3.1-0.1-4.6-0.1c-7.2,0-14.1,1-20.8,1H385.5H260.1
		c-8.3,0-17-1.1-26.3-0.9l-9.2,0.1c-49.9,0.9-97,1.4-130.6,52.3c-0.5,0.9-8.7,16.6-11,36.6h-3.7v16h3.2c0.3,12,1.8,20.6,5.2,32.2
		c15.2,52.1,45.2,84.9,84.6,93.5c11.6,2.5,21.4,2.6,30.8,2.6l0,0c36,0,68-14.8,103.9-54.8c35.2-39.3,44.9-81.4,42.3-109.5H415
		c-2.6,28.1,7,71.3,42.3,110.7c35.8,40,67.9,57,103.9,57c9.4,0,19.2-1.6,30.8-4.2c39.4-8.6,69.5-42.5,84.7-94.6
		c3.4-11.8,4.9-20.8,5.2-32.9h6.7v-16h-7.3C679,220.7,670.9,205.1,670.2,204.1z M295.1,318.7c-41.7,46.6-71,52.3-91.9,52.3l0,0
		c-8.2,0-17-0.8-27.4-3.1c-33.4-7.3-59.2-36.2-72.6-82.4c-12.5-43,4-71.2,4.5-72.1c28.8-43.7,67.9-44.4,117.3-45.3l9.2-0.2
		c1.4,0,2.9-0.1,4.3-0.1c46.9,0,78,15.7,87.4,26.4C335.6,205.1,344.8,263.2,295.1,318.7z M426.6,183.5c-3.5,4-6.5,9.2-8.6,17.2
		h-71.4c-2.1-8-5.1-13.2-8.7-17.2c-7.4-8.3-20.9-16.6-39.1-22.7c19.7-0.6,42,3.2,45.7,7.4c3.9,4.4,41,4.1,41,4.1s33.9,0.3,37.8-4.1
		c3.6-4.2,23.4-8,42.8-7.4C447.6,166.8,434,175.1,426.6,183.5z M661.3,285.1c-13.4,46.2-39.2,75.7-72.6,82.9
		c-10.5,2.3-19.2,3.3-27.4,3.3c-20.9,0-50.2-6-91.9-52.5c-49.7-55.5-40.5-113.7-30.8-124.6c9.5-10.6,40.6-26.5,87.4-26.5
		c1.4,0,2.8,0,4.3,0l9.2,0.2c49.5,0.8,88.5,1.5,117.2,45C656.8,213.2,673.9,241.8,661.3,285.1z"/>
</g>
</svg>
