<?xml version="1.0" encoding="utf-8"?>
<!-- Generator: Adobe Illustrator 24.0.1, SVG Export Plug-In . SVG Version: 6.00 Build 0)  -->
<svg version="1.1" id="Capa_1" xmlns="http://www.w3.org/2000/svg" xmlns:xlink="http://www.w3.org/1999/xlink" x="0px" y="0px"
	 viewBox="0 0 1920 1080" style="enable-background:new 0 0 1920 1080;" xml:space="preserve">
<style type="text/css">
	.st0{fill:#191919;}
	.st1{opacity:0.46;fill:url(#SVGID_1_);enable-background:new    ;}
</style>
<g id="_x2018_ëîé_x5F_2">
</g>
<path class="st0" d="M1613.7,645.5c6.2-13.6,12.4-27.2,18.7-40.7c234.6,59,216.9-248.8,333.1-580.2c12.9,3.9,25.7,7.8,38.6,11.7
	C1892.7,353.8,1899.8,717.3,1613.7,645.5z"/>
<path class="st0" d="M231.5,638.2c-151.3,24.7-167.2,24.3-315.5,0c3.4-13.7,2.4-27.9,5.4-41.7c146.2,25.5,155.8,25.2,304.3,0.1
	C228.2,610.5,228.1,624.5,231.5,638.2z"/>
<radialGradient id="SVGID_1_" cx="933.0313" cy="484.2637" r="495.889" gradientTransform="matrix(1 0 0 -1 0 1080)" gradientUnits="userSpaceOnUse">
	<stop  offset="0" style="stop-color:#CBCFDC"/>
	<stop  offset="0.1425" style="stop-color:#EBEBEB"/>
	<stop  offset="1" style="stop-color:#8F97B2"/>
</radialGradient>
<path class="st1" d="M1608.2,629c-756.3,68.4-807.1,35.4-1334.8,1.8c-22.6-1.4-39.3-22-37.7-44.7c3.5-51.2,3.8-4,12.4-51.7
	c1.5-8.3,9.5-13,17.8-11.9c700.5,96.5,690.2,82.3,1329.6,9.5c8.5-1,16.4,4,17.6,12.5c7.3,51.6,7.7,2.3,17,55.9
	C1632.6,614.6,1622.4,627.8,1608.2,629z"/>
<path class="st0" d="M1640.8,617.3c-515.7,53.2-904.2,52.5-1419.8-3c-12.4-1.3-13.4-8.1-14-17c-0.2-3.3,0.3-9.1,1.7-12.2
	c3.8-8.4,5.1-15,17.5-13.7c513.7,53.9,896.6,55.3,1408.7,2.8c12.3-1.3,15.8,5.5,18.4,13.8c0.9,3.1,1.9,9,1.6,12.2
	C1654.1,609.3,1653.3,616.1,1640.8,617.3z"/>
</svg>
