<?xml version="1.0" encoding="UTF-8"?><svg id="a" xmlns="http://www.w3.org/2000/svg" xmlns:xlink="http://www.w3.org/1999/xlink" viewBox="0 0 63.43 39.29"><defs><style>.i{fill:#fff;}.j{fill:url(#h);}.k{fill:url(#f);}.l{fill:url(#g);}.m{fill:url(#e);}.n{fill:url(#d);}.o{fill:url(#b);}.p{fill:url(#c);}</style><linearGradient id="b" x1="2.41" y1="36.39" x2="2.84" y2="2.12" gradientUnits="userSpaceOnUse"><stop offset="0" stop-color="#9c27b0"/><stop offset=".21" stop-color="#9829b0"/><stop offset=".37" stop-color="#8f33b2"/><stop offset=".52" stop-color="#7e42b6"/><stop offset=".65" stop-color="#6759bc"/><stop offset=".78" stop-color="#4975c3"/><stop offset=".9" stop-color="#2598cb"/><stop offset="1" stop-color="#00bcd4"/></linearGradient><linearGradient id="c" x1="60.59" y1="37.13" x2="61.03" y2="2.86" gradientUnits="userSpaceOnUse"><stop offset="0" stop-color="#9c27b0"/><stop offset=".22" stop-color="#9829b0"/><stop offset=".38" stop-color="#8f32b2"/><stop offset=".52" stop-color="#7f42b6"/><stop offset=".65" stop-color="#6858bb"/><stop offset=".78" stop-color="#4a74c2"/><stop offset=".89" stop-color="#2796ca"/><stop offset="1" stop-color="#00bcd4"/></linearGradient><linearGradient id="d" x1="51.55" y1="37.01" x2="51.99" y2="2.74" gradientUnits="userSpaceOnUse"><stop offset="0" stop-color="#9c27b0"/><stop offset=".22" stop-color="#9929b0"/><stop offset=".38" stop-color="#8f32b2"/><stop offset=".52" stop-color="#7f41b6"/><stop offset=".65" stop-color="#6957bb"/><stop offset=".77" stop-color="#4c73c2"/><stop offset=".89" stop-color="#2994ca"/><stop offset="1" stop-color="#00bcd4"/></linearGradient><linearGradient id="e" x1="11.38" y1="36.51" x2="11.81" y2="2.24" gradientUnits="userSpaceOnUse"><stop offset="0" stop-color="#9c27b0"/><stop offset=".17" stop-color="#982ab0"/><stop offset=".33" stop-color="#8c35b3"/><stop offset=".49" stop-color="#7947b7"/><stop offset=".64" stop-color="#5f61be"/><stop offset=".79" stop-color="#3c81c5"/><stop offset=".94" stop-color="#13a9cf"/><stop offset="1" stop-color="#00bcd4"/></linearGradient><linearGradient id="f" x1="31.52" y1="36.76" x2="31.95" y2="2.49" gradientUnits="userSpaceOnUse"><stop offset="0" stop-color="#9c27b0"/><stop offset=".24" stop-color="#714fb9"/><stop offset=".6" stop-color="#3489c7"/><stop offset=".86" stop-color="#0eaed0"/><stop offset="1" stop-color="#00bcd4"/></linearGradient><linearGradient id="g" x1="31.45" y1="33.56" x2="32" y2="6.88" gradientUnits="userSpaceOnUse"><stop offset=".05" stop-color="#5eaccc"/><stop offset=".14" stop-color="#65b8db"/><stop offset=".29" stop-color="#6ec9ef"/><stop offset=".44" stop-color="#74d3fb"/><stop offset=".6" stop-color="#76d7ff"/><stop offset="1" stop-color="#94e0ff"/></linearGradient><linearGradient id="h" x1="31.45" y1="33.56" x2="32" y2="6.88" xlink:href="#g"/></defs><g><path class="o" d="M5.19,11.89c-2.05,2.32-3.8,4.91-5.19,7.71,1.38,2.78,3.12,5.35,5.14,7.66-.69-2.41-1.06-4.96-1.06-7.6s.39-5.31,1.12-7.77Z"/><path class="p" d="M58.35,27.2c2-2.29,3.72-4.84,5.09-7.59-1.38-2.78-3.11-5.35-5.14-7.65,.71,2.45,1.1,5.03,1.1,7.71s-.37,5.14-1.05,7.53Z"/><path class="n" d="M53.54,7.45c-2.01-1.58-4.19-2.93-6.51-4.05,4.33,4.07,7.04,9.85,7.04,16.26s-2.6,11.97-6.79,16.03c2.28-1.12,4.42-2.47,6.39-4.03,1.95-3.56,3.06-7.65,3.06-11.99s-1.16-8.6-3.19-12.21Z"/><path class="m" d="M9.41,19.66c0-6.43,2.72-12.23,7.08-16.3-2.33,1.11-4.51,2.47-6.52,4.04-2.05,3.62-3.22,7.81-3.22,12.26s1.12,8.48,3.1,12.05c1.97,1.55,4.12,2.9,6.4,4.01-4.21-4.06-6.83-9.75-6.83-16.06Z"/><path class="k" d="M33.75,39.22c9.91-1.01,17.65-9.38,17.65-19.56C51.4,8.8,42.6,0,31.74,0S12.07,8.8,12.07,19.66c0,10.2,7.77,18.59,17.72,19.57,.64,.03,1.28,.06,1.93,.06,.68,0,1.36-.02,2.04-.06ZM14.74,19.66C14.74,10.28,22.35,2.66,31.74,2.66s17,7.61,17,17-7.61,17-17,17S14.74,29.05,14.74,19.66Z"/></g><g><path class="l" d="M31.74,5.33c-7.92,0-14.33,6.42-14.33,14.33s6.42,14.33,14.33,14.33,14.33-6.42,14.33-14.33-6.42-14.33-14.33-14.33Zm0,26c-6.45,0-11.67-5.22-11.67-11.67s5.22-11.67,11.67-11.67,11.67,5.22,11.67,11.67-5.22,11.67-11.67,11.67Z"/><path class="j" d="M37.84,17.98c.15,.54,.23,1.1,.23,1.69,0,3.5-2.84,6.34-6.34,6.34s-6.34-2.84-6.34-6.34,2.84-6.34,6.34-6.34c.87,0,1.71,.18,2.46,.5,.14-.93,.64-1.75,1.36-2.3-1.16-.55-2.45-.86-3.82-.86-4.97,0-9.01,4.03-9.01,9.01s4.03,9.01,9.01,9.01,9.01-4.03,9.01-9.01c0-.96-.15-1.88-.43-2.74-.64,.64-1.51,1.03-2.47,1.05Z"/><circle class="i" cx="37.76" cy="14.37" r="1.86"/></g></svg>