<?xml version="1.0" encoding="utf-8"?>
<!-- Generator: Adobe Illustrator 19.1.0, SVG Export Plug-In . SVG Version: 6.00 Build 0)  -->
<svg version="1.1" id="Layer_1" xmlns="http://www.w3.org/2000/svg" xmlns:xlink="http://www.w3.org/1999/xlink" x="0px" y="0px"
	 viewBox="0 0 480 240" style="enable-background:new 0 0 480 240;" xml:space="preserve">
<style type="text/css">
	.st0{opacity:0.3;fill:url(#SVGID_1_);}
	.st1{opacity:0.3;fill:url(#SVGID_2_);}
	.st2{fill:url(#SVGID_3_);}
	.st3{fill:url(#SVGID_4_);}
	.st4{fill:url(#SVGID_5_);}
	.st5{fill:url(#SVGID_6_);}
	.st6{fill:#010101;}
	.st7{fill:url(#SVGID_7_);}
	.st8{fill:#676767;}
	.st9{fill:#020303;}
	.st10{fill:url(#SVGID_8_);}
	.st11{fill:#4A4840;}
</style>
<g>
	<linearGradient id="SVGID_1_" gradientUnits="userSpaceOnUse" x1="60.0149" y1="105.1553" x2="144.0027" y2="105.1553">
		<stop  offset="0" style="stop-color:#F3EDE5"/>
		<stop  offset="0.6126" style="stop-color:#696462"/>
		<stop  offset="1" style="stop-color:#333333"/>
	</linearGradient>
	<path class="st0" d="M139.3,93.1c0,0,5.4,0.2,4.6,2c-0.8,1.8-8.5,5.2-15.2,5.6c-6.7,0.3-29.8,1-41.3,5.4
		c-11.5,4.4-21.1,11.1-21.1,11.1l-6.2-5.1c0,0,29.9-11.7,42-12.6C129.2,97.5,132.3,92.8,139.3,93.1z"/>
	
		<linearGradient id="SVGID_2_" gradientUnits="userSpaceOnUse" x1="334.2444" y1="105.1553" x2="418.2317" y2="105.1553" gradientTransform="matrix(-1 0 0 1 753.6836 0)">
		<stop  offset="0" style="stop-color:#F3EDE5"/>
		<stop  offset="0.6126" style="stop-color:#696462"/>
		<stop  offset="1" style="stop-color:#333333"/>
	</linearGradient>
	<path class="st1" d="M340.1,93.1c0,0-5.4,0.2-4.6,2c0.8,1.8,8.5,5.2,15.2,5.6c6.7,0.3,29.8,1,41.3,5.4
		c11.5,4.4,21.1,11.1,21.1,11.1l6.2-5.1c0,0-29.9-11.7-42-12.6C350.3,97.5,347.2,92.8,340.1,93.1z"/>
	
		<radialGradient id="SVGID_3_" cx="207.1993" cy="176368.0156" r="45.2308" gradientTransform="matrix(1.9817 0 0 6.507500e-002 -279.9783 -11318.2471)" gradientUnits="userSpaceOnUse">
		<stop  offset="0" style="stop-color:#333333"/>
		<stop  offset="0.2109" style="stop-color:#5B5755"/>
		<stop  offset="0.4728" style="stop-color:#908A87"/>
		<stop  offset="0.7013" style="stop-color:#C0BAB5"/>
		<stop  offset="0.8846" style="stop-color:#E2DDD5"/>
		<stop  offset="1" style="stop-color:#F3EDE5"/>
	</radialGradient>
	<ellipse class="st2" cx="130.6" cy="158.9" rx="90.6" ry="3.2"/>
	
		<radialGradient id="SVGID_4_" cx="213.3383" cy="175404.2969" r="45.231" gradientTransform="matrix(0.7636 0 0 6.507500e-002 -27.6773 -11318.2471)" gradientUnits="userSpaceOnUse">
		<stop  offset="0" style="stop-color:#333333"/>
		<stop  offset="0.2109" style="stop-color:#5B5755"/>
		<stop  offset="0.4728" style="stop-color:#908A87"/>
		<stop  offset="0.7013" style="stop-color:#C0BAB5"/>
		<stop  offset="0.8846" style="stop-color:#E2DDD5"/>
		<stop  offset="1" style="stop-color:#F3EDE5"/>
	</radialGradient>
	<ellipse class="st3" cx="135.2" cy="96.2" rx="34.9" ry="3.2"/>
	
		<radialGradient id="SVGID_5_" cx="487.5977" cy="175404.2969" r="45.2316" gradientTransform="matrix(0.7636 0 0 6.507500e-002 -27.6773 -11318.2471)" gradientUnits="userSpaceOnUse">
		<stop  offset="0" style="stop-color:#333333"/>
		<stop  offset="0.2109" style="stop-color:#5B5755"/>
		<stop  offset="0.4728" style="stop-color:#908A87"/>
		<stop  offset="0.7013" style="stop-color:#C0BAB5"/>
		<stop  offset="0.8846" style="stop-color:#E2DDD5"/>
		<stop  offset="1" style="stop-color:#F3EDE5"/>
	</radialGradient>
	<ellipse class="st4" cx="344.7" cy="96.2" rx="34.9" ry="3.2"/>
	
		<radialGradient id="SVGID_6_" cx="312.9759" cy="176368.0156" r="45.2267" gradientTransform="matrix(2.1541 0 0 6.507500e-002 -323.297 -11318.2471)" gradientUnits="userSpaceOnUse">
		<stop  offset="0" style="stop-color:#333333"/>
		<stop  offset="0.2109" style="stop-color:#5B5755"/>
		<stop  offset="0.4728" style="stop-color:#908A87"/>
		<stop  offset="0.7013" style="stop-color:#C0BAB5"/>
		<stop  offset="0.8846" style="stop-color:#E2DDD5"/>
		<stop  offset="1" style="stop-color:#F3EDE5"/>
	</radialGradient>
	<ellipse class="st5" cx="350.9" cy="158.9" rx="98.5" ry="3.2"/>
	<g>
		<path class="st6" d="M131.1,96.2c0,0,4.6,2.3,7.8,0c3.2-2.3,9.8-12.1,9.8-12.1s1-4.2-2-5.9c-2.9-1.7-49.9-32.7-75-35.9
			C46.7,39,58.5,67.7,60.3,69.7c1.7,2,9.1,4.7,9.1,4.7s9.1-16.2,14.7-14.7C89.8,61.2,114.7,87.6,131.1,96.2z"/>
		<linearGradient id="SVGID_7_" gradientUnits="userSpaceOnUse" x1="55.9891" y1="68.5956" x2="148.9095" y2="68.5956">
			<stop  offset="0" style="stop-color:#A4A2A2"/>
			<stop  offset="1" style="stop-color:#000000"/>
		</linearGradient>
		<path class="st7" d="M131.1,95.2c0,0,4.6,2.3,7.8,0c3.2-2.3,9.8-12.1,9.8-12.1s1-4.2-2-5.9c-2.9-1.7-49.9-32.7-75-35.9
			c-25.1-3.2-13.3,25.4-11.6,27.5c1.7,2,9.1,4.7,9.1,4.7s9.1-16.2,14.7-14.7C89.8,60.2,114.7,86.6,131.1,95.2z"/>
		<path class="st8" d="M195.4,28.7c-13.8-2.9-44.2-7.9-68.5-9.2c-24.3-1.3-61.5,1.1-78.7,3c-17.2,2-17.7,6.1-17.7,6.1v7.4l3.7,19.7
			c6.1,0,10.6,5.2,13.3,16.5c2.7,11.3,6.1,35.9,17,58c10.8,22.1,45.2,27.8,60.5,27.8c15.2,0,38.8-1.5,55.1-10.8
			c16.2-9.3,35.9-43.3,42.3-64.4c6.4-21.1,17.7-19.2,17.7-19.2V39C224.2,37.6,209.1,31.7,195.4,28.7z M210.8,64.8
			c0,0-4.9,65.2-40.3,76.7c-35.4,11.5-72.4,4.9-86.5-4.9c-14.1-9.8-25.6-35.4-22-77.7c3.6-42.3,80.7-29.2,89.1-28.5
			C159.6,31.1,214.1,33.3,210.8,64.8z"/>
		<path class="st9" d="M195.4,30.7c-13.8-2.9-44.2-7.9-68.5-9.2c-24.3-1.3-61.5,1.1-78.7,3c-17.2,2-17.7,6.1-17.7,6.1v7.4l3.7,19.7
			c6.1,0,10.6,5.2,13.3,16.5c2.7,11.3,6.1,35.9,17,58c10.8,22.1,45.2,27.8,60.5,27.8c15.2,0,38.8-1.5,55.1-10.8
			c16.2-9.3,35.9-43.3,42.3-64.4c6.4-21.1,17.7-19.2,17.7-19.2V41C224.2,39.5,209.1,33.6,195.4,30.7z M210.8,66.7
			c0,0-4.9,65.2-40.3,76.7c-35.4,11.5-72.4,4.9-86.5-4.9c-14.1-9.8-25.6-35.4-22-77.7c3.6-42.3,80.7-29.2,89.1-28.5
			C159.6,33,214.1,35.3,210.8,66.7z"/>
	</g>
	<g>
		<path class="st6" d="M348.8,96.2c0,0-4.6,2.3-7.8,0c-3.2-2.3-9.8-12.1-9.8-12.1s-1-4.2,2-5.9c2.9-1.7,49.9-32.7,75-35.9
			c25.1-3.2,13.3,25.4,11.6,27.5c-1.7,2-9.1,4.7-9.1,4.7s-9.1-16.2-14.7-14.7C390.1,61.2,365.1,87.6,348.8,96.2z"/>
		
			<linearGradient id="SVGID_8_" gradientUnits="userSpaceOnUse" x1="263.0935" y1="68.5956" x2="356.0135" y2="68.5956" gradientTransform="matrix(-1 0 0 1 687 0)">
			<stop  offset="0" style="stop-color:#A4A2A2"/>
			<stop  offset="1" style="stop-color:#000000"/>
		</linearGradient>
		<path class="st10" d="M348.8,95.2c0,0-4.6,2.3-7.8,0c-3.2-2.3-9.8-12.1-9.8-12.1s-1-4.2,2-5.9c2.9-1.7,49.9-32.7,75-35.9
			c25.1-3.2,13.3,25.4,11.6,27.5c-1.7,2-9.1,4.7-9.1,4.7s-9.1-16.2-14.7-14.7C390.1,60.2,365.1,86.6,348.8,95.2z"/>
		<path class="st8" d="M239.9,39v24.6c0,0,11.3-2,17.7,19.2c6.4,21.1,26.1,55.1,42.3,64.4c16.2,9.3,39.8,10.8,55.1,10.8
			c15.2,0,49.7-5.7,60.5-27.8c10.8-22.1,14.3-46.7,17-58c2.7-11.3,7.1-16.5,13.3-16.5l3.7-19.7v-7.4c0,0-0.5-4.2-17.7-6.1
			c-17.2-2-54.4-4.3-78.7-3c-24.3,1.3-54.7,6.2-68.5,9.2C270.8,31.7,255.7,37.6,239.9,39z M328.8,30.4c8.5-0.7,85.5-13.8,89.1,28.5
			c3.6,42.3-7.9,67.8-22,77.7c-14.1,9.8-51.1,16.4-86.5,4.9C274,130,269.1,64.8,269.1,64.8C265.8,33.3,320.3,31.1,328.8,30.4z"/>
		<path class="st9" d="M239.9,41v24.6c0,0,11.3-2,17.7,19.2c6.4,21.1,26.1,55.1,42.3,64.4c16.2,9.3,39.8,10.8,55.1,10.8
			c15.2,0,49.7-5.7,60.5-27.8c10.8-22.1,14.3-46.7,17-58c2.7-11.3,7.1-16.5,13.3-16.5l3.7-19.7v-7.4c0,0-0.5-4.2-17.7-6.1
			c-17.2-2-54.4-4.3-78.7-3c-24.3,1.3-54.7,6.2-68.5,9.2C270.8,33.6,255.7,39.5,239.9,41z M328.8,32.3c8.5-0.7,85.5-13.8,89.1,28.5
			c3.6,42.3-7.9,67.8-22,77.7c-14.1,9.8-51.1,16.4-86.5,4.9C274,132,269.1,66.7,269.1,66.7C265.8,35.3,320.3,33,328.8,32.3z"/>
	</g>
</g>
<polygon class="st11" points="272,221.7 300.8,197.1 302.9,197.1 270.5,168.8 268.5,171.2 294.6,193.9 235,193.9 235,197.1 
	296,197.1 269.9,219.4 "/>
<polygon class="st11" points="196.1,221.7 167.3,197.1 165.2,197.1 197.6,168.8 199.6,171.2 173.5,193.9 276.2,193.9 276.2,197.1 
	172.1,197.1 198.2,219.4 "/>
</svg>
