<?xml version="1.0" encoding="utf-8"?>
<!-- Generator: Adobe Illustrator 19.1.0, SVG Export Plug-In . SVG Version: 6.00 Build 0)  -->
<svg version="1.1" id="Layer_2" xmlns="http://www.w3.org/2000/svg" xmlns:xlink="http://www.w3.org/1999/xlink" x="0px" y="0px"
	 viewBox="0 0 480 240" style="enable-background:new 0 0 480 240;" xml:space="preserve">
<style type="text/css">
	.st0{opacity:0.3;fill:url(#SVGID_1_);}
	.st1{opacity:0.3;fill:url(#SVGID_2_);}
	.st2{fill:url(#SVGID_3_);}
	.st3{fill:url(#SVGID_4_);}
	.st4{fill:url(#SVGID_5_);}
	.st5{fill:url(#SVGID_6_);}
	.st6{fill:#010101;}
	.st7{fill:url(#SVGID_7_);}
	.st8{fill:#676767;}
	.st9{fill:#020303;}
	.st10{fill:url(#SVGID_8_);}
	.st11{fill:#4A4840;}
</style>
<g>
	<linearGradient id="SVGID_1_" gradientUnits="userSpaceOnUse" x1="60.3065" y1="105.3442" x2="144.1581" y2="105.3442">
		<stop  offset="0" style="stop-color:#F3EDE5"/>
		<stop  offset="0.6126" style="stop-color:#696462"/>
		<stop  offset="1" style="stop-color:#333333"/>
	</linearGradient>
	<path class="st0" d="M139.5,93.3c0,0,5.4,0.2,4.6,2c-0.8,1.8-8.5,5.2-15.2,5.6c-6.7,0.3-29.8,1-41.2,5.4
		c-11.5,4.4-21.1,11.1-21.1,11.1l-6.2-5.1c0,0,29.9-11.7,41.9-12.6C129.3,97.7,132.5,93,139.5,93.3z"/>
	
		<linearGradient id="SVGID_2_" gradientUnits="userSpaceOnUse" x1="334.5352" y1="105.3442" x2="418.3864" y2="105.3442" gradientTransform="matrix(-1 0 0 1 753.6836 0)">
		<stop  offset="0" style="stop-color:#F3EDE5"/>
		<stop  offset="0.6126" style="stop-color:#696462"/>
		<stop  offset="1" style="stop-color:#333333"/>
	</linearGradient>
	<path class="st1" d="M340,93.3c0,0-5.4,0.2-4.6,2c0.8,1.8,8.5,5.2,15.2,5.6c6.7,0.3,29.8,1,41.2,5.4c11.5,4.4,21.1,11.1,21.1,11.1
		l6.2-5.1c0,0-29.9-11.7-41.9-12.6C350.1,97.7,347,93,340,93.3z"/>
	
		<radialGradient id="SVGID_3_" cx="207.2887" cy="176369.5938" r="45.1576" gradientTransform="matrix(1.9817 0 0 6.507500e-002 -279.9783 -11318.2471)" gradientUnits="userSpaceOnUse">
		<stop  offset="0" style="stop-color:#333333"/>
		<stop  offset="0.2109" style="stop-color:#5B5755"/>
		<stop  offset="0.4728" style="stop-color:#908A87"/>
		<stop  offset="0.7013" style="stop-color:#C0BAB5"/>
		<stop  offset="0.8846" style="stop-color:#E2DDD5"/>
		<stop  offset="1" style="stop-color:#F3EDE5"/>
	</radialGradient>
	<ellipse class="st2" cx="130.8" cy="159" rx="90.5" ry="3.2"/>
	
		<radialGradient id="SVGID_4_" cx="213.5605" cy="175407.4219" r="45.1577" gradientTransform="matrix(0.7636 0 0 6.507500e-002 -27.6773 -11318.2471)" gradientUnits="userSpaceOnUse">
		<stop  offset="0" style="stop-color:#333333"/>
		<stop  offset="0.2109" style="stop-color:#5B5755"/>
		<stop  offset="0.4728" style="stop-color:#908A87"/>
		<stop  offset="0.7013" style="stop-color:#C0BAB5"/>
		<stop  offset="0.8846" style="stop-color:#E2DDD5"/>
		<stop  offset="1" style="stop-color:#F3EDE5"/>
	</radialGradient>
	<ellipse class="st3" cx="135.4" cy="96.4" rx="34.9" ry="3.2"/>
	
		<radialGradient id="SVGID_5_" cx="487.3755" cy="175407.4219" r="45.1583" gradientTransform="matrix(0.7636 0 0 6.507500e-002 -27.6773 -11318.2471)" gradientUnits="userSpaceOnUse">
		<stop  offset="0" style="stop-color:#333333"/>
		<stop  offset="0.2109" style="stop-color:#5B5755"/>
		<stop  offset="0.4728" style="stop-color:#908A87"/>
		<stop  offset="0.7013" style="stop-color:#C0BAB5"/>
		<stop  offset="0.8846" style="stop-color:#E2DDD5"/>
		<stop  offset="1" style="stop-color:#F3EDE5"/>
	</radialGradient>
	<ellipse class="st4" cx="344.5" cy="96.4" rx="34.9" ry="3.2"/>
	
		<radialGradient id="SVGID_6_" cx="312.8924" cy="176369.5938" r="45.1534" gradientTransform="matrix(2.1541 0 0 6.507500e-002 -323.297 -11318.2471)" gradientUnits="userSpaceOnUse">
		<stop  offset="0" style="stop-color:#333333"/>
		<stop  offset="0.2109" style="stop-color:#5B5755"/>
		<stop  offset="0.4728" style="stop-color:#908A87"/>
		<stop  offset="0.7013" style="stop-color:#C0BAB5"/>
		<stop  offset="0.8846" style="stop-color:#E2DDD5"/>
		<stop  offset="1" style="stop-color:#F3EDE5"/>
	</radialGradient>
	<ellipse class="st5" cx="350.7" cy="159" rx="98.3" ry="3.2"/>
	<g>
		<path class="st6" d="M131.3,96.4c0,0,4.6,2.3,7.8,0c3.2-2.3,9.8-12.1,9.8-12.1s1-4.2-2-5.9c-2.9-1.7-49.8-32.6-74.9-35.8
			c-25-3.2-13.3,25.4-11.5,27.4c1.7,2,9.1,4.7,9.1,4.7S78.7,58.5,84.4,60C90,61.4,115,87.8,131.3,96.4z"/>
		<linearGradient id="SVGID_7_" gradientUnits="userSpaceOnUse" x1="56.2871" y1="68.8437" x2="149.057" y2="68.8437">
			<stop  offset="0" style="stop-color:#A4A2A2"/>
			<stop  offset="1" style="stop-color:#000000"/>
		</linearGradient>
		<path class="st7" d="M131.3,95.4c0,0,4.6,2.3,7.8,0c3.2-2.3,9.8-12.1,9.8-12.1s1-4.2-2-5.9c-2.9-1.7-49.8-32.6-74.9-35.8
			c-25-3.2-13.3,25.4-11.5,27.4c1.7,2,9.1,4.7,9.1,4.7S78.7,57.5,84.4,59C90,60.4,115,86.9,131.3,95.4z"/>
		<path class="st8" d="M195.4,29c-13.7-2.9-44.2-7.9-68.4-9.2c-24.2-1.3-61.4,1.1-78.5,3c-17.2,2-17.7,6.1-17.7,6.1v7.4L34.5,56
			c6.1,0,10.6,5.2,13.3,16.4c2.7,11.3,6.1,35.8,16.9,57.9c10.8,22.1,45.2,27.7,60.4,27.7c15.2,0,38.8-1.5,55-10.8
			s35.8-43.2,42.2-64.3c6.4-21.1,17.7-19.1,17.7-19.1V39.3C224.2,37.9,209.2,32,195.4,29z M210.8,65c0,0-4.9,65.1-40.2,76.6
			c-35.3,11.5-72.3,4.9-86.4-4.9c-14.1-9.8-25.5-35.3-21.9-77.6c3.6-42.2,80.6-29.2,89-28.5C159.7,31.4,214.1,33.6,210.8,65z"/>
		<path class="st9" d="M195.4,31c-13.7-2.9-44.2-7.9-68.4-9.2c-24.2-1.3-61.4,1.1-78.5,3c-17.2,2-17.7,6.1-17.7,6.1v7.4L34.5,58
			c6.1,0,10.6,5.2,13.3,16.4c2.7,11.3,6.1,35.8,16.9,57.9c10.8,22.1,45.2,27.7,60.4,27.7c15.2,0,38.8-1.5,55-10.8
			c16.2-9.3,35.8-43.2,42.2-64.3c6.4-21.1,17.7-19.1,17.7-19.1V41.3C224.2,39.8,209.2,33.9,195.4,31z M210.8,67
			c0,0-4.9,65.1-40.2,76.6s-72.3,4.9-86.4-4.9c-14.1-9.8-25.5-35.3-21.9-77.6c3.6-42.2,80.6-29.2,89-28.5
			C159.7,33.3,214.1,35.6,210.8,67z"/>
	</g>
	<g>
		<path class="st6" d="M348.6,96.4c0,0-4.6,2.3-7.8,0c-3.2-2.3-9.8-12.1-9.8-12.1s-1-4.2,2-5.9c2.9-1.7,49.8-32.6,74.9-35.8
			c25-3.2,13.3,25.4,11.5,27.4c-1.7,2-9.1,4.7-9.1,4.7s-9.1-16.2-14.7-14.7S364.9,87.8,348.6,96.4z"/>
		
			<linearGradient id="SVGID_8_" gradientUnits="userSpaceOnUse" x1="263.3916" y1="68.8437" x2="356.161" y2="68.8437" gradientTransform="matrix(-1 0 0 1 687 0)">
			<stop  offset="0" style="stop-color:#A4A2A2"/>
			<stop  offset="1" style="stop-color:#000000"/>
		</linearGradient>
		<path class="st10" d="M348.6,95.4c0,0-4.6,2.3-7.8,0c-3.2-2.3-9.8-12.1-9.8-12.1s-1-4.2,2-5.9c2.9-1.7,49.8-32.6,74.9-35.8
			c25-3.2,13.3,25.4,11.5,27.4c-1.7,2-9.1,4.7-9.1,4.7s-9.1-16.2-14.7-14.7C389.9,60.4,364.9,86.9,348.6,95.4z"/>
		<path class="st8" d="M239.9,39.3v24.5c0,0,11.3-2,17.7,19.1c6.4,21.1,26,55,42.2,64.3c16.2,9.3,39.8,10.8,55,10.8
			c15.2,0,49.6-5.6,60.4-27.7c10.8-22.1,14.2-46.6,16.9-57.9c2.7-11.3,7.1-16.4,13.3-16.4l3.7-19.6V29c0,0-0.5-4.2-17.7-6.1
			c-17.2-2-54.3-4.3-78.5-3c-24.2,1.3-54.6,6.2-68.4,9.2C270.7,32,255.7,37.9,239.9,39.3z M328.6,30.7c8.4-0.7,85.4-13.7,89,28.5
			c3.6,42.2-7.9,67.7-21.9,77.6c-14.1,9.8-51,16.4-86.4,4.9C274,130.1,269.1,65,269.1,65C265.8,33.6,320.2,31.4,328.6,30.7z"/>
		<path class="st9" d="M239.9,41.3v24.5c0,0,11.3-2,17.7,19.1c6.4,21.1,26,55,42.2,64.3c16.2,9.3,39.8,10.8,55,10.8
			c15.2,0,49.6-5.6,60.4-27.7c10.8-22.1,14.2-46.6,16.9-57.9c2.7-11.3,7.1-16.4,13.3-16.4l3.7-19.6V31c0,0-0.5-4.2-17.7-6.1
			c-17.2-2-54.3-4.3-78.5-3c-24.2,1.3-54.6,6.2-68.4,9.2C270.7,33.9,255.7,39.8,239.9,41.3z M328.6,32.6c8.4-0.7,85.4-13.7,89,28.5
			c3.6,42.2-7.9,67.7-21.9,77.6c-14.1,9.8-51,16.4-86.4,4.9C274,132.1,269.1,67,269.1,67C265.8,35.6,320.2,33.3,328.6,32.6z"/>
	</g>
</g>
<polygon class="st11" points="173.2,221.7 202.1,197.1 204.2,197.1 171.8,168.9 169.8,171.2 195.9,194 136.3,194 136.3,197.1 
	197.3,197.1 171.2,219.4 "/>
<polygon class="st11" points="87.1,221.7 58.3,197.1 56.2,197.1 88.6,168.9 90.6,171.2 64.5,194 167,194 167,197.1 63.1,197.1 
	89.1,219.4 "/>
</svg>
