<?xml version="1.0" encoding="utf-8"?>
<!-- Generator: Adobe Illustrator 19.1.0, SVG Export Plug-In . SVG Version: 6.00 Build 0)  -->
<svg version="1.1" id="Layer_2" xmlns="http://www.w3.org/2000/svg" xmlns:xlink="http://www.w3.org/1999/xlink" x="0px" y="0px"
	 viewBox="0 121 480 240" style="enable-background:new 0 121 480 240;" xml:space="preserve">
<style type="text/css">
	.st0{fill:#4A4840;}
	.st1{opacity:0.3;fill:url(#SVGID_1_);enable-background:new    ;}
	.st2{opacity:0.3;fill:url(#SVGID_2_);enable-background:new    ;}
	.st3{fill:url(#SVGID_3_);}
	.st4{fill:url(#SVGID_4_);}
	.st5{fill:url(#SVGID_5_);}
	.st6{fill:url(#SVGID_6_);}
	.st7{fill:#010101;}
	.st8{fill:url(#SVGID_7_);}
	.st9{fill:#676767;}
	.st10{fill:#020303;}
	.st11{fill:url(#SVGID_8_);}
</style>
<polygon class="st0" points="3.1,251 26.1,278 26.1,280.1 52.6,249.7 50.5,247.8 29,272.3 29,216.4 26.1,216.4 26.1,273.6 
	5.3,249.2 "/>
<polygon class="st0" points="3.1,175 26.1,148 26.1,146.1 52.6,176.5 50.5,178.4 29,153.9 29,250.1 26.1,250.1 26.1,152.6 5.3,177 
	"/>
<g>
	
		<linearGradient id="SVGID_1_" gradientUnits="userSpaceOnUse" x1="80.3065" y1="257.6569" x2="164.0873" y2="257.6569" gradientTransform="matrix(1 0 0 -1 0 484)">
		<stop  offset="0" style="stop-color:#F3EDE5"/>
		<stop  offset="0.6126" style="stop-color:#696462"/>
		<stop  offset="1" style="stop-color:#333333"/>
	</linearGradient>
	<path class="st1" d="M159.5,214.3c0,0,5.4,0.2,4.6,2c-0.8,1.8-8.5,5.2-15.2,5.6c-6.7,0.3-29.8,1-41.2,5.4
		c-11.5,4.4-21.1,11.1-21.1,11.1l-6.2-5.1c0,0,29.9-11.7,41.9-12.6C149.3,218.7,152.5,214,159.5,214.3z"/>
	
		<linearGradient id="SVGID_2_" gradientUnits="userSpaceOnUse" x1="314.5836" y1="257.6569" x2="398.3644" y2="257.6569" gradientTransform="matrix(-1 0 0 -1 753.6836 484)">
		<stop  offset="0" style="stop-color:#F3EDE5"/>
		<stop  offset="0.6126" style="stop-color:#696462"/>
		<stop  offset="1" style="stop-color:#333333"/>
	</linearGradient>
	<path class="st2" d="M360,214.3c0,0-5.4,0.2-4.6,2s8.5,5.2,15.2,5.6c6.7,0.3,29.8,1,41.2,5.4c11.5,4.4,21.1,11.1,21.1,11.1l6.2-5.1
		c0,0-29.9-11.7-41.9-12.6C370.1,218.7,367,214,360,214.3z"/>
	
		<radialGradient id="SVGID_3_" cx="217.3782" cy="-177716.1875" r="45.1233" gradientTransform="matrix(1.9817 0 0 -6.507500e-002 -279.9783 -11284.8809)" gradientUnits="userSpaceOnUse">
		<stop  offset="0" style="stop-color:#333333"/>
		<stop  offset="0.2109" style="stop-color:#5B5755"/>
		<stop  offset="0.4728" style="stop-color:#908A87"/>
		<stop  offset="0.7013" style="stop-color:#C0BAB5"/>
		<stop  offset="0.8846" style="stop-color:#E2DDD5"/>
		<stop  offset="1" style="stop-color:#F3EDE5"/>
	</radialGradient>
	<ellipse class="st3" cx="150.8" cy="280" rx="90.5" ry="3.2"/>
	
		<radialGradient id="SVGID_4_" cx="239.7555" cy="-176754.0781" r="45.1562" gradientTransform="matrix(0.7636 0 0 -6.507500e-002 -27.6773 -11284.8809)" gradientUnits="userSpaceOnUse">
		<stop  offset="0" style="stop-color:#333333"/>
		<stop  offset="0.2109" style="stop-color:#5B5755"/>
		<stop  offset="0.4728" style="stop-color:#908A87"/>
		<stop  offset="0.7013" style="stop-color:#C0BAB5"/>
		<stop  offset="0.8846" style="stop-color:#E2DDD5"/>
		<stop  offset="1" style="stop-color:#F3EDE5"/>
	</radialGradient>
	<ellipse class="st4" cx="155.4" cy="217.4" rx="34.9" ry="3.2"/>
	
		<radialGradient id="SVGID_5_" cx="513.59" cy="-176754.0781" r="45.1478" gradientTransform="matrix(0.7636 0 0 -6.507500e-002 -27.6773 -11284.8809)" gradientUnits="userSpaceOnUse">
		<stop  offset="0" style="stop-color:#333333"/>
		<stop  offset="0.2109" style="stop-color:#5B5755"/>
		<stop  offset="0.4728" style="stop-color:#908A87"/>
		<stop  offset="0.7013" style="stop-color:#C0BAB5"/>
		<stop  offset="0.8846" style="stop-color:#E2DDD5"/>
		<stop  offset="1" style="stop-color:#F3EDE5"/>
	</radialGradient>
	<ellipse class="st5" cx="364.5" cy="217.4" rx="34.9" ry="3.2"/>
	
		<radialGradient id="SVGID_6_" cx="322.1749" cy="-177716.1875" r="45.1187" gradientTransform="matrix(2.1541 0 0 -6.507500e-002 -323.297 -11284.8809)" gradientUnits="userSpaceOnUse">
		<stop  offset="0" style="stop-color:#333333"/>
		<stop  offset="0.2109" style="stop-color:#5B5755"/>
		<stop  offset="0.4728" style="stop-color:#908A87"/>
		<stop  offset="0.7013" style="stop-color:#C0BAB5"/>
		<stop  offset="0.8846" style="stop-color:#E2DDD5"/>
		<stop  offset="1" style="stop-color:#F3EDE5"/>
	</radialGradient>
	<ellipse class="st6" cx="370.7" cy="280" rx="98.3" ry="3.2"/>
	<g>
		<path class="st7" d="M151.3,217.4c0,0,4.6,2.3,7.8,0c3.2-2.3,9.8-12.1,9.8-12.1s1-4.2-2-5.9c-2.9-1.7-49.8-32.6-74.9-35.8
			C67,160.4,78.7,189,80.5,191c1.7,2,9.1,4.7,9.1,4.7s9.1-16.2,14.8-14.7C110,182.4,135,208.8,151.3,217.4z"/>
		
			<linearGradient id="SVGID_7_" gradientUnits="userSpaceOnUse" x1="76.1999" y1="294.1136" x2="169.06" y2="294.1136" gradientTransform="matrix(1 0 0 -1 0 484)">
			<stop  offset="0" style="stop-color:#A4A2A2"/>
			<stop  offset="1" style="stop-color:#000000"/>
		</linearGradient>
		<path class="st8" d="M151.3,216.4c0,0,4.6,2.3,7.8,0c3.2-2.3,9.8-12.1,9.8-12.1s1-4.2-2-5.9c-2.9-1.7-49.8-32.6-74.9-35.8
			C67,159.4,78.7,188,80.5,190c1.7,2,9.1,4.7,9.1,4.7s9.1-16.2,14.8-14.7C110,181.4,135,207.9,151.3,216.4z"/>
		<path class="st9" d="M215.4,150c-13.7-2.9-44.2-7.9-68.4-9.2s-61.4,1.1-78.5,3c-17.2,2-17.7,6.1-17.7,6.1v7.4l3.7,19.7
			c6.1,0,10.6,5.2,13.3,16.4c2.7,11.3,6.1,35.8,16.9,57.9s45.2,27.7,60.4,27.7c15.2,0,38.8-1.5,55-10.8
			c16.2-9.3,35.8-43.2,42.2-64.3s17.7-19.1,17.7-19.1v-24.5C244.2,158.9,229.2,153,215.4,150z M230.8,186c0,0-4.9,65.1-40.2,76.6
			s-72.3,4.9-86.4-4.9c-14.1-9.8-25.5-35.3-21.9-77.6c3.6-42.2,80.6-29.2,89-28.5C179.7,152.4,234.1,154.6,230.8,186z"/>
		<path class="st10" d="M215.4,152c-13.7-2.9-44.2-7.9-68.4-9.2s-61.4,1.1-78.5,3c-17.2,2-17.7,6.1-17.7,6.1v7.4l3.7,19.7
			c6.1,0,10.6,5.2,13.3,16.4c2.7,11.3,6.1,35.8,16.9,57.9s45.2,27.7,60.4,27.7c15.2,0,38.8-1.5,55-10.8
			c16.2-9.3,35.8-43.2,42.2-64.3s17.7-19.1,17.7-19.1v-24.5C244.2,160.8,229.2,154.9,215.4,152z M230.8,188c0,0-4.9,65.1-40.2,76.6
			s-72.3,4.9-86.4-4.9c-14.1-9.8-25.5-35.3-21.9-77.6c3.6-42.2,80.6-29.2,89-28.5C179.7,154.3,234.1,156.6,230.8,188z"/>
	</g>
	<g>
		<path class="st7" d="M368.6,217.4c0,0-4.6,2.3-7.8,0c-3.2-2.3-9.8-12.1-9.8-12.1s-1-4.2,2-5.9c2.9-1.7,49.8-32.6,74.9-35.8
			c25-3.2,13.3,25.4,11.5,27.4c-1.7,2-9.1,4.7-9.1,4.7s-9.1-16.2-14.7-14.7S384.9,208.8,368.6,217.4z"/>
		
			<linearGradient id="SVGID_8_" gradientUnits="userSpaceOnUse" x1="243.2998" y1="294.1136" x2="336.16" y2="294.1136" gradientTransform="matrix(-1 0 0 -1 687 484)">
			<stop  offset="0" style="stop-color:#A4A2A2"/>
			<stop  offset="1" style="stop-color:#000000"/>
		</linearGradient>
		<path class="st11" d="M368.6,216.4c0,0-4.6,2.3-7.8,0c-3.2-2.3-9.8-12.1-9.8-12.1s-1-4.2,2-5.9c2.9-1.7,49.8-32.6,74.9-35.8
			c25-3.2,13.3,25.4,11.5,27.4c-1.7,2-9.1,4.7-9.1,4.7s-9.1-16.2-14.7-14.7C409.9,181.4,384.9,207.9,368.6,216.4z"/>
		<path class="st9" d="M259.9,160.3v24.5c0,0,11.3-2,17.7,19.1s26,55,42.2,64.3c16.2,9.3,39.8,10.8,55,10.8s49.6-5.6,60.4-27.7
			s14.2-46.6,16.9-57.9c2.7-11.3,7.1-16.4,13.3-16.4l3.7-19.6V150c0,0-0.5-4.2-17.7-6.1c-17.2-2-54.3-4.3-78.5-3
			c-24.2,1.3-54.6,6.2-68.4,9.2C290.7,153,275.7,158.9,259.9,160.3z M348.6,151.7c8.4-0.7,85.4-13.7,89,28.5s-7.9,67.7-21.9,77.6
			c-14.1,9.8-51,16.4-86.4,4.9C294,251.1,289.1,186,289.1,186C285.8,154.6,340.2,152.4,348.6,151.7z"/>
		<path class="st10" d="M259.9,162.3v24.5c0,0,11.3-2,17.7,19.1s26,55,42.2,64.3c16.2,9.3,39.8,10.8,55,10.8s49.6-5.6,60.4-27.7
			s14.2-46.6,16.9-57.9c2.7-11.3,7.1-16.4,13.3-16.4l3.7-19.6V152c0,0-0.5-4.2-17.7-6.1c-17.2-2-54.3-4.3-78.5-3
			c-24.2,1.3-54.6,6.2-68.4,9.2C290.7,154.9,275.7,160.8,259.9,162.3z M348.6,153.6c8.4-0.7,85.4-13.7,89,28.5s-7.9,67.7-21.9,77.6
			c-14.1,9.8-51,16.4-86.4,4.9C294,253.1,289.1,188,289.1,188C285.8,156.6,340.2,154.3,348.6,153.6z"/>
	</g>
</g>
</svg>
