<?xml version="1.0" encoding="utf-8"?>
<!-- Generator: Adobe Illustrator 19.1.0, SVG Export Plug-In . SVG Version: 6.00 Build 0)  -->
<svg version="1.1" id="Layer_2" xmlns="http://www.w3.org/2000/svg" xmlns:xlink="http://www.w3.org/1999/xlink" x="0px" y="0px"
	 viewBox="0 0 480 240" style="enable-background:new 0 0 480 240;" xml:space="preserve">
<style type="text/css">
	.st0{fill:url(#SVGID_1_);}
	.st1{fill:#2D2C2D;}
	.st2{fill:#D3D1D2;}
	.st3{fill:url(#SVGID_2_);}
	.st4{fill:url(#SVGID_3_);}
	.st5{fill:url(#SVGID_4_);}
	.st6{fill:#787879;}
	.st7{fill:url(#SVGID_5_);}
	.st8{fill:url(#SVGID_6_);}
	.st9{fill:url(#SVGID_7_);}
	.st10{fill:url(#SVGID_8_);}
	.st11{fill:url(#SVGID_9_);}
	.st12{fill:#4A4840;}
</style>
<g>
	<linearGradient id="SVGID_1_" gradientUnits="userSpaceOnUse" x1="58.4517" y1="144.9464" x2="67.9338" y2="157.6663">
		<stop  offset="0" style="stop-color:#333333"/>
		<stop  offset="0.1138" style="stop-color:#393838"/>
		<stop  offset="0.2766" style="stop-color:#484545"/>
		<stop  offset="0.4688" style="stop-color:#625F5E"/>
		<stop  offset="0.6834" style="stop-color:#8F8B8B"/>
		<stop  offset="0.914" style="stop-color:#D5D3D3"/>
		<stop  offset="1" style="stop-color:#FFFFFF"/>
	</linearGradient>
	<path class="st0" d="M53.7,146.4c0,0,4.4,9.8,7.5,11.2c3.1,1.4,15.7,2,12.6-2c-3.1-4-6.5-2.4-8.2-7C64,143.9,53.7,146.4,53.7,146.4
		z"/>
	<g>
		<path class="st1" d="M52.8,121.2c0,0,1.2,8.2,6.2,19.6c5,11.4-6.8,3.3-6.9-7.8C52,121.9,52.8,121.2,52.8,121.2z"/>
		<path class="st2" d="M45.7,35.2c0,0-0.2,4.6,0,15c0,0,0.5-9.3,3.2-11.1C51.7,37.4,45.7,35.2,45.7,35.2z"/>
		<linearGradient id="SVGID_2_" gradientUnits="userSpaceOnUse" x1="45.7258" y1="90.8882" x2="66.6856" y2="90.8882">
			<stop  offset="0" style="stop-color:#E6E6E5"/>
			<stop  offset="8.813196e-002" style="stop-color:#D9D8D8"/>
			<stop  offset="0.3367" style="stop-color:#BBBABA"/>
			<stop  offset="0.5769" style="stop-color:#A8A7A7"/>
			<stop  offset="0.8029" style="stop-color:#9C9C9C"/>
			<stop  offset="1" style="stop-color:#989898"/>
		</linearGradient>
		<path class="st3" d="M45.7,30.4v6c0,0,4,3.6,5.7,10.8c1.6,7.2,1.4,25.7,1.4,25.7s2.6,1.8,2.7,6.5c0.1,4.6,2.3,51.2,3.2,58.6
			c0.9,7.4,0.1,7.4-0.8,7.2c-0.9-0.2-4.6-10.1-5.5-13.1c-0.9-3-4.7-2.2-4,1.5c0.7,3.7,6.1,16.4,8.8,17.7c2.6,1.3,3.8-2.8,2.6-17.4
			c-1.2-14.5-2.9-55.7-2.9-55.7l5-8.7l-2.1-5.5l7-21.6C66.7,42.3,50.6,31.6,45.7,30.4z"/>
		<path class="st1" d="M72.8,72.5c0,0-3.3,1.1-3.8,6.5c-0.5,5.3,1.9,63.6,1.9,63.6s-0.6,9.1-5.1,9.6s-7.7,0.9-8.7-0.9
			c0,0,4.4,2.1,3.1-11.2C59,126.7,55,81.7,57.2,76.8c2.2-4.9,4.7-7.4,4.7-7.4L72.8,72.5z"/>
		<path class="st1" d="M69.7,76c0,0,1.5,6.7-0.5,16.3l0.1,3.9c0,0,4.8-8.3,5-23.3C74.3,72.8,71.3,72.5,69.7,76z"/>
		<linearGradient id="SVGID_3_" gradientUnits="userSpaceOnUse" x1="78.8515" y1="14.3657" x2="58.9623" y2="31.0171">
			<stop  offset="0" style="stop-color:#E6E6E5"/>
			<stop  offset="0.1855" style="stop-color:#DDDDDD"/>
			<stop  offset="0.48" style="stop-color:#C8C7C6"/>
			<stop  offset="0.8449" style="stop-color:#A7A6A6"/>
			<stop  offset="1" style="stop-color:#989898"/>
		</linearGradient>
		<path class="st4" d="M91.1,17.9c0,0-22-6.5-29.1-2.5c-7.2,3.9-8.6,9.9-9.2,15c0,0,7.9,1.4,11,6.8c0,0-3.2-11,3.9-13.3
			C74.9,21.6,91.1,17.9,91.1,17.9z"/>
		<linearGradient id="SVGID_4_" gradientUnits="userSpaceOnUse" x1="69.8215" y1="97.812" x2="82.8986" y2="97.812">
			<stop  offset="0" style="stop-color:#989898"/>
			<stop  offset="0.2852" style="stop-color:#9B9A9B"/>
			<stop  offset="0.4836" style="stop-color:#A2A1A2"/>
			<stop  offset="0.6556" style="stop-color:#AFAEAE"/>
			<stop  offset="0.8127" style="stop-color:#C2C1C1"/>
			<stop  offset="0.9581" style="stop-color:#DCDCDB"/>
			<stop  offset="1" style="stop-color:#E6E6E5"/>
		</linearGradient>
		<path class="st5" d="M82.8,101.6c0,0,0.3,7.5-4,13.1c-4.3,5.6-8.7,7.6-8.7,7.6l-0.4-10.3c0,0,6.8-9.1,6.5-18
			c-0.2-8.9,0.3-20.5,0.3-20.5S83.6,72.9,82.8,101.6z"/>
		<path class="st6" d="M69.8,23.2c0,0,5.9,5.2,5.1,19.9l3.9,0.8C78.8,43.9,80.8,23.5,69.8,23.2z"/>
		<linearGradient id="SVGID_5_" gradientUnits="userSpaceOnUse" x1="63.7647" y1="65.1457" x2="391.8831" y2="65.1457">
			<stop  offset="0" style="stop-color:#989898"/>
			<stop  offset="0.1551" style="stop-color:#A7A6A6"/>
			<stop  offset="0.52" style="stop-color:#C8C7C6"/>
			<stop  offset="0.8145" style="stop-color:#DDDDDD"/>
			<stop  offset="1" style="stop-color:#E6E6E5"/>
		</linearGradient>
		<path class="st7" d="M71.8,113.7l1.1-1.6l0.6-2.1l5-6.9c0,0,4.3,0.2,4.4-2.5c0.1-2.8,0-26.2,0-26.2l0.1-33.9l5.7-2.3v-2h2.2v1.8
			c0,0,76.9,15.6,87.8,16.9c11,1.3,66.5,7.6,66.5,7.6s39-7.7,51.2-3.2c12.2,4.5,22.9,11.1,31.6,17.9l61.5,20c0,0,2.7-2.8,2.4-3.8
			c-0.3-1.1-6.5-5.7-11.1-8.8c-4.6-3.1-45.5-32.5-125-46.4C176.2,24.3,91.1,16.9,91.1,16.9s-8.3-1.4-12.5,1.2c0,0-14.6-1.4-14.8,7.7
			c0,0,6.1-8,11.9,0c5.8,8,3.1,17.1,3.1,17.1l1.6,1.4l-3.8,28.1l2.7,3c0,0,1.9,12.5,0.7,17.6c-1.2,5.1-3.1,10.1-5,12.5
			C73.2,107.9,70.6,110.8,71.8,113.7z"/>
		<path class="st1" d="M71.8,114.7l1.1-1.6l0.6-2.1l5-6.9c0,0,4.3,0.2,4.4-2.5c0.1-2.8,0-26.2,0-26.2l0.1-33.9l5.7-2.3v-2h2.2V39
			c0,0,76.9,15.6,87.8,16.9c11,1.3,66.5,7.6,66.5,7.6s39-7.7,51.2-3.2c12.2,4.5,22.9,11.1,31.6,17.9l61.5,20c0,0,2.7-2.8,2.4-3.8
			c-0.3-1.1-6.5-5.7-11.1-8.8c-4.6-3.1-45.5-32.5-125-46.4C176.2,25.3,91.1,17.9,91.1,17.9s-8.3-1.4-12.5,1.2c0,0-14.6-1.4-14.8,7.7
			c0,0,6.1-8,11.9,0c5.8,8,3.1,17.1,3.1,17.1l1.6,1.4l-3.8,28.1l2.7,3c0,0,1.9,12.5,0.7,17.6c-1.2,5.1-3.1,10.1-5,12.5
			C73.2,108.9,70.6,111.8,71.8,114.7z"/>
		<path class="st2" d="M80.4,45.3c0,0-12.1-3.8-19.5-11.3c-7.4-7.6-15.1-3.6-15.1-3.6s9,3.5,13.8,7.5C64.2,41.9,69,44,80.4,45.3z"/>
		<linearGradient id="SVGID_6_" gradientUnits="userSpaceOnUse" x1="52.7606" y1="91.3615" x2="439.9602" y2="91.3615">
			<stop  offset="0" style="stop-color:#989898"/>
			<stop  offset="0.1551" style="stop-color:#A7A6A6"/>
			<stop  offset="0.52" style="stop-color:#C8C7C6"/>
			<stop  offset="0.8145" style="stop-color:#DDDDDD"/>
			<stop  offset="1" style="stop-color:#E6E6E5"/>
		</linearGradient>
		<path class="st8" d="M421.3,146c0,0,14.3-8.6,17.3-13.2c3-4.6,0.2-6.7-2.3-8.6c-2.5-1.9-29.4-25.4-94.1-43.5
			c-64.8-18-265-36.5-265-36.5l-16.7-4.2c0,0-7.4-3.8-7.7-3.8c-0.3,0,4.2,3.8,5.3,9.5c1.2,5.7,0.5,18.6,1.4,21.6
			c0.9,3,97.7,22.2,97.7,22.2l105.9,17.6c0,0,8,0.5,14.5-1.2c6.5-1.7,53.7-11.9,64.3-8.6c10.6,3.2,29.6,11.6,62.6,42.4
			C404.5,139.7,412.7,148.6,421.3,146z"/>
		<path class="st1" d="M421.3,146.9c0,0,14.3-8.6,17.3-13.2c3-4.6,0.2-6.7-2.3-8.6c-2.5-1.8-29.4-25.4-94.1-43.5
			c-64.8-18-265-36.5-265-36.5L60.5,41c0,0-7.4-3.8-7.7-3.8c-0.3,0,4.2,3.8,5.3,9.5c1.2,5.7,0.5,18.6,1.4,21.6
			c0.9,3,97.7,22.2,97.7,22.2l105.9,17.6c0,0,8,0.5,14.5-1.2c6.5-1.7,53.7-11.9,64.3-8.6c10.6,3.2,29.6,11.6,62.6,42.4
			C404.5,140.6,412.7,149.5,421.3,146.9z"/>
	</g>
	
		<radialGradient id="SVGID_7_" cx="218.2171" cy="176316.125" r="42.5506" gradientTransform="matrix(3.0215 0 0 6.507500e-002 -499.3724 -11318.2471)" gradientUnits="userSpaceOnUse">
		<stop  offset="0" style="stop-color:#818181"/>
		<stop  offset="1.199549e-002" style="stop-color:#828282"/>
		<stop  offset="0.3403" style="stop-color:#ACA9A6"/>
		<stop  offset="0.6261" style="stop-color:#D0CBC5"/>
		<stop  offset="0.8556" style="stop-color:#E9E3DC"/>
		<stop  offset="1" style="stop-color:#F3EDE5"/>
	</radialGradient>
	<ellipse class="st9" cx="160" cy="155.5" rx="130" ry="3"/>
	
		<radialGradient id="SVGID_8_" cx="264.4851" cy="175521.25" r="42.5508" gradientTransform="matrix(0.8314 0 0 6.507500e-002 140.9582 -11318.2471)" gradientUnits="userSpaceOnUse">
		<stop  offset="0" style="stop-color:#333333"/>
		<stop  offset="0.2109" style="stop-color:#5B5755"/>
		<stop  offset="0.4728" style="stop-color:#908A87"/>
		<stop  offset="0.7013" style="stop-color:#C0BAB5"/>
		<stop  offset="0.8846" style="stop-color:#E2DDD5"/>
		<stop  offset="1" style="stop-color:#F3EDE5"/>
	</radialGradient>
	<ellipse class="st10" cx="360.9" cy="103.8" rx="35.8" ry="3"/>
	
		<radialGradient id="SVGID_9_" cx="327.5323" cy="176175.875" r="42.5528" gradientTransform="matrix(0.8314 0 0 6.507500e-002 140.9582 -11318.2471)" gradientUnits="userSpaceOnUse">
		<stop  offset="0" style="stop-color:#818181"/>
		<stop  offset="1.199549e-002" style="stop-color:#828282"/>
		<stop  offset="0.3403" style="stop-color:#ACA9A6"/>
		<stop  offset="0.6261" style="stop-color:#D0CBC5"/>
		<stop  offset="0.8556" style="stop-color:#E9E3DC"/>
		<stop  offset="1" style="stop-color:#F3EDE5"/>
	</radialGradient>
	<ellipse class="st11" cx="413.3" cy="146.4" rx="35.8" ry="3"/>
</g>
<polygon class="st12" points="406.9,226.7 434.4,203.2 436.4,203.2 405.5,176.3 403.6,178.5 428.5,200.2 371.7,200.2 371.7,203.2 
	429.8,203.2 405,224.4 "/>
<polygon class="st12" points="88.2,226.7 60.7,203.2 58.7,203.2 89.6,176.3 91.5,178.5 66.6,200.2 391.1,200.2 391.1,203.2 
	65.3,203.2 90.1,224.4 "/>
</svg>
