<?xml version="1.0" encoding="utf-8"?>
<!-- Generator: Adobe Illustrator 19.1.0, SVG Export Plug-In . SVG Version: 6.00 Build 0)  -->
<svg version="1.1" id="Layer_2" xmlns="http://www.w3.org/2000/svg" xmlns:xlink="http://www.w3.org/1999/xlink" x="0px" y="0px"
	 viewBox="0 121 480 240" style="enable-background:new 0 121 480 240;" xml:space="preserve">
<style type="text/css">
	.st0{fill:#4A4840;}
	.st1{opacity:0.3;fill:url(#SVGID_1_);enable-background:new    ;}
	.st2{opacity:0.3;fill:url(#SVGID_2_);enable-background:new    ;}
	.st3{fill:url(#SVGID_3_);}
	.st4{fill:url(#SVGID_4_);}
	.st5{fill:url(#SVGID_5_);}
	.st6{fill:url(#SVGID_6_);}
	.st7{fill:#010101;}
	.st8{fill:url(#SVGID_7_);}
	.st9{fill:#676767;}
	.st10{fill:#020303;}
	.st11{fill:url(#SVGID_8_);}
</style>
<polygon class="st0" points="407.5,345.6 436.3,321 438.5,321 406,292.7 404,295 430.2,317.8 370.5,317.8 370.5,321 431.6,321 
	405.4,343.3 "/>
<polygon class="st0" points="72.6,345.6 43.7,321 41.6,321 74,292.7 76.1,295 49.9,317.8 390.9,317.8 390.9,321 48.5,321 
	74.6,343.3 "/>
<g>
	
		<linearGradient id="SVGID_1_" gradientUnits="userSpaceOnUse" x1="60.0149" y1="257.8569" x2="144.0027" y2="257.8569" gradientTransform="matrix(1 0 0 -1 0 484)">
		<stop  offset="0" style="stop-color:#F3EDE5"/>
		<stop  offset="0.6126" style="stop-color:#696462"/>
		<stop  offset="1" style="stop-color:#333333"/>
	</linearGradient>
	<path class="st1" d="M139.3,214.1c0,0,5.4,0.2,4.6,2c-0.8,1.8-8.5,5.2-15.2,5.6c-6.7,0.3-29.8,1-41.3,5.4
		c-11.5,4.4-21.1,11.1-21.1,11.1l-6.2-5.1c0,0,29.9-11.7,42-12.6C129.2,218.5,132.3,213.8,139.3,214.1z"/>
	
		<linearGradient id="SVGID_2_" gradientUnits="userSpaceOnUse" x1="334.2444" y1="257.8569" x2="418.2317" y2="257.8569" gradientTransform="matrix(-1 0 0 -1 753.6836 484)">
		<stop  offset="0" style="stop-color:#F3EDE5"/>
		<stop  offset="0.6126" style="stop-color:#696462"/>
		<stop  offset="1" style="stop-color:#333333"/>
	</linearGradient>
	<path class="st2" d="M340.1,214.1c0,0-5.4,0.2-4.6,2c0.8,1.8,8.5,5.2,15.2,5.6c6.7,0.3,29.8,1,41.3,5.4
		c11.5,4.4,21.1,11.1,21.1,11.1l6.2-5.1c0,0-29.9-11.7-42-12.6C350.3,218.5,347.2,213.8,340.1,214.1z"/>
	
		<radialGradient id="SVGID_3_" cx="207.1849" cy="-177714.6406" r="45.2221" gradientTransform="matrix(1.9817 0 0 -6.507500e-002 -279.9783 -11284.8809)" gradientUnits="userSpaceOnUse">
		<stop  offset="0" style="stop-color:#333333"/>
		<stop  offset="0.2109" style="stop-color:#5B5755"/>
		<stop  offset="0.4728" style="stop-color:#908A87"/>
		<stop  offset="0.7013" style="stop-color:#C0BAB5"/>
		<stop  offset="0.8846" style="stop-color:#E2DDD5"/>
		<stop  offset="1" style="stop-color:#F3EDE5"/>
	</radialGradient>
	<ellipse class="st3" cx="130.6" cy="279.9" rx="90.6" ry="3.2"/>
	
		<radialGradient id="SVGID_4_" cx="213.3019" cy="-176750.9531" r="45.2478" gradientTransform="matrix(0.7636 0 0 -6.507500e-002 -27.6773 -11284.8809)" gradientUnits="userSpaceOnUse">
		<stop  offset="0" style="stop-color:#333333"/>
		<stop  offset="0.2109" style="stop-color:#5B5755"/>
		<stop  offset="0.4728" style="stop-color:#908A87"/>
		<stop  offset="0.7013" style="stop-color:#C0BAB5"/>
		<stop  offset="0.8846" style="stop-color:#E2DDD5"/>
		<stop  offset="1" style="stop-color:#F3EDE5"/>
	</radialGradient>
	<ellipse class="st4" cx="135.2" cy="217.2" rx="34.9" ry="3.2"/>
	
		<radialGradient id="SVGID_5_" cx="487.6602" cy="-176750.9531" r="45.2028" gradientTransform="matrix(0.7636 0 0 -6.507500e-002 -27.6773 -11284.8809)" gradientUnits="userSpaceOnUse">
		<stop  offset="0" style="stop-color:#333333"/>
		<stop  offset="0.2109" style="stop-color:#5B5755"/>
		<stop  offset="0.4728" style="stop-color:#908A87"/>
		<stop  offset="0.7013" style="stop-color:#C0BAB5"/>
		<stop  offset="0.8846" style="stop-color:#E2DDD5"/>
		<stop  offset="1" style="stop-color:#F3EDE5"/>
	</radialGradient>
	<ellipse class="st5" cx="344.7" cy="217.2" rx="34.9" ry="3.2"/>
	
		<radialGradient id="SVGID_6_" cx="312.9832" cy="-177714.6406" r="45.2081" gradientTransform="matrix(2.1541 0 0 -6.507500e-002 -323.297 -11284.8809)" gradientUnits="userSpaceOnUse">
		<stop  offset="0" style="stop-color:#333333"/>
		<stop  offset="0.2109" style="stop-color:#5B5755"/>
		<stop  offset="0.4728" style="stop-color:#908A87"/>
		<stop  offset="0.7013" style="stop-color:#C0BAB5"/>
		<stop  offset="0.8846" style="stop-color:#E2DDD5"/>
		<stop  offset="1" style="stop-color:#F3EDE5"/>
	</radialGradient>
	<ellipse class="st6" cx="350.9" cy="279.9" rx="98.5" ry="3.2"/>
	<g>
		<path class="st7" d="M131.1,217.2c0,0,4.6,2.3,7.8,0s9.8-12.1,9.8-12.1s1-4.2-2-5.9c-2.9-1.7-49.9-32.7-75-35.9
			c-25-3.3-13.2,25.4-11.4,27.4c1.7,2,9.1,4.7,9.1,4.7s9.1-16.2,14.7-14.7C89.8,182.2,114.7,208.6,131.1,217.2z"/>
		
			<linearGradient id="SVGID_7_" gradientUnits="userSpaceOnUse" x1="55.9891" y1="294.3636" x2="148.9992" y2="294.3636" gradientTransform="matrix(1 0 0 -1 0 484)">
			<stop  offset="0" style="stop-color:#A4A2A2"/>
			<stop  offset="1" style="stop-color:#000000"/>
		</linearGradient>
		<path class="st8" d="M131.1,216.2c0,0,4.6,2.3,7.8,0s9.8-12.1,9.8-12.1s1-4.2-2-5.9c-2.9-1.7-49.9-32.7-75-35.9
			c-25.1-3.2-13.3,25.4-11.6,27.5c1.7,2,9.1,4.7,9.1,4.7s9.1-16.2,14.7-14.7C89.8,181.2,114.7,207.6,131.1,216.2z"/>
		<path class="st9" d="M195.4,149.7c-13.8-2.9-44.2-7.9-68.5-9.2s-61.5,1.1-78.7,3c-17.2,2-17.7,6.1-17.7,6.1v7.4l3.7,19.7
			c6.1,0,10.6,5.2,13.3,16.5s6.1,35.9,17,58C75.3,273.3,109.7,279,125,279c15.2,0,38.8-1.5,55.1-10.8c16.2-9.3,35.9-43.3,42.3-64.4
			c6.4-21.1,17.7-19.2,17.7-19.2V160C224.2,158.6,209.1,152.7,195.4,149.7z M210.8,185.8c0,0-4.9,65.2-40.3,76.7s-72.4,4.9-86.5-4.9
			c-14.1-9.8-25.6-35.4-22-77.7s80.7-29.2,89.1-28.5C159.6,152.1,214.1,154.3,210.8,185.8z"/>
		<path class="st10" d="M195.4,151.7c-13.8-2.9-44.2-7.9-68.5-9.2s-61.5,1.1-78.7,3c-17.2,2-17.7,6.1-17.7,6.1v7.4l3.7,19.7
			c6.1,0,10.6,5.2,13.3,16.5s6.1,35.9,17,58C75.3,275.3,109.7,281,125,281c15.2,0,38.8-1.5,55.1-10.8c16.2-9.3,35.9-43.3,42.3-64.4
			c6.4-21.1,17.7-19.2,17.7-19.2V162C224.2,160.5,209.1,154.6,195.4,151.7z M210.8,187.7c0,0-4.9,65.2-40.3,76.7s-72.4,4.9-86.5-4.9
			c-14.1-9.8-25.6-35.4-22-77.7s80.7-29.2,89.1-28.5C159.6,154,214.1,156.3,210.8,187.7z"/>
	</g>
	<g>
		<path class="st7" d="M348.8,217.2c0,0-4.6,2.3-7.8,0c-3.2-2.3-9.8-12.1-9.8-12.1s-1-4.2,2-5.9c2.9-1.7,49.9-32.7,75-35.9
			c25.1-3.2,13.3,25.4,11.6,27.5c-1.7,2-9.1,4.7-9.1,4.7s-9.1-16.2-14.7-14.7C390.1,182.2,365.1,208.6,348.8,217.2z"/>
		
			<linearGradient id="SVGID_8_" gradientUnits="userSpaceOnUse" x1="263.0935" y1="294.3636" x2="356.1036" y2="294.3636" gradientTransform="matrix(-1 0 0 -1 687 484)">
			<stop  offset="0" style="stop-color:#A4A2A2"/>
			<stop  offset="1" style="stop-color:#000000"/>
		</linearGradient>
		<path class="st11" d="M348.8,216.2c0,0-4.6,2.3-7.8,0c-3.2-2.3-9.8-12.1-9.8-12.1s-1-4.2,2-5.9c2.9-1.7,49.9-32.7,75-35.9
			c25.1-3.2,13.3,25.4,11.6,27.5c-1.7,2-9.1,4.7-9.1,4.7s-9.1-16.2-14.7-14.7C390.1,181.2,365.1,207.6,348.8,216.2z"/>
		<path class="st9" d="M239.9,160v24.6c0,0,11.3-2,17.7,19.2c6.4,21.1,26.1,55.1,42.3,64.4c16.2,9.3,39.8,10.8,55.1,10.8
			c15.2,0,49.7-5.7,60.5-27.8s14.3-46.7,17-58s7.1-16.5,13.3-16.5l3.7-19.7v-7.4c0,0-0.5-4.2-17.7-6.1c-17.2-2-54.4-4.3-78.7-3
			c-24.3,1.3-54.7,6.2-68.5,9.2C270.8,152.7,255.7,158.6,239.9,160z M328.8,151.4c8.5-0.7,85.5-13.8,89.1,28.5s-7.9,67.8-22,77.7
			c-14.1,9.8-51.1,16.4-86.5,4.9s-40.3-76.7-40.3-76.7C265.8,154.3,320.3,152.1,328.8,151.4z"/>
		<path class="st10" d="M239.9,162v24.6c0,0,11.3-2,17.7,19.2c6.4,21.1,26.1,55.1,42.3,64.4c16.2,9.3,39.8,10.8,55.1,10.8
			c15.2,0,49.7-5.7,60.5-27.8s14.3-46.7,17-58s7.1-16.5,13.3-16.5l3.7-19.7v-7.4c0,0-0.5-4.2-17.7-6.1c-17.2-2-54.4-4.3-78.7-3
			c-24.3,1.3-54.7,6.2-68.5,9.2C270.8,154.6,255.7,160.5,239.9,162z M328.8,153.3c8.5-0.7,85.5-13.8,89.1,28.5s-7.9,67.8-22,77.7
			c-14.1,9.8-51.1,16.4-86.5,4.9c-35.4-11.4-40.3-76.7-40.3-76.7C265.8,156.3,320.3,154,328.8,153.3z"/>
	</g>
</g>
</svg>
