<svg viewBox="0 0 600 250" style="width:60px;height:25px">
	<path fill="var(--primary)" d="M193.9 11.2c.8-.7-3.1-1.3 0 0zM572.5 112.7l-.3-22.2h-12.5c-4.1-27.1-12.1-51.8-41.8-64.2-7-3-15.2-5.3-24.9-6.8-28.7-4.4-54.4-6.7-76.3-7.3H406c-6.5-.1-8.7-.5-9.2-.9-.4.1-.8.3-1.4.5-5.6-.4-6.5-.9-10.8.2-9.5.4-24 1.5-29.6 1.3-.5-.1-.9-.1-1.2-.2-2.9-.9-12.6-1.3-23.4-1.4h-7.6c-12.4 0-24.4.2-27.5.3-3-.1-15-.3-27.5-.3h-7.6c-10.8.1-20.5.5-23.4 1.4-.3.1-.7.2-1.2.2-5.6.2-20.1-.9-29.6-1.3-4.2-1.1-5.1-.7-10.8-.2-.6-.2-1-.4-1.4-.5-.5.4-2.7.8-9.2.9H173.9c-22 .5-47.6 2.9-76.3 7.3-9.6 1.5-17.8 3.8-24.8 6.8C43.1 38.7 35.1 63.4 31 90.5H18.5l-.3 22.2h9.7c-3.1 40.9 17.1 75.5 18 77.1l.3 1c18.5 25.3 62.9 43.6 87.9 46.7 4.5.5 8.3 1.7 11.9 1.7 22.4 0 42.5-12.1 74.3-42.3 5.7-5.5 10.9-11.9 15.5-18.8 5.3-7.6 9.8-15.9 13.6-24.6 1.1-.2 2.3-.5 3.4-1.1 5.5-3.2 22.2-44.8 25.9-53.6 2.4-5.8 7.3-6.9 11.6-7.1 1.5 0 2.9.2 4 .2h2c1.1 0 2.5-.1 4-.2 4.3.1 9.2 1.3 11.6 7.1 3.7 8.8 20.4 50.4 25.9 53.6 1.1.6 2.3.9 3.4 1.1 3.8 8.7 8.4 17 13.6 24.6 4.6 6.9 9.8 13.3 15.5 18.8 31.8 30.2 51.9 42.3 74.3 42.3 3.6 0 7.4-1.2 11.9-1.7 25-3.1 69.4-21.4 87.9-46.7l.3-1c.9-1.6 21.1-36.2 18-77.1h9.8zM454.9 224.6c-4 .5-7.4-.2-10.5-.2-16.2 0-33-5.5-66.5-37.4-32-30.3-44.9-87.8-41.7-124.8.6-6.7 1.8-12.7 3.4-17.7 4.6-13.7 27.9-21 67.6-21 23.3 0 51.6 2.5 84 7.4 50.7 7.7 54.6 38.8 59.5 78.1l.2 1.2c4.4 35.5-14.2 70.6-16 73.9-2.8 3.8-6.4 7.4-10.5 10.9-19.6 16.4-51 27.4-69.5 29.6zM55.7 184.1c-1.8-3.3-20.4-38.4-16-73.9l.2-1.2c4.9-39.3 8.8-70.4 59.5-78.1 32.4-4.9 60.7-7.4 84-7.4 39.7 0 63 7.3 67.6 21 1.7 5 2.8 11 3.4 17.7 3.2 37-9.7 94.5-41.7 124.8-33.5 31.9-50.3 37.4-66.5 37.4-3.1 0-6.5.7-10.5.2-18.5-2.2-49.9-13.2-69.6-29.6-4-3.5-7.6-7.1-10.4-10.9zM396.8 11.2c3-1.3-.8-.7 0 0z"/>
</svg>