<svg viewBox="0 0 600 250" style="width:60px;height:25px">
	<path fill="var(--primary)" d="M193.9,11.2C194.7,10.5,190.8,9.9,193.9,11.2L193.9,11.2z"/>
	<path fill="var(--primary)" d="M572.5,112.7l-0.3-22.2h-10.6h-1.9c-4.1-27.1-12.1-51.8-41.8-64.2c-7-3-15.2-5.3-24.9-6.8c-28.7-4.4-54.4-6.7-76.3-7.3
		c0,0,0,0-0.1,0c-0.8,0-1.6,0-2.3,0c-0.8,0-1.6,0-2.5,0c-0.2,0-0.4,0-0.6,0c-1.3,0-2.6,0-3.8,0c-0.5,0-1,0-1.4,0
		c-6.5-0.1-8.7-0.5-9.2-0.9c-0.4,0.1-0.8,0.3-1.4,0.5c-5.6-0.4-6.5-0.9-10.8,0.2c-9.5,0.4-24,1.5-29.6,1.3c-0.5-0.1-0.9-0.1-1.2-0.2
		c-2.9-0.9-12.6-1.3-23.4-1.4c-2.5,0-5.1,0-7.6,0c-12.4,0-24.4,0.2-27.5,0.3c-3-0.1-15-0.3-27.5-0.3c-2.5,0-5.1,0-7.6,0
		c-10.8,0.1-20.5,0.5-23.4,1.4c-0.3,0.1-0.7,0.2-1.2,0.2c-5.6,0.2-20.1-0.9-29.6-1.3c-4.2-1.1-5.1-0.7-10.8-0.2
		c-0.6-0.2-1-0.4-1.4-0.5c-0.5,0.4-2.7,0.8-9.2,0.9c-0.5,0-0.9,0-1.4,0c-1.3,0-2.5,0-3.8,0c-0.2,0-0.4,0-0.6,0c-0.8,0-1.6,0-2.5,0
		c-0.8,0-1.5,0-2.3,0c0,0,0,0-0.1,0c-22,0.5-47.6,2.9-76.3,7.3C88,21,79.8,23.3,72.8,26.3C43.1,38.7,35.1,63.4,31,90.5h-1.9H18.5
		l-0.3,22.2h9.7c-3.1,40.9,17.1,75.5,18,77.1l0.3,1c18.5,25.3,62.9,43.6,87.9,46.7c4.5,0.5,8.3,1.7,11.9,1.7
		c22.4,0,42.5-12.1,74.3-42.3c5.7-5.5,10.9-11.9,15.5-18.8c5.3-7.6,9.8-15.9,13.6-24.6c1.1-0.2,2.3-0.5,3.4-1.1
		c5.5-3.2,22.2-44.8,25.9-53.6c2.4-5.8,7.3-6.9,11.6-7.1c1.5,0,2.9,0.2,4,0.2c0.3,0,0.6,0,1,0c0.3,0,0.7,0,1,0c1.1,0,2.5-0.1,4-0.2
		c4.3,0.1,9.2,1.3,11.6,7.1c3.7,8.8,20.4,50.4,25.9,53.6c1.1,0.6,2.3,0.9,3.4,1.1c3.8,8.7,8.4,17,13.6,24.6
		c4.6,6.9,9.8,13.3,15.5,18.8c31.8,30.2,51.9,42.3,74.3,42.3c3.6,0,7.4-1.2,11.9-1.7c25-3.1,69.4-21.4,87.9-46.7l0.3-1
		c0.9-1.6,21.1-36.2,18-77.1H572.5z M454.9,224.6c-4,0.5-7.4-0.2-10.5-0.2c-16.2,0-33-5.5-66.5-37.4c-32-30.3-44.9-87.8-41.7-124.8
		c0.6-6.7,1.8-12.7,3.4-17.7c4.6-13.7,27.9-21,67.6-21c23.3,0,51.6,2.5,84,7.4c50.7,7.7,54.6,38.8,59.5,78.1l0.2,1.2
		c4.4,35.5-14.2,70.6-16,73.9c-2.8,3.8-6.4,7.4-10.5,10.9C504.8,211.4,473.4,222.4,454.9,224.6z M55.7,184.1
		c-1.8-3.3-20.4-38.4-16-73.9l0.2-1.2c4.9-39.3,8.8-70.4,59.5-78.1c32.4-4.9,60.7-7.4,84-7.4c39.7,0,63,7.3,67.6,21
		c1.7,5,2.8,11,3.4,17.7c3.2,37-9.7,94.5-41.7,124.8c-33.5,31.9-50.3,37.4-66.5,37.4c-3.1,0-6.5,0.7-10.5,0.2
		c-18.5-2.2-49.9-13.2-69.6-29.6C62.1,191.5,58.5,187.9,55.7,184.1z"/>
	<path fill="var(--primary)" d="M396.8,11.2C399.8,9.9,396,10.5,396.8,11.2L396.8,11.2z"/>
</svg>