<svg viewBox="0 0 600 250" style="width:60px;height:25px">
	<path fill="var(--primary)" d="M583.8 97.7h-6.6c-2.2-18.5-9.8-33.2-10.3-34-16.2-24.5-35.7-36.5-57.3-42.4-20.1-5.6-42-6-64.5-6.3l-8.5-.1c-1.4 0-2.9-.1-4.3-.1-6.7 0-13.2.9-19.4.9H184.6c-7.7 0-15.9-1.1-24.5-.9l-8.5.1c-46.5.8-90.4 1.3-121.7 48.7-.5.8-8.1 15.5-10.3 34.1h-3.4v.1H13v14.9h6.1c.1 3.5.3 6.7.6 9.8.7 6.9 2 13.2 4.2 20.8 14.2 48.5 42.2 80.1 78.9 88.1 10.8 2.4 19.9 3.9 28.7 3.9 33.6 0 63.4-15.8 96.8-53.1 32.9-36.7 41.8-77 39.4-103.1H329c-2.4 26.1 6.6 66.3 39.4 103 33.4 37.3 63.2 53.1 96.8 53.1 8.8 0 17.9-1.5 28.7-3.9 36.7-8 64.7-39.6 78.9-88.1 1.6-5.6 2.8-10.5 3.6-15.5.8-4.7 1.2-9.5 1.3-15h2.9v-.1h3.2V97.7zM339.7 44.4c-2.4 2.7-4.6 6-6.3 10.6-.6 1.6-1.2 3.4-1.8 5.4h-66.4c-2-7.5-4.8-12.3-8.1-16-6.8-7.7-19.2-15.3-35.8-21 17.7-.4 35.6 3.1 38.9 6.9 3.6 4.1 35.2 3.8 35.2 3.8s4.7 0 10.7-.1c8.9-.1 27.8-.7 30.5-3.8 3.1-3.5 18.4-6.7 34.6-6.9 1.6 0 3.2 0 4.8.1-3.8 1.3-7.4 2.7-10.8 4.2-11.4 4.9-20.2 10.8-25.5 16.8zM38.5 139.2c-11.8-40.4 4.1-67 4.4-67.1C69.6 31.6 106 31 152.1 30.2l8.6-.2h4c43.6 0 72.6 14.8 81.4 24.7.8.8 1.5 2 2.2 3.4 7.7 16.2 11 65.2-31.1 112.1-38.8 43.4-66.1 48.7-85.6 48.7-7.7 0-15.8-.8-25.6-2.9-15.5-3.4-29.3-11.8-40.7-24.7-11.5-13-20.6-30.6-26.8-52.1zm452.3 77c-9.8 2.1-17.9 2.9-25.6 2.9-19.5 0-46.8-5.3-85.6-48.7-46.3-51.6-37.7-105.7-28.7-116 1.1-1.2 2.5-2.5 4.2-3.9.2-.2.5-.4.7-.6.2-.1.3-.2.5-.4 12.7-9.2 39-19.7 75.8-19.7H436.4l8.6.2c27.3.5 51.2.9 71.8 9.7.3.1.6.3.9.4l.6.3c13.4 6 25.2 15.8 35.7 31.6.3.1 16.2 26.7 4.4 67.1-9.4 32.2-25.2 55.8-45.7 68.4-6.9 4.1-14.2 7-21.9 8.7z"/>
</svg>