<svg viewBox="0 0 600 250" style="width:60px;height:25px;">
	<path fill="var(--primary)" d="M385.2 35.1c-36.8 8.7-55.9 9.7-85.3 9.7s-48.4-.9-85.2-9.7S74.1 28.7 27.8 63.2v31.7s11.8-1.4 18.3 28.5 19.3 80.4 57 88.8c44.3 9.9 96.9 11 129.5-8.3 33.8-20 38.5-59.8 43.6-79.6s5.4-34 23.8-34 18.7 14.3 23.8 34 9.7 59.8 43.6 79.6c27.8 16.2 81.1 16.2 129.5 8.3 38.1-6.2 50.6-58.9 57-88.8s18.4-28.5 18.4-28.5V63.2C526.2 28.7 422 26.4 385.2 35.1zm-141.9 138c-16.1 27.6-44.6 42.8-95.2 37.3s-59.8-19.3-72.7-40.9-20.2-80-12-99.8c8.3-19.8 69.5-24.4 98-24.8 29-.5 77.7 4.1 96.1 26.2 18.4 22 1.9 74.4-14.2 102zm281-3.6c-11 28.8-55.7 41.3-87.8 39.8-43.8-2.1-59.2-4.6-80.7-32.6-19.4-25.4-32.1-83.5-13.7-105.6s67.2-26.7 96.1-26.2c28.5.5 89.7 5.1 98 24.8 8.4 19.7-2.9 76.2-11.9 99.8z"/>
</svg>