<?xml version="1.0" encoding="utf-8"?>
<!-- Generator: Adobe Illustrator 24.0.1, SVG Export Plug-In . SVG Version: 6.00 Build 0)  -->
<svg version="1.1" id="Capa_1" xmlns="http://www.w3.org/2000/svg" xmlns:xlink="http://www.w3.org/1999/xlink" x="0px" y="0px"
	 viewBox="0 0 1920 1080" style="enable-background:new 0 0 1920 1080;" xml:space="preserve">
<style type="text/css">
	.st0{opacity:0.46;fill:url(#SVGID_1_);enable-background:new    ;}
	.st1{fill:#191919;}
</style>
<g id="_x2018_ëîé_x5F_2">
</g>
<g>
	
		<radialGradient id="SVGID_1_" cx="899.8691" cy="298.4324" r="486.6484" gradientTransform="matrix(1 0 0 -1 0 1080)" gradientUnits="userSpaceOnUse">
		<stop  offset="0" style="stop-color:#CBCFDC"/>
		<stop  offset="0.1425" style="stop-color:#EBEBEB"/>
		<stop  offset="1" style="stop-color:#8F97B2"/>
	</radialGradient>
	<path class="st0" d="M1579.9,736C1128.1,940.7,521.7,874.3,216.7,721.6c16-52.4,23.1,30.2,35.6-23c552.7,79.1,737.8,60.1,1327.6,3
		C1592,754.5,1564.8,683.7,1579.9,736z"/>
</g>
<g>
	<path class="st1" d="M1597.2,759.6c6.2-13.6,12.4-27.2,18.7-40.7c234.6,59,216.9-248.8,333.1-580.2c12.9,3.9,25.7,7.8,38.6,11.7
		C1876.2,468,1883.3,831.4,1597.2,759.6z"/>
</g>
<g>
	<path class="st1" d="M214.9,752.3c-151.3,24.7-167.2,24.3-315.5,0c3.4-13.7,2.4-27.9,5.4-41.7c146.2,25.5,155.8,25.2,304.3,0.1
		C211.7,724.6,211.6,738.7,214.9,752.3z"/>
</g>
<g>
	<path class="st1" d="M1624.3,731.5c-515.7,53.2-904.2,52.5-1419.8-3c-12.4-1.3-13.4-8.1-14-17c-0.2-3.3,0.3-9.1,1.7-12.2
		c3.8-8.4,5.1-15,17.5-13.7c513.7,53.9,896.6,55.3,1408.7,2.8c12.3-1.3,15.8,5.5,18.4,13.8c0.9,3.1,1.9,9,1.6,12.2
		C1637.6,723.4,1636.7,730.2,1624.3,731.5z"/>
</g>
</svg>
