<?xml version="1.0" encoding="utf-8"?>
<!-- Generator: Adobe Illustrator 24.0.1, SVG Export Plug-In . SVG Version: 6.00 Build 0)  -->
<svg version="1.1" id="Capa_1" xmlns="http://www.w3.org/2000/svg" xmlns:xlink="http://www.w3.org/1999/xlink" x="0px" y="0px"
	 viewBox="0 0 1920 1080" style="enable-background:new 0 0 1920 1080;" xml:space="preserve">
<style type="text/css">
	.st0{fill:#191919;}
	.st1{opacity:0.46;fill:url(#SVGID_1_);enable-background:new    ;}
</style>
<g id="_x2018_ëîé_x5F_2">
</g>
<path class="st0" d="M1597.2,759.6c6.2-13.6,12.4-27.2,18.7-40.7c234.6,59,216.9-248.8,333.1-580.2c12.9,3.9,25.7,7.8,38.6,11.7
	C1876.2,468,1883.3,831.4,1597.2,759.6z"/>
<path class="st0" d="M214.9,752.3c-151.3,24.7-167.2,24.3-315.5,0c3.4-13.7,2.4-27.9,5.4-41.7c146.2,25.5,155.8,25.2,304.3,0.1
	C211.7,724.6,211.6,738.7,214.9,752.3z"/>
<radialGradient id="SVGID_1_" cx="916.5029" cy="418.7058" r="500.7707" gradientTransform="matrix(1 0 0 -1 0 1080)" gradientUnits="userSpaceOnUse">
	<stop  offset="0" style="stop-color:#CBCFDC"/>
	<stop  offset="0.1425" style="stop-color:#EBEBEB"/>
	<stop  offset="1" style="stop-color:#8F97B2"/>
</radialGradient>
<path class="st1" d="M1591.6,743.2c-755.5,56.3-624.8,52.4-1334.8,1.8c-22.6-1.6-39.3-22-37.7-44.7c3.5-51.2,3.8-102,12.4-149.7
	c1.5-8.3,9.6-13.7,17.8-11.9c702.4,149.9,619.2,140.8,1329.6,2.5c8.4-1.6,16.4,4,17.6,12.5c7.3,51.6,7.7,107.3,17,160.9
	C1616.1,728.7,1605.9,742.1,1591.6,743.2z"/>
<path class="st0" d="M1624.3,731.5c-515.7,53.2-904.2,52.5-1419.8-3c-12.4-1.3-13.4-8.1-14-17c-0.2-3.3,0.3-9.1,1.7-12.2
	c3.8-8.4,5.1-15,17.5-13.7c513.7,53.9,896.6,55.3,1408.7,2.8c12.3-1.3,15.8,5.5,18.4,13.8c0.9,3.1,1.9,9,1.6,12.2
	C1637.6,723.4,1636.7,730.2,1624.3,731.5z"/>
</svg>
