<?xml version="1.0" encoding="utf-8"?>
<!-- Generator: Adobe Illustrator 19.1.0, SVG Export Plug-In . SVG Version: 6.00 Build 0)  -->
<svg version="1.1" id="Camada_1" xmlns="http://www.w3.org/2000/svg" xmlns:xlink="http://www.w3.org/1999/xlink" x="0px" y="0px"
	 viewBox="-254 371.7 101.1 49.1" style="enable-background:new -254 371.7 101.1 49.1;" xml:space="preserve">
<style type="text/css">
	.st0{fill:#003fff;}
	.st1{opacity:0.5;fill:#003fff;enable-background:new    ;}
</style>
<path class="st0" d="M-214.2,400.6h10.7c0.2,0,0.3-0.1,0.3-0.3v-8.5c0-0.2-0.1-0.3-0.3-0.3h-10.7c-0.2,0-0.3,0.1-0.3,0.3v8.5
	C-214.5,400.5-214.3,400.6-214.2,400.6z"/>
<path class="st0" d="M-204.2,376.7h14v43.4c0,0.5-0.2,0.7-0.7,0.7h-7.9c-0.5,0-0.7-0.2-0.7-0.7v-39c0-0.5-0.2-0.7-0.7-0.7h-3.3
	c-0.5,0-0.7-0.2-0.7-0.7L-204.2,376.7L-204.2,376.7z"/>
<path class="st0" d="M-186.2,376.7h30.6v3c0,0.5-0.2,0.7-0.7,0.7h-19c-0.5,0-0.7,0.2-0.7,0.7v8.7c0,0.5,0.2,0.7,0.7,0.7h6.9
	c3.5,0,6.3,0.5,8.4,1.4c2.1,1,3.6,2.1,4.7,3.6c1,1.4,1.7,3,2,4.9c0.3,1.8,0.4,3.5,0.4,5.1c0,2.1-0.3,4.1-0.9,6
	c-0.6,1.9-1.4,3.5-2.7,4.9c-1.2,1.4-2.8,2.5-4.8,3.2c-1.9,0.8-4.3,1.2-7.1,1.2h-17.2c-0.5,0-0.7-0.2-0.7-0.7v-7.1
	c0-0.5,0.2-0.7,0.7-0.7h16.2c1.5,0,2.9-0.6,4-1.7c1.1-1.1,1.8-2.9,1.8-5.1c0-1.4-0.2-2.5-0.5-3.3c-0.3-0.9-0.8-1.4-1.3-1.8
	c-0.6-0.4-1.1-0.7-1.9-0.8c-0.7-0.1-1.4-0.2-2.2-0.2h-16.1c-0.5,0-0.7-0.2-0.7-0.7V376.7L-186.2,376.7z"/>
<path class="st1" d="M-251.4,372.6c0-0.5,0.2-0.7,0.7-0.7h24.7c1.6,0,3.1,0.3,4.6,0.9c1.4,0.6,2.6,1.3,3.6,2.4c0.5,0.5,1,1,1.3,1.6
	h-34.9V372.6L-251.4,372.6z"/>
<path class="st1" d="M-187.6,376.7v-2.3c0-0.9-0.2-1.4-0.7-1.9c-0.5-0.4-1.1-0.6-1.9-0.6H-201c-0.5,0-0.7,0.2-0.7,0.7v4.1H-187.6
	L-187.6,376.7z"/>
<path class="st1" d="M-153,376.7v-4.1c0-0.5-0.2-0.7-0.7-0.7H-183c-0.5,0-0.7,0.2-0.7,0.7v4.1H-153z"/>
<path class="st0" d="M-215.8,403.6c-0.1-0.6-0.2-1.1-0.4-1.7c-0.2-0.6-0.4-1.1-0.7-1.7c-0.3-0.6-0.6-1-0.9-1.4
	c-0.9-1-1.7-1.7-2.4-2.5c-0.7-0.8-1-1.2-1-1.4c0-0.1,0.2-0.3,0.6-0.6c0.5-0.3,0.9-0.8,1.4-1.5c0.6-0.8,1-1.8,1.4-3.2
	c0.4-1.4,0.6-3.3,0.6-5.8c0-1.9-0.3-3.5-0.9-5c-0.4-0.8-0.8-1.4-1.1-2.1H-254v43.4c0,0.5,0.2,0.7,0.7,0.7h24.3
	c2.7,0,4.8-0.4,6.5-1.2c1.6-0.8,3-1.9,4.1-3.4c1-1.4,1.8-3,2.2-5c0.4-1.9,0.6-3.9,0.6-6.1C-215.7,404.7-215.7,404.2-215.8,403.6z
	 M-244,390.8v-9.4c0-0.5,0.2-0.7,0.7-0.7h11.7c1.3,0,2.5,0.4,3.5,1.1c1,0.8,1.5,2.1,1.5,4.1c0,2.1-0.4,3.5-1.1,4.3
	c-0.8,0.9-2.1,1.2-3.9,1.2h-11.8C-243.9,391.4-244.1,391.2-244,390.8L-244,390.8z M-225.1,407.9c-0.1,0.7-0.4,1.3-0.7,1.9
	c-0.3,0.6-0.8,1.1-1.2,1.5c-0.5,0.4-1.1,0.6-1.9,0.6h-14.5c-0.5,0-0.7-0.2-0.7-0.7h0.1v-10c0-0.5,0.2-0.7,0.7-0.7h14.4
	c0.4,0,0.9,0.1,1.3,0.3c0.5,0.2,1,0.5,1.3,0.9c0.4,0.5,0.7,1,1,1.7c0.3,0.8,0.4,1.6,0.4,2.7C-225,406.7-225,407.2-225.1,407.9z"/>
</svg>
