<?xml version="1.0" encoding="utf-8"?>
<!-- Generator: Adobe Illustrator 19.1.0, SVG Export Plug-In . SVG Version: 6.00 Build 0)  -->
<svg version="1.1" id="Camada_1" xmlns="http://www.w3.org/2000/svg" xmlns:xlink="http://www.w3.org/1999/xlink" x="0px" y="0px"
	 viewBox="0 0 101.1 51.3" style="enable-background:new 0 0 101.1 51.3;" xml:space="preserve">
<style type="text/css">
	.st0{fill-rule:evenodd;clip-rule:evenodd;fill:#003fff;}
	.st1{opacity:0.5;fill:#003fff;}
</style>
<path class="st0" d="M36.6,5c0.4,0.7,0.8,1.4,1.2,2.2c0.6,1.5,0.9,3.2,0.9,5.2c0,2.6-0.2,4.6-0.6,6.1c-0.4,1.5-0.9,2.6-1.5,3.4
	c-0.6,0.8-1,1.3-1.5,1.6c-0.4,0.3-0.6,0.5-0.6,0.6c0,0.2,0.4,0.7,1.1,1.5c0.7,0.8,1.6,1.6,2.5,2.6c0.3,0.4,0.6,0.9,0.9,1.5
	c0.3,0.6,0.5,1.2,0.7,1.8c0.2,0.6,0.3,1.2,0.4,1.8c0.1,0.6,0.1,1.1,0.1,1.5c0,2.3-0.2,4.4-0.6,6.4c-0.4,2-1.2,3.7-2.3,5.2
	C36.2,48,34.7,49.2,33,50c-1.8,0.9-4,1.3-6.8,1.3H0.7c-0.5,0-0.7-0.2-0.7-0.7V5H36.6L36.6,5z M42.4,5h14.7v45.6
	c0,0.5-0.2,0.7-0.7,0.7h-8.3c-0.5,0-0.7-0.2-0.7-0.7V9.7c0-0.5-0.2-0.7-0.7-0.7h-3.5c-0.5,0-0.7-0.2-0.7-0.7V5L42.4,5z M61.3,5h37.1
	v3.2c0,0.5-0.2,0.7-0.7,0.7H72.8c-0.5,0-0.7,0.2-0.7,0.7v9.1c0,0.5,0.2,0.7,0.7,0.7H85c3.7,0,6.6,0.5,8.8,1.5c2.2,1,3.8,2.2,4.9,3.8
	c1.1,1.5,1.8,3.2,2.1,5.1c0.3,1.9,0.4,3.7,0.4,5.4c0,2.2-0.3,4.3-0.9,6.3c-0.6,2-1.5,3.7-2.8,5.1c-1.3,1.5-2.9,2.6-5,3.4
	c-2,0.8-4.5,1.3-7.5,1.3H62c-0.5,0-0.7-0.2-0.7-0.7v-7.5c0-0.5,0.2-0.7,0.7-0.7h22c1.6,0,3-0.6,4.2-1.8c1.2-1.2,1.9-3,1.9-5.4
	c0-1.5-0.2-2.6-0.5-3.5c-0.3-0.9-0.8-1.5-1.4-1.9c-0.6-0.4-1.2-0.7-2-0.8c-0.7-0.1-1.5-0.2-2.3-0.2H62c-0.5,0-0.7-0.2-0.7-0.7V5
	L61.3,5z M10.4,41.3c0,0.5,0.2,0.7,0.7,0.7h15.2c0.8,0,1.5-0.2,2-0.6c0.5-0.4,1-1,1.3-1.6c0.3-0.6,0.6-1.3,0.7-2
	c0.1-0.7,0.2-1.3,0.2-1.9c0-1.1-0.1-2-0.4-2.8c-0.3-0.7-0.6-1.3-1-1.8c-0.4-0.4-0.9-0.7-1.4-0.9c-0.5-0.2-1-0.3-1.4-0.3H11.2
	c-0.5,0-0.7,0.2-0.7,0.7V41.3L10.4,41.3z M10.4,19.8c0,0.5,0.2,0.7,0.7,0.7h12.4c1.9,0,3.3-0.4,4.1-1.3c0.8-0.8,1.2-2.3,1.2-4.5
	c0-2.1-0.5-3.5-1.6-4.3c-1.1-0.8-2.3-1.2-3.7-1.2H11.2c-0.5,0-0.7,0.2-0.7,0.7V19.8z"/>
<path class="st1" d="M2.7,0.7C2.7,0.2,2.9,0,3.4,0h25.9c1.7,0,3.3,0.3,4.8,0.9c1.5,0.6,2.7,1.4,3.8,2.5c0.5,0.5,1,1.1,1.4,1.7H2.7
	V0.7L2.7,0.7z M59.8,5V2.6c0-0.9-0.2-1.5-0.7-2C58.6,0.2,57.9,0,57.1,0H45.8c-0.5,0-0.7,0.2-0.7,0.7V5H59.8L59.8,5z M101.1,5V0.7
	c0-0.5-0.2-0.7-0.7-0.7H64.7C64.2,0,64,0.2,64,0.7V5H101.1z"/>
</svg>
