<svg id="Camada_1" data-name="Camada 1" xmlns="http://www.w3.org/2000/svg" viewBox="0 0 1178 308"><defs><style>.cls-1{fill:#fff;}.cls-2{fill:#eee;}</style></defs><title>Prancheta 1</title><path class="cls-1" d="M2.6,200.9c0-34.5,24.2-63.7,64.2-63.7,40.3,0,64.5,29.2,64.5,63.7s-24.2,64-64.5,64C26.8,264.9,2.6,235.4,2.6,200.9Zm95.4,0c0-18.9-11.1-35.2-31.2-35.2-19.9,0-31,16.4-31,35.2,0,19.1,11.1,35.5,31,35.5C86.9,236.4,98,220.1,98,200.9Z"/><path class="cls-1" d="M187.2,246.2v61.9h-32V140.2h32v15.4a47.12,47.12,0,0,1,37.5-18.4c31.2,0,53.9,23.2,53.9,63.7s-22.7,64-53.9,64C210.3,264.9,197.2,258.8,187.2,246.2Zm58.4-45.3c0-20.9-12.6-35.2-31-35.2-10.3,0-21.9,5.8-27.4,13.8v42.8c5.3,7.8,17.1,14.1,27.4,14.1C233,236.4,245.6,222.1,245.6,200.9Z"/><path class="cls-1" d="M308.5,231.4V168.2H288.4V140.3h20.1V107h32v33.2h24.7v27.9H340.5v54.6c0,7.8,4,13.6,11.1,13.6,4.8,0,9.3-1.8,11.1-3.8l6.8,24.4c-4.8,4.3-13.3,7.8-26.7,7.8C320.3,264.9,308.5,253.3,308.5,231.4Z"/><path class="cls-1" d="M384,108a19,19,0,0,1,38,0,19,19,0,1,1-38,0Zm3.1,153.8V140.2h32V261.8Z"/><path id="_Caminho_composto_" data-name="&lt;Caminho composto&gt;" class="cls-1" d="M674.9,168.1c0-52.2,36.6-96.4,97.1-96.4,61,0,97.5,44.2,97.5,96.4s-36.6,96.8-97.5,96.8C711.5,264.9,674.9,220.3,674.9,168.1Zm144.4,0c0-28.6-16.8-53.3-47.2-53.3-30.1,0-46.9,24.8-46.9,53.3,0,29,16.8,53.7,46.9,53.7C802.5,221.8,819.3,197.1,819.3,168.1Z"/><path id="_Caminho_" data-name="&lt;Caminho&gt;" class="cls-1" d="M1029.9,237.1h0a87.68,87.68,0,0,1-64.8,27.8c-40.4,0-59.4-22.1-59.4-57.9V76.3h48.4V187.9c0,25.5,13.3,33.9,33.9,33.9,18.7,0,33.5-10.3,41.9-21v-100a24.58,24.58,0,0,1,24.6-24.6h23.8v184h-25.1A23.15,23.15,0,0,1,1029.9,237.1Z"/><path id="_Caminho_2" data-name="&lt;Caminho&gt;" class="cls-1" d="M1126.3,260.3V54.6a48.44,48.44,0,0,1,48.4-48.4h0V260.3Z"/><path id="_Caminho_3" data-name="&lt;Caminho&gt;" class="cls-1" d="M538.6,98.9h0c-71.8-16-69.4-58.7-55.4-79.2-21.2,14.3-33.1,36-33.1,60,0,95.6,146.3,64.8,146.3,109,0,14.9-14.1,28.2-44.2,28.2a110,110,0,0,1-61.7-18.7,25.54,25.54,0,0,0-35,6.8h0a25.84,25.84,0,0,0,7.2,36.5c22.2,14.4,50.8,23.4,87.2,23.4,68.2,0,101.7-35,101.7-81.5C651.7,117.6,581.6,110.4,538.6,98.9Z"/><path id="_Caminho_4" data-name="&lt;Caminho&gt;" class="cls-2" d="M536.4,2.7c-15.2,1.1-29.7,7.9-38.8,20.1C476.8,50.4,506,71.7,506,71.7h0c2-13.1,14.6-21.3,35.5-21.3a114.15,114.15,0,0,1,55.3,14.2c10.7,6,24.4,4.3,32.4-5A25.39,25.39,0,0,0,622.7,21c-21.4-12.3-47-18.7-76.2-18.7C543.1,2.4,539.7,2.5,536.4,2.7Z"/></svg>